<svg width="500" height="512" viewBox="0 0 500 512" fill="none" xmlns="http://www.w3.org/2000/svg">
<g clip-path="url(#clip0_2_30)">
<rect width="500" height="512" fill="white"/>
<path d="M317.417 61H181.583L168 80.7632M317.417 61L331 80.7632L276.667 159.816M317.417 61L263.083 140.053M168 80.7632H276.667L249.5 120.29L235.917 100.526M168 80.7632L235.917 179.579L181.583 258.632M168 80.7632L263.083 219.106H235.917H290.25L208.75 100.526M235.917 100.526L290.25 179.579M235.917 100.526L331 238.869M263.083 100.526H208.75M208.75 100.526L263.083 179.579M331 238.869L317.417 258.632H181.583M331 238.869H222.333L249.5 199.342M181.583 258.632L168 238.869L222.333 159.816" stroke="#1A1876" stroke-linecap="round" stroke-linejoin="round"/>
<path d="M208.417 139.848H72.5833L59 159.611M208.417 139.848L222 159.611L167.667 238.664M208.417 139.848L154.083 218.901M59 159.611H167.667L140.5 199.138L126.917 179.374M59 159.611L126.917 258.427L72.5833 337.48M59 159.611L154.083 297.954H126.917H181.25L99.75 179.374M126.917 179.374L181.25 258.427M126.917 179.374L222 317.717M154.083 179.374H99.75M99.75 179.374L154.083 258.427M222 317.717L208.417 337.48H72.5833M222 317.717H113.333L140.5 278.19M72.5833 337.48L59 317.717L113.333 238.664" stroke="#1A1876" stroke-linecap="round" stroke-linejoin="round"/>
<path d="M426.417 139.848H290.583L277 159.611M426.417 139.848L440 159.611L385.667 238.664M426.417 139.848L372.083 218.901M277 159.611H385.667L358.5 199.138L344.917 179.374M277 159.611L344.917 258.427L290.583 337.48M277 159.611L372.083 297.954H344.917H399.25L317.75 179.374M344.917 179.374L399.25 258.427M344.917 179.374L440 317.717M372.083 179.374H317.75M317.75 179.374L372.083 258.427M440 317.717L426.417 337.48H290.583M440 317.717H331.333L358.5 278.19M290.583 337.48L277 317.717L331.333 238.664" stroke="#1A1876" stroke-linecap="round" stroke-linejoin="round"/>
<path d="M317.417 219H181.583L168 239M317.417 219L331 239L276.667 319M317.417 219L263.083 299M168 239H276.667L249.5 279L235.917 259M168 239L235.917 339L181.583 419M168 239L263.083 379H235.917H290.25L208.75 259M235.917 259L290.25 339M235.917 259L331 399M263.083 259H208.75M208.75 259L263.083 339M331 399L317.417 419H181.583M331 399H222.333L249.5 359M181.583 419L168 399L222.333 319" stroke="#1A1876" stroke-linecap="round" stroke-linejoin="round"/>
<line x1="222.41" y1="238.713" x2="236.41" y2="258.713" stroke="#1A1876"/>
<line x1="263.41" y1="218.713" x2="277.41" y2="238.713" stroke="#1A1876"/>
</g>
<defs>
<clipPath id="clip0_2_30">
<rect width="500" height="512" fill="white"/>
</clipPath>
</defs>
</svg>
