<svg width="400" height="300" viewBox="0 0 400 300" fill="none" xmlns="http://www.w3.org/2000/svg">
<mask id="mask0_502_392" style="mask-type:luminance" maskUnits="userSpaceOnUse" x="0" y="0" width="400" height="300">
<rect width="400" height="300" fill="white"/>
</mask>
<g mask="url(#mask0_502_392)">
<path d="M99.8022 187.394L70.9263 185.616C66.5058 185.344 63.6323 180.825 65.2461 176.683L68.8141 167.527C69.5063 165.738 70.9513 164.345 72.7644 163.718C74.5774 163.092 76.5743 163.296 78.2231 164.276L101.408 178.078L99.8022 187.394Z" fill="white"/>
<mask id="mask1_502_392" style="mask-type:luminance" maskUnits="userSpaceOnUse" x="64" y="163" width="38" height="25">
<path fill-rule="evenodd" clip-rule="evenodd" d="M99.8022 187.394L70.9263 185.616C66.5059 185.344 63.6323 180.825 65.2461 176.683L68.8141 167.527C69.5063 165.738 70.9514 164.345 72.7644 163.718C74.5774 163.092 76.5743 163.296 78.2231 164.276L101.408 178.078L99.8022 187.394Z" fill="white"/>
</mask>
<g mask="url(#mask1_502_392)">
<path d="M95.9046 170.623C95.191 177.969 92.1581 181.433 87.2222 178.267C82.2863 175.102 88.0528 181.433 92.8113 183.523C97.5698 185.613 69.322 187.394 68.8142 167.527C68.4773 154.35 64.0888 180.683 64.0888 180.683L64.792 191.346L69.7978 194.332L91.0877 197.915L100.722 188.479V175.938L95.9046 170.623Z" fill="white"/>
</g>
<path fill-rule="evenodd" clip-rule="evenodd" d="M99.8022 187.394L70.9263 185.616C66.5058 185.344 63.6323 180.825 65.2461 176.683L68.8141 167.527C69.5063 165.738 70.9513 164.345 72.7644 163.718C74.5774 163.092 76.5743 163.296 78.2231 164.276L101.408 178.078L99.8022 187.394Z" stroke="#1B1B1B" stroke-width="0.7" stroke-linecap="round" stroke-linejoin="round"/>
<path d="M103.014 187.394L131.889 185.616C136.31 185.344 139.183 180.825 137.57 176.683L134.002 167.527C133.309 165.738 131.864 164.345 130.051 163.718C128.238 163.092 126.241 163.296 124.593 164.276L101.408 178.078L103.014 187.394Z" fill="#1B1B1B" stroke="#1B1B1B" stroke-width="0.7" stroke-linecap="round" stroke-linejoin="round"/>
<path d="M103.014 187.394L131.889 185.616C136.31 185.344 139.183 180.825 137.57 176.683L134.002 167.527C133.309 165.738 131.864 164.345 130.051 163.718C128.238 163.092 126.241 163.296 124.593 164.276L101.408 178.078L103.014 187.394Z" fill="white"/>
<mask id="mask2_502_392" style="mask-type:luminance" maskUnits="userSpaceOnUse" x="101" y="163" width="38" height="25">
<path fill-rule="evenodd" clip-rule="evenodd" d="M103.014 187.394L131.889 185.616C136.31 185.344 139.183 180.825 137.57 176.683L134.002 167.527C133.309 165.738 131.864 164.345 130.051 163.718C128.238 163.092 126.241 163.296 124.593 164.276L101.408 178.078L103.014 187.394Z" fill="white"/>
</mask>
<g mask="url(#mask2_502_392)">
<path d="M106.911 170.623C107.625 177.969 115.707 188.046 120.642 184.881C125.578 181.716 115.292 191.308 110.534 193.398C105.775 195.488 133.494 187.394 134.002 167.527C134.338 154.35 138.727 180.683 138.727 180.683L138.024 191.346L133.018 194.332L111.728 197.915L102.094 188.479V175.938L106.911 170.623Z" fill="white"/>
</g>
<path fill-rule="evenodd" clip-rule="evenodd" d="M103.014 187.394L131.889 185.616C136.31 185.344 139.183 180.825 137.57 176.683L134.002 167.527C133.309 165.738 131.864 164.345 130.051 163.718C128.238 163.092 126.241 163.296 124.593 164.276L101.408 178.078L103.014 187.394Z" stroke="#1B1B1B" stroke-width="0.7" stroke-linecap="round" stroke-linejoin="round"/>
<rect x="94.6879" y="173.195" width="13.44" height="14.9759" rx="5.43127" fill="white" stroke="#1B1B1B" stroke-width="0.7" stroke-linecap="round" stroke-linejoin="round"/>
<path d="M102.151 265.694H56.7486C52.7589 265.685 49.5315 262.444 49.5398 258.455V196.659H102.151V265.694Z" fill="white"/>
<mask id="mask3_502_392" style="mask-type:luminance" maskUnits="userSpaceOnUse" x="49" y="196" width="54" height="70">
<path fill-rule="evenodd" clip-rule="evenodd" d="M102.151 265.694H56.7486C52.7589 265.685 49.5315 262.444 49.5398 258.455V196.659H102.151V265.694Z" fill="white"/>
</mask>
<g mask="url(#mask3_502_392)">
<g opacity="0.16">
<path d="M81.8724 297.374L77.2103 301.237L7.57983 216.553L12.2419 212.689L81.8724 297.374Z" fill="white" stroke="#1B1B1B" stroke-width="0.7" stroke-linecap="round" stroke-linejoin="round"/>
<path d="M90.7637 290.006L86.1016 293.869L16.4711 209.185L21.1332 205.322L90.7637 290.006Z" fill="white" stroke="#1B1B1B" stroke-width="0.7" stroke-linecap="round" stroke-linejoin="round"/>
<path d="M99.655 282.639L94.9929 286.502L25.3624 201.817L30.0245 197.954L99.655 282.639Z" fill="white" stroke="#1B1B1B" stroke-width="0.7" stroke-linecap="round" stroke-linejoin="round"/>
<path d="M108.546 275.271L103.884 279.134L34.2536 194.45L38.9158 190.586L108.546 275.271Z" fill="white" stroke="#1B1B1B" stroke-width="0.7" stroke-linecap="round" stroke-linejoin="round"/>
<path d="M117.438 267.903L112.775 271.766L43.1449 187.082L47.807 183.219L117.438 267.903Z" fill="white" stroke="#1B1B1B" stroke-width="0.7" stroke-linecap="round" stroke-linejoin="round"/>
<path d="M126.329 260.536L121.667 264.399L52.0362 179.714L56.6983 175.851L126.329 260.536Z" fill="white" stroke="#1B1B1B" stroke-width="0.7" stroke-linecap="round" stroke-linejoin="round"/>
<path d="M135.22 253.168L130.558 257.031L60.9276 172.347L65.5897 168.483L135.22 253.168Z" fill="white" stroke="#1B1B1B" stroke-width="0.7" stroke-linecap="round" stroke-linejoin="round"/>
<path d="M144.111 245.8L139.449 249.663L69.8188 164.979L74.4809 161.116L144.111 245.8Z" fill="white" stroke="#1B1B1B" stroke-width="0.7" stroke-linecap="round" stroke-linejoin="round"/>
</g>
<g opacity="0.46">
<path d="M2.92532 231.748L-1.81488 225.983L85.4847 153.643L90.2248 159.408L2.92532 231.748Z" fill="white" stroke="#1B1B1B" stroke-width="0.7" stroke-linecap="round" stroke-linejoin="round"/>
<path d="M11.9654 242.742L7.22531 236.977L94.5248 164.637L99.265 170.402L11.9654 242.742Z" fill="white" stroke="#1B1B1B" stroke-width="0.7" stroke-linecap="round" stroke-linejoin="round"/>
<path d="M21.0056 253.737L16.2654 247.972L103.565 175.632L108.305 181.397L21.0056 253.737Z" fill="white" stroke="#1B1B1B" stroke-width="0.7" stroke-linecap="round" stroke-linejoin="round"/>
<path d="M30.0457 264.731L25.3056 258.966L112.605 186.627L117.345 192.391L30.0457 264.731Z" fill="white" stroke="#1B1B1B" stroke-width="0.7" stroke-linecap="round" stroke-linejoin="round"/>
<path d="M39.0859 275.726L34.3457 269.961L121.645 197.621L126.385 203.386L39.0859 275.726Z" fill="white" stroke="#1B1B1B" stroke-width="0.7" stroke-linecap="round" stroke-linejoin="round"/>
<path d="M48.126 286.721L43.3859 280.956L130.685 208.616L135.426 214.381L48.126 286.721Z" fill="white" stroke="#1B1B1B" stroke-width="0.7" stroke-linecap="round" stroke-linejoin="round"/>
<path d="M57.1662 297.715L52.426 291.95L139.726 219.61L144.466 225.375L57.1662 297.715Z" fill="white" stroke="#1B1B1B" stroke-width="0.7" stroke-linecap="round" stroke-linejoin="round"/>
<path d="M66.2063 308.71L61.4661 302.945L148.766 230.605L153.506 236.37L66.2063 308.71Z" fill="white" stroke="#1B1B1B" stroke-width="0.7" stroke-linecap="round" stroke-linejoin="round"/>
</g>
</g>
<path fill-rule="evenodd" clip-rule="evenodd" d="M102.151 265.694H56.7486C52.7589 265.685 49.5315 262.444 49.5398 258.455V196.659H102.151V265.694Z" stroke="#1B1B1B" stroke-width="0.7" stroke-linecap="round" stroke-linejoin="round"/>
<path d="M99.7316 265.694H145.134C149.124 265.685 152.351 262.444 152.343 258.455V196.659H99.7316V265.694Z" fill="white"/>
<mask id="mask4_502_392" style="mask-type:luminance" maskUnits="userSpaceOnUse" x="99" y="196" width="54" height="70">
<path fill-rule="evenodd" clip-rule="evenodd" d="M99.7316 265.694H145.134C149.124 265.685 152.351 262.444 152.343 258.455V196.659H99.7316V265.694Z" fill="white"/>
</mask>
<g mask="url(#mask4_502_392)">
<g opacity="0.16">
<path d="M131.257 288.505L127.219 291.851L66.9175 218.512L70.955 215.166L131.257 288.505Z" fill="white" stroke="#1B1B1B" stroke-width="0.7" stroke-linecap="round" stroke-linejoin="round"/>
<path d="M138.957 282.124L134.919 285.47L74.6176 212.131L78.6551 208.786L138.957 282.124Z" fill="white" stroke="#1B1B1B" stroke-width="0.7" stroke-linecap="round" stroke-linejoin="round"/>
<path d="M146.657 275.744L142.619 279.089L82.3177 205.751L86.3552 202.405L146.657 275.744Z" fill="white" stroke="#1B1B1B" stroke-width="0.7" stroke-linecap="round" stroke-linejoin="round"/>
<path d="M154.357 269.363L150.319 272.709L90.0177 199.37L94.0552 196.024L154.357 269.363Z" fill="white" stroke="#1B1B1B" stroke-width="0.7" stroke-linecap="round" stroke-linejoin="round"/>
<path d="M162.057 262.983L158.02 266.328L97.7178 192.99L101.755 189.644L162.057 262.983Z" fill="white" stroke="#1B1B1B" stroke-width="0.7" stroke-linecap="round" stroke-linejoin="round"/>
<path d="M169.757 256.602L165.719 259.948L105.418 186.609L109.455 183.263L169.757 256.602Z" fill="white" stroke="#1B1B1B" stroke-width="0.7" stroke-linecap="round" stroke-linejoin="round"/>
<path d="M177.457 250.222L173.42 253.567L113.118 180.228L117.155 176.883L177.457 250.222Z" fill="white" stroke="#1B1B1B" stroke-width="0.7" stroke-linecap="round" stroke-linejoin="round"/>
<path d="M185.157 243.841L181.12 247.187L120.818 173.848L124.855 170.502L185.157 243.841Z" fill="white" stroke="#1B1B1B" stroke-width="0.7" stroke-linecap="round" stroke-linejoin="round"/>
</g>
<g opacity="0.46">
<path d="M62.8866 231.671L58.7815 226.678L134.385 164.03L138.49 169.023L62.8866 231.671Z" fill="white" stroke="#1B1B1B" stroke-width="0.7" stroke-linecap="round" stroke-linejoin="round"/>
<path d="M70.7156 241.193L66.6105 236.2L142.214 173.552L146.319 178.545L70.7156 241.193Z" fill="white" stroke="#1B1B1B" stroke-width="0.7" stroke-linecap="round" stroke-linejoin="round"/>
<path d="M78.5446 250.714L74.4395 245.722L150.043 183.073L154.148 188.066L78.5446 250.714Z" fill="white" stroke="#1B1B1B" stroke-width="0.7" stroke-linecap="round" stroke-linejoin="round"/>
<path d="M86.3737 260.236L82.2686 255.243L157.872 192.595L161.977 197.588L86.3737 260.236Z" fill="white" stroke="#1B1B1B" stroke-width="0.7" stroke-linecap="round" stroke-linejoin="round"/>
<path d="M94.2026 269.757L90.0974 264.765L165.701 202.117L169.806 207.109L94.2026 269.757Z" fill="white" stroke="#1B1B1B" stroke-width="0.7" stroke-linecap="round" stroke-linejoin="round"/>
<path d="M102.031 279.279L97.9264 274.286L173.53 211.638L177.635 216.631L102.031 279.279Z" fill="white" stroke="#1B1B1B" stroke-width="0.7" stroke-linecap="round" stroke-linejoin="round"/>
<path d="M109.861 288.8L105.755 283.808L181.359 221.16L185.464 226.152L109.861 288.8Z" fill="white" stroke="#1B1B1B" stroke-width="0.7" stroke-linecap="round" stroke-linejoin="round"/>
<path d="M117.69 298.322L113.584 293.329L189.188 230.681L193.293 235.674L117.69 298.322Z" fill="white" stroke="#1B1B1B" stroke-width="0.7" stroke-linecap="round" stroke-linejoin="round"/>
</g>
</g>
<path fill-rule="evenodd" clip-rule="evenodd" d="M99.7316 265.694H145.134C149.124 265.685 152.351 262.444 152.343 258.455V196.659H99.7316V265.694Z" stroke="#1B1B1B" stroke-width="0.7" stroke-linecap="round" stroke-linejoin="round"/>
<path d="M80.5826 258.455V196.659H70.4134V258.455C70.4051 262.444 73.6325 265.685 77.6221 265.694H87.7913C83.8017 265.685 80.5742 262.444 80.5826 258.455Z" fill="white" stroke="#1B1B1B" stroke-width="0.7" stroke-linecap="round" stroke-linejoin="round"/>
<path d="M120.642 196.659V258.455C120.647 260.37 119.889 262.209 118.537 263.567C117.185 264.925 115.35 265.69 113.434 265.694H124.505C128.495 265.685 131.722 262.444 131.714 258.455V196.659H120.642Z" fill="white" stroke="#1B1B1B" stroke-width="0.7" stroke-linecap="round" stroke-linejoin="round"/>
<rect opacity="0.09" x="49.5399" y="193.56" width="50.1918" height="15.3433" fill="black"/>
<rect opacity="0.09" x="99.7316" y="193.56" width="52.6113" height="15.3433" fill="black"/>
<path d="M103.322 184.954H48.6105C46.6235 184.958 45.0161 186.572 45.0202 188.559V199.621C45.0176 200.885 46.0398 201.911 47.3035 201.914H99.7316V188.559C99.7275 186.572 101.335 184.958 103.322 184.954V184.954Z" fill="white" stroke="#1B1B1B" stroke-width="0.7" stroke-linecap="round" stroke-linejoin="round"/>
<path d="M154.183 184.954H103.322C101.335 184.958 99.7275 186.572 99.7316 188.559V201.914H155.49C156.754 201.911 157.776 200.885 157.773 199.621V188.559C157.775 187.605 157.398 186.689 156.725 186.013C156.052 185.337 155.137 184.956 154.183 184.954V184.954Z" fill="white" stroke="#1B1B1B" stroke-width="0.7" stroke-linecap="round" stroke-linejoin="round"/>
<path d="M131.889 184.881H120.642C122.634 184.89 124.241 186.511 124.233 188.502V201.914H135.479V188.502C135.487 186.511 133.88 184.89 131.889 184.881Z" fill="white" stroke="#1B1B1B" stroke-width="0.7" stroke-linecap="round" stroke-linejoin="round"/>
<path d="M80.7225 184.954H69.4764C67.4935 184.954 65.8861 186.592 65.8861 188.613V202.166H77.1322V188.613C77.1322 186.592 78.7396 184.954 80.7225 184.954Z" fill="white" stroke="#1B1B1B" stroke-width="0.7" stroke-linecap="round" stroke-linejoin="round"/>
<path d="M99.7316 184.954H110.978C112.965 184.958 114.572 186.572 114.568 188.559V223.89L109.388 218.038L103.322 223.89V188.559C103.326 186.572 101.719 184.958 99.7316 184.954V184.954Z" fill="white" stroke="#1B1B1B" stroke-width="0.7" stroke-linecap="round" stroke-linejoin="round"/>
<path d="M91.3753 191.383C89.35 192.516 87.4937 193.928 85.8605 195.577" stroke="#1B1B1B" stroke-width="0.7" stroke-linecap="round" stroke-linejoin="round"/>
<path d="M113.52 252.044C110.736 253.702 107.803 255.097 104.759 256.21" stroke="#1B1B1B" stroke-width="0.7" stroke-linecap="round" stroke-linejoin="round"/>
<rect x="102.96" y="52.2499" width="152.99" height="213.195" rx="9.85428" fill="white"/>
<rect x="102.96" y="52.2499" width="152.99" height="213.195" rx="9.85428" stroke="#1B1B1B" stroke-width="0.7" stroke-linecap="round" stroke-linejoin="round"/>
<rect x="115.492" y="62.9584" width="127.926" height="191.778" rx="1.79569" fill="white" stroke="#1B1B1B" stroke-width="0.7" stroke-linecap="round" stroke-linejoin="round"/>
<rect x="129.053" y="94.4849" width="16.9988" height="17.0649" rx="7.27746" fill="white" stroke="#1B1B1B" stroke-width="0.7" stroke-linecap="round" stroke-linejoin="round"/>
<rect x="151.996" y="96.7459" width="76.1054" height="12.543" rx="5.08067" fill="white" stroke="#1B1B1B" stroke-width="0.7" stroke-linecap="round" stroke-linejoin="round"/>
<rect x="129.053" y="198.978" width="16.9988" height="17.0649" rx="7.27746" fill="white" stroke="#1B1B1B" stroke-width="0.7" stroke-linecap="round" stroke-linejoin="round"/>
<rect x="151.996" y="201.239" width="76.1054" height="12.543" rx="5.08067" fill="white" stroke="#1B1B1B" stroke-width="0.7" stroke-linecap="round" stroke-linejoin="round"/>
<rect x="129.053" y="129.316" width="16.9988" height="17.0649" rx="7.27746" fill="white" stroke="#1B1B1B" stroke-width="0.7" stroke-linecap="round" stroke-linejoin="round"/>
<rect x="151.996" y="131.577" width="76.1054" height="12.543" rx="5.08067" fill="white" stroke="#1B1B1B" stroke-width="0.7" stroke-linecap="round" stroke-linejoin="round"/>
<rect x="129.053" y="164.147" width="16.9988" height="17.0649" rx="7.27746" fill="white" stroke="#1B1B1B" stroke-width="0.7" stroke-linecap="round" stroke-linejoin="round"/>
<rect x="151.996" y="166.408" width="76.1054" height="12.543" rx="5.08067" fill="white" stroke="#1B1B1B" stroke-width="0.7" stroke-linecap="round" stroke-linejoin="round"/>
<path fill-rule="evenodd" clip-rule="evenodd" d="M192.218 45.1983H199.216C208.236 45.1983 215.548 52.5388 215.548 61.5938V63.4439C215.55 64.1833 215.257 64.893 214.736 65.4169C214.214 65.9407 213.505 66.2359 212.766 66.2373H146.144C145.405 66.2359 144.696 65.9408 144.174 65.417C143.652 64.8931 143.36 64.1833 143.361 63.4439V61.5938C143.361 52.5388 150.674 45.1983 159.693 45.1983H166.692C166.692 38.1224 172.406 32.3861 179.455 32.3861C186.503 32.3861 192.218 38.1224 192.218 45.1983ZM174.581 47.2253C175.401 49.19 177.326 50.4663 179.455 50.4581C180.847 50.4554 182.181 49.8998 183.164 48.9133C184.147 47.9269 184.697 46.5906 184.694 45.1983C184.694 43.0691 183.41 41.1499 181.443 40.337C179.475 39.5241 177.211 39.9779 175.708 41.4864C174.205 42.9949 173.76 45.2605 174.581 47.2253Z" fill="#1B1B1B"/>
<mask id="mask5_502_392" style="mask-type:luminance" maskUnits="userSpaceOnUse" x="143" y="32" width="73" height="35">
<path fill-rule="evenodd" clip-rule="evenodd" d="M199.216 45.1983H192.218C192.218 38.1224 186.503 32.3861 179.455 32.3861C172.406 32.3861 166.692 38.1224 166.692 45.1983H159.693C150.674 45.1983 143.361 52.5388 143.361 61.5938V63.4439C143.36 64.1833 143.652 64.8931 144.174 65.417C144.696 65.9408 145.405 66.2359 146.144 66.2373H212.766C213.505 66.2359 214.214 65.9407 214.736 65.4169C215.257 64.893 215.55 64.1833 215.548 63.4439V61.5938C215.548 52.5388 208.236 45.1983 199.216 45.1983ZM179.455 50.4581C177.326 50.4663 175.401 49.19 174.581 47.2253C173.76 45.2605 174.205 42.9949 175.708 41.4864C177.211 39.9779 179.475 39.5241 181.443 40.337C183.41 41.1499 184.694 43.0691 184.694 45.1983C184.697 46.5906 184.147 47.9269 183.164 48.9133C182.181 49.8998 180.847 50.4554 179.455 50.4581Z" fill="white"/>
</mask>
<g mask="url(#mask5_502_392)">
<path d="M207.194 38.9498C222.492 62.2337 189.916 67.4924 147.85 60.4044C105.783 53.3164 152.171 71.6464 152.171 71.6464L234.829 74.3711L227.427 38.7021L204.48 36.8991" fill="white"/>
</g>
<path d="M192.218 45.1983H191.868C191.868 45.3916 192.024 45.5483 192.218 45.5483V45.1983ZM166.692 45.1983V45.5483C166.886 45.5483 167.042 45.3916 167.042 45.1983H166.692ZM143.361 63.4439L143.711 63.4446V63.4439H143.361ZM146.144 66.2373L146.143 66.5873H146.144V66.2373ZM212.766 66.2373V66.5873L212.767 66.5873L212.766 66.2373ZM215.548 63.4439H215.198V63.4446L215.548 63.4439ZM184.694 45.1983L184.344 45.1983V45.199L184.694 45.1983ZM179.455 50.4581L179.454 50.1081L179.453 50.1081L179.455 50.4581ZM199.216 44.8483H192.218V45.5483H199.216V44.8483ZM192.568 45.1983C192.568 37.9303 186.698 32.0361 179.455 32.0361V32.7361C186.309 32.7361 191.868 38.3144 191.868 45.1983H192.568ZM179.455 32.0361C172.212 32.0361 166.342 37.9304 166.342 45.1983H167.042C167.042 38.3144 172.601 32.7361 179.455 32.7361V32.0361ZM166.692 44.8483H159.693V45.5483H166.692V44.8483ZM159.693 44.8483C150.479 44.8483 143.011 52.3468 143.011 61.5938H143.711C143.711 52.7308 150.868 45.5483 159.693 45.5483V44.8483ZM143.011 61.5938V63.4439H143.711V61.5938H143.011ZM143.011 63.4432C143.01 64.2755 143.339 65.0743 143.926 65.664L144.422 65.1699C143.966 64.7118 143.71 64.0912 143.711 63.4446L143.011 63.4432ZM143.926 65.664C144.514 66.2536 145.311 66.5857 146.143 66.5873L146.145 65.8873C145.498 65.8861 144.878 65.628 144.422 65.1699L143.926 65.664ZM146.144 66.5873H212.766V65.8873H146.144V66.5873ZM212.767 66.5873C213.599 66.5857 214.396 66.2535 214.984 65.6639L214.488 65.1699C214.031 65.628 213.412 65.886 212.765 65.8873L212.767 66.5873ZM214.984 65.6639C215.571 65.0742 215.9 64.2754 215.898 63.4432L215.198 63.4446C215.2 64.0912 214.944 64.7118 214.488 65.1699L214.984 65.6639ZM215.898 63.4439V61.5938H215.198V63.4439H215.898ZM215.898 61.5938C215.898 52.3468 208.431 44.8483 199.216 44.8483V45.5483C208.042 45.5483 215.198 52.7308 215.198 61.5938H215.898ZM179.453 50.1081C177.466 50.1158 175.67 48.9244 174.904 47.0904L174.258 47.3601C175.133 49.4557 177.185 50.8168 179.456 50.8081L179.453 50.1081ZM174.904 47.0904C174.138 45.2564 174.553 43.1415 175.956 41.7334L175.46 41.2394C173.857 42.8482 173.383 45.2646 174.258 47.3601L174.904 47.0904ZM175.956 41.7334C177.359 40.3252 179.472 39.9017 181.309 40.6605L181.576 40.0135C179.477 39.1465 177.063 39.6305 175.46 41.2394L175.956 41.7334ZM181.309 40.6605C183.146 41.4193 184.344 43.2107 184.344 45.1983L185.044 45.1983C185.044 42.9274 183.675 40.8805 181.576 40.0135L181.309 40.6605ZM184.344 45.199C184.347 46.4984 183.833 47.7457 182.916 48.6663L183.412 49.1604C184.46 48.1082 185.047 46.6827 185.044 45.1976L184.344 45.199ZM182.916 48.6663C181.999 49.587 180.754 50.1056 179.454 50.1081L179.455 50.8081C180.941 50.8052 182.364 50.2125 183.412 49.1604L182.916 48.6663Z" fill="#1B1B1B"/>
<path d="M143.808 73.9026C143.669 74.8969 143.123 75.7891 142.302 76.3664" stroke="#1B1B1B" stroke-width="0.7" stroke-linecap="round" stroke-linejoin="round"/>
<path d="M228.182 234.912C226.862 236.364 225.142 237.394 223.239 237.873" stroke="#1B1B1B" stroke-width="0.7" stroke-linecap="round" stroke-linejoin="round"/>
<path d="M142.163 101.173H57.8427C55.4612 101.178 53.5345 103.112 53.5391 105.494V144.238C53.5345 146.619 55.4612 148.553 57.8427 148.558H112.963C115.185 151.374 117.719 154.581 119.562 156.911C120.413 157.988 122.129 157.37 122.129 155.995V148.558H142.163C144.544 148.553 146.471 146.619 146.467 144.238V105.494C146.471 103.112 144.544 101.178 142.163 101.173Z" fill="white"/>
<path fill-rule="evenodd" clip-rule="evenodd" d="M142.163 101.173H57.8427C55.4612 101.178 53.5345 103.112 53.5391 105.494V144.238C53.5345 146.619 55.4612 148.553 57.8427 148.558H112.963C115.185 151.374 117.719 154.581 119.562 156.911C120.413 157.988 122.129 157.37 122.129 155.995V148.558H142.163C144.544 148.553 146.471 146.619 146.467 144.238V105.494C146.471 103.112 144.544 101.178 142.163 101.173Z" stroke="#1B1B1B" stroke-width="0.7" stroke-linecap="round" stroke-linejoin="round"/>
<ellipse cx="72.3018" cy="123.57" rx="4.29862" ry="4.31534" fill="white" stroke="#1B1B1B" stroke-width="0.7" stroke-linecap="round" stroke-linejoin="round"/>
<ellipse cx="90.2716" cy="123.57" rx="4.29862" ry="4.31534" fill="white" stroke="#1B1B1B" stroke-width="0.7" stroke-linecap="round" stroke-linejoin="round"/>
<ellipse cx="108.241" cy="123.57" rx="4.29862" ry="4.31534" fill="white" stroke="#1B1B1B" stroke-width="0.7" stroke-linecap="round" stroke-linejoin="round"/>
<ellipse cx="126.211" cy="123.57" rx="4.29862" ry="4.31534" fill="white" stroke="#1B1B1B" stroke-width="0.7" stroke-linecap="round" stroke-linejoin="round"/>
<path d="M75.4805 106.758L71.7215 109.587" stroke="#1B1B1B" stroke-width="0.7" stroke-linecap="round" stroke-linejoin="round"/>
<path d="M133.455 134.133C132.776 135.479 131.799 136.652 130.599 137.563" stroke="#1B1B1B" stroke-width="0.7" stroke-linecap="round" stroke-linejoin="round"/>
<path fill-rule="evenodd" clip-rule="evenodd" d="M303.332 65.1294C307.748 61.3457 315.048 62.628 319.604 67.9878C323.775 72.8934 324.211 79.5322 320.87 83.5244L334.14 99.1346L331.94 101.019L318.67 85.4093C314.218 88.0937 307.756 86.6173 303.585 81.7114C299.029 76.3516 298.915 68.913 303.332 65.1294ZM305.389 80.1666C309.043 84.4652 314.8 85.5773 318.222 82.6457C321.644 79.7136 321.455 73.8312 317.801 69.5326C314.147 65.2335 308.39 64.1214 304.967 67.0534C301.545 69.9851 301.734 75.8675 305.389 80.1666Z" fill="#1B1B1B"/>
<path d="M319.604 67.9878L319.871 67.7611L319.604 67.9878ZM303.332 65.1294L303.104 64.8636L303.332 65.1294ZM320.87 83.5244L320.602 83.2998C320.492 83.4306 320.493 83.6212 320.604 83.7511L320.87 83.5244ZM334.14 99.1346L334.368 99.4004C334.514 99.2749 334.532 99.0548 334.407 98.9079L334.14 99.1346ZM331.94 101.019L331.673 101.246C331.734 101.317 331.82 101.361 331.913 101.368C332.005 101.376 332.097 101.346 332.168 101.285L331.94 101.019ZM318.67 85.4093L318.937 85.1826C318.826 85.052 318.636 85.021 318.49 85.1096L318.67 85.4093ZM303.585 81.7114L303.852 81.4847L303.585 81.7114ZM318.222 82.6457L318.45 82.9115H318.45L318.222 82.6457ZM305.389 80.1666L305.122 80.3933L305.122 80.3933L305.389 80.1666ZM317.801 69.5326L317.535 69.7593V69.7593L317.801 69.5326ZM304.967 67.0534L304.739 66.7876L304.739 66.7876L304.967 67.0534ZM319.871 67.7611C315.232 62.3036 307.713 60.915 303.104 64.8636L303.559 65.3951C307.783 61.7765 314.865 62.9523 319.338 68.2145L319.871 67.7611ZM321.139 83.749C324.616 79.5935 324.122 72.7614 319.871 67.7611L319.338 68.2145C323.428 73.0254 323.806 79.4709 320.602 83.2998L321.139 83.749ZM334.407 98.9079L321.137 83.2977L320.604 83.7511L333.874 99.3613L334.407 98.9079ZM332.168 101.285L334.368 99.4004L333.913 98.8688L331.712 100.754L332.168 101.285ZM318.404 85.636L331.673 101.246L332.207 100.793L318.937 85.1826L318.404 85.636ZM303.319 81.9381C307.57 86.9387 314.215 88.5043 318.851 85.7091L318.49 85.1096C314.221 87.6831 307.942 86.2958 303.852 81.4847L303.319 81.9381ZM303.104 64.8636C298.496 68.811 298.68 76.4809 303.319 81.9381L303.852 81.4847C299.379 76.2223 299.334 69.015 303.559 65.3951L303.104 64.8636ZM317.994 82.3799C314.772 85.1401 309.234 84.1502 305.655 79.9399L305.122 80.3933C308.851 84.7802 314.827 86.0146 318.45 82.9115L317.994 82.3799ZM317.535 69.7593C321.114 73.9698 321.218 79.6181 317.994 82.3799L318.45 82.9115C322.071 79.8092 321.797 73.6927 318.068 69.3059L317.535 69.7593ZM305.195 67.3192C308.417 64.5587 313.955 65.5485 317.535 69.7593L318.068 69.3059C314.338 64.9185 308.362 63.6842 304.739 66.7876L305.195 67.3192ZM305.655 79.9399C302.076 75.7289 301.972 70.0806 305.195 67.3192L304.739 66.7876C301.119 69.8895 301.392 76.006 305.122 80.3933L305.655 79.9399Z" fill="#1B1B1B"/>
<path d="M289.05 146.437C283.915 151.948 285.001 183.241 284.941 188.218C284.88 193.196 262.351 176.291 262.351 176.291L260.762 149.349L289.05 146.437Z" fill="white"/>
<mask id="mask6_502_392" style="mask-type:luminance" maskUnits="userSpaceOnUse" x="260" y="146" width="30" height="44">
<path fill-rule="evenodd" clip-rule="evenodd" d="M289.05 146.437C283.915 151.948 285.001 183.241 284.941 188.218C284.88 193.196 262.351 176.291 262.351 176.291L260.762 149.349L289.05 146.437Z" fill="white"/>
</mask>
<g mask="url(#mask6_502_392)">
<path d="M295.028 167.786C293.681 166.663 274.24 161.112 275.451 155.207C276.662 149.302 292.196 145.253 292.196 145.253L295.028 167.786Z" fill="white"/>
</g>
<path fill-rule="evenodd" clip-rule="evenodd" d="M289.05 146.437C283.915 151.948 285.001 183.241 284.941 188.218C284.88 193.196 262.351 176.291 262.351 176.291L260.762 149.349L289.05 146.437Z" stroke="#1B1B1B" stroke-width="0.7" stroke-linecap="round" stroke-linejoin="round"/>
<path d="M311.341 177.681C311.341 177.681 333.014 160.264 335.935 151.287C339.944 138.97 342.295 116.617 333.462 111.551C324.63 106.484 319.332 92.6034 322.066 90.07C324.8 87.5366 328.585 101.048 330.898 99.57C333.212 98.0923 325.063 86.7978 321.698 85.1089C318.333 83.42 338.311 78.2466 343.358 94.3978C347.863 108.814 346.46 109.703 347.932 113.926C349.404 118.148 361.235 157.813 350.561 178.209C340.782 196.892 313.961 218.271 313.961 218.271L311.341 177.681Z" fill="white"/>
<mask id="mask7_502_392" style="mask-type:luminance" maskUnits="userSpaceOnUse" x="311" y="82" width="44" height="137">
<path fill-rule="evenodd" clip-rule="evenodd" d="M311.341 177.681C311.341 177.681 333.014 160.264 335.935 151.287C339.944 138.97 342.295 116.617 333.462 111.551C324.63 106.484 319.332 92.6034 322.066 90.07C324.8 87.5366 328.585 101.048 330.898 99.57C333.212 98.0923 325.063 86.7978 321.698 85.1089C318.333 83.42 338.311 78.2466 343.358 94.3978C347.863 108.814 346.46 109.703 347.932 113.926C349.404 118.148 361.235 157.813 350.561 178.209C340.782 196.892 313.961 218.271 313.961 218.271L311.341 177.681Z" fill="white"/>
</mask>
<g mask="url(#mask7_502_392)">
<path d="M356.982 192.899C336.106 183.901 321.831 172.061 321.831 172.061L328.025 199.445L356.982 192.899Z" fill="white"/>
</g>
<path fill-rule="evenodd" clip-rule="evenodd" d="M311.341 177.681C311.341 177.681 333.014 160.264 335.935 151.287C339.944 138.97 342.295 116.617 333.462 111.551C324.63 106.484 319.332 92.6034 322.066 90.07C324.8 87.5366 328.585 101.048 330.898 99.57C333.212 98.0923 325.063 86.7978 321.698 85.1089C318.333 83.42 338.311 78.2466 343.358 94.3978C347.863 108.814 346.46 109.703 347.932 113.926C349.404 118.148 361.235 157.813 350.561 178.209C340.782 196.892 313.961 218.271 313.961 218.271L311.341 177.681Z" stroke="#1B1B1B" stroke-width="0.7" stroke-linecap="round" stroke-linejoin="round"/>
<path d="M321.015 166.07L340.04 198.61C340.04 198.61 319.858 227.714 288.63 234.364C257.401 241.014 245.414 186.548 282.005 181.798C318.596 177.048 321.015 166.07 321.015 166.07Z" fill="white"/>
<mask id="mask8_502_392" style="mask-type:luminance" maskUnits="userSpaceOnUse" x="259" y="166" width="82" height="69">
<path fill-rule="evenodd" clip-rule="evenodd" d="M321.015 166.07L340.04 198.61C340.04 198.61 319.858 227.714 288.63 234.364C257.401 241.014 245.414 186.548 282.005 181.798C318.596 177.048 321.015 166.07 321.015 166.07Z" fill="white"/>
</mask>
<g mask="url(#mask8_502_392)">
<path d="M305.85 165.521C323.667 180.176 333.161 214.234 333.161 214.234L354.98 193.351L323.001 160.264" fill="white"/>
<path d="M305.85 165.521C323.667 180.176 333.161 214.234 333.161 214.234L354.98 193.351L323.001 160.264" stroke="#1B1B1B" stroke-width="0.7" stroke-linecap="round" stroke-linejoin="round"/>
</g>
<path fill-rule="evenodd" clip-rule="evenodd" d="M321.015 166.07L340.04 198.61C340.04 198.61 319.858 227.714 288.63 234.364C257.401 241.014 245.414 186.548 282.005 181.798C318.596 177.048 321.015 166.07 321.015 166.07Z" stroke="#1B1B1B" stroke-width="0.7" stroke-linecap="round" stroke-linejoin="round"/>
<path d="M291.407 181.481C289.493 177.94 289.576 172.614 289.576 172.614L259.415 160.264C259.415 160.264 262.086 173.357 255.824 181.481C235.32 208.081 225.542 267.614 225.542 267.614H333.161C331.061 243.371 315.642 218.38 303.746 200.498" fill="white"/>
<mask id="mask9_502_392" style="mask-type:luminance" maskUnits="userSpaceOnUse" x="225" y="160" width="109" height="108">
<path fill-rule="evenodd" clip-rule="evenodd" d="M291.407 181.481C289.493 177.94 289.576 172.614 289.576 172.614L259.415 160.264C259.415 160.264 262.086 173.357 255.824 181.481C235.32 208.081 225.542 267.614 225.542 267.614H333.161C331.061 243.371 315.642 218.38 303.746 200.498" fill="white"/>
</mask>
<g mask="url(#mask9_502_392)">
<path d="M248.529 170.689L291.407 181.481L293.551 168.413L241.114 153.245" fill="white"/>
<path d="M248.529 170.689L291.407 181.481L293.551 168.413L241.114 153.245" stroke="#1B1B1B" stroke-width="0.7" stroke-linecap="round" stroke-linejoin="round"/>
<path d="M225.099 292.114L223.764 284.697C269.782 291.732 316.83 283.202 357.45 260.461L358.784 267.878C318.165 290.62 271.116 299.149 225.099 292.114Z" fill="white"/>
</g>
<path d="M291.407 181.481C289.493 177.94 289.576 172.614 289.576 172.614L259.415 160.264C259.415 160.264 262.086 173.357 255.824 181.481C235.32 208.081 225.542 267.614 225.542 267.614H333.161C331.061 243.371 315.642 218.38 303.746 200.498" stroke="#1B1B1B" stroke-width="0.7" stroke-linecap="round" stroke-linejoin="round"/>
<path d="M274.584 157.406C284.961 156.715 293.606 146.897 293.551 140.629C293.455 129.758 265.384 118.586 265.101 118.586L250.225 132.987C250.225 132.987 249.542 145.52 263.887 154.587" fill="white"/>
<path d="M274.584 157.406C284.961 156.715 293.606 146.897 293.551 140.629C293.455 129.758 265.384 118.586 265.101 118.586L250.225 132.987C250.225 132.987 249.542 145.52 263.887 154.587" stroke="#1B1B1B" stroke-width="0.7" stroke-linecap="round" stroke-linejoin="round"/>
<path d="M271.676 116.594C270.802 113.297 267.451 111.34 264.192 112.224C262.722 112.625 261.455 113.562 260.643 114.851C259.375 111.975 256.53 109.968 253.217 109.968C248.726 109.968 245.085 113.651 245.085 118.195C245.087 118.902 245.18 119.607 245.361 120.29C245.07 120.323 244.782 120.377 244.499 120.451C242.054 121.126 240.272 123.231 240.011 125.754C239.14 125.6 238.245 125.639 237.391 125.87C234.131 126.754 232.197 130.144 233.071 133.442C233.154 133.748 233.261 134.048 233.39 134.338C230.313 135.87 228.509 139.151 228.864 142.57C229.218 145.989 231.656 148.83 234.982 149.699C234.633 151.799 235.385 153.931 236.974 155.347C237.195 159.565 240.548 162.933 244.728 163.117C245.897 166.211 248.85 168.413 252.32 168.413C254.756 168.412 257.062 167.312 258.596 165.418C258.949 165.468 259.305 165.494 259.662 165.497C264.153 165.497 267.794 161.814 267.794 157.27C267.794 152.726 264.153 149.042 259.662 149.042C259.47 149.042 259.282 149.058 259.093 149.072C260.614 146.752 260.876 143.826 259.791 141.273C260.721 139.088 260.668 136.608 259.643 134.465C260.204 134.587 260.776 134.649 261.349 134.65C265.841 134.65 269.482 130.966 269.482 126.422C269.48 125.417 269.296 124.42 268.937 123.48C271.269 122.04 272.382 119.243 271.676 116.594Z" fill="#1B1B1B" stroke="#1B1B1B" stroke-width="0.7" stroke-linecap="round" stroke-linejoin="round"/>
<path d="M267.941 152.422C266.535 153.748 264.458 154.587 262.142 154.587C257.908 154.587 254.475 151.784 254.475 148.327C254.475 144.87 257.908 142.067 262.142 142.067C262.879 142.066 263.614 142.153 264.33 142.326" fill="white"/>
<path d="M267.941 152.422C266.535 153.748 264.458 154.587 262.142 154.587C257.908 154.587 254.475 151.784 254.475 148.327C254.475 144.87 257.908 142.067 262.142 142.067C262.879 142.066 263.614 142.153 264.33 142.326" stroke="#1B1B1B" stroke-width="0.7" stroke-linecap="round" stroke-linejoin="round"/>
<path d="M223.151 229.192L221.048 233.87C221.048 233.87 210.575 253.886 207.37 267.614H236.916L250.27 236.849L223.151 229.192Z" fill="white"/>
<mask id="mask10_502_392" style="mask-type:luminance" maskUnits="userSpaceOnUse" x="207" y="229" width="44" height="39">
<path fill-rule="evenodd" clip-rule="evenodd" d="M223.151 229.192L221.048 233.87C221.048 233.87 210.575 253.886 207.37 267.614H236.916L250.27 236.849L223.151 229.192Z" fill="white"/>
</mask>
<g mask="url(#mask10_502_392)">
<path d="M207.257 249.477C214.049 248.685 218.639 243.273 229.476 248.403C240.313 253.533 244.353 246.688 244.353 246.688L228.82 229.192L219.605 231.224L207.257 249.477Z" fill="white"/>
</g>
<path fill-rule="evenodd" clip-rule="evenodd" d="M223.151 229.192L221.048 233.87C221.048 233.87 210.575 253.886 207.37 267.614H236.916L250.27 236.849L223.151 229.192Z" stroke="#1B1B1B" stroke-width="0.7" stroke-linecap="round" stroke-linejoin="round"/>
<path d="M255.824 181.481C250.146 181.481 218.602 225.181 216.709 233.203C214.817 241.225 249.452 255.743 249.452 255.743C249.452 255.743 263.491 227.771 265.194 211.44C265.592 207.646 265.692 203.828 265.491 200.019" fill="white"/>
<mask id="mask11_502_392" style="mask-type:luminance" maskUnits="userSpaceOnUse" x="216" y="181" width="50" height="75">
<path fill-rule="evenodd" clip-rule="evenodd" d="M255.824 181.481C250.146 181.481 218.602 225.181 216.709 233.203C214.817 241.225 249.452 255.743 249.452 255.743C249.452 255.743 263.491 227.771 265.194 211.44C265.592 207.646 265.692 203.828 265.491 200.019" fill="white"/>
</mask>
<g mask="url(#mask11_502_392)">
<path d="M224.98 216.205C205.089 222.57 254.475 245.884 254.475 245.884L253.914 272.411L195.159 245.225" fill="white"/>
<path d="M224.98 216.205C205.089 222.57 254.475 245.884 254.475 245.884L253.914 272.411L195.159 245.225" stroke="#1B1B1B" stroke-width="0.7" stroke-linecap="round" stroke-linejoin="round"/>
</g>
<path d="M255.824 181.481C250.146 181.481 218.602 225.181 216.709 233.203C214.817 241.225 249.452 255.743 249.452 255.743C249.452 255.743 263.491 227.771 265.194 211.44C265.592 207.646 265.692 203.828 265.491 200.019" stroke="#1B1B1B" stroke-width="0.7" stroke-linecap="round" stroke-linejoin="round"/>
<ellipse cx="292.422" cy="188.134" rx="1.86182" ry="1.86905" fill="#1B1B1B" stroke="#1B1B1B" stroke-width="0.7" stroke-linecap="round" stroke-linejoin="round"/>
<ellipse cx="297.246" cy="198.629" rx="1.86182" ry="1.86905" fill="#1B1B1B" stroke="#1B1B1B" stroke-width="0.7" stroke-linecap="round" stroke-linejoin="round"/>
<path d="M278.401 131.096C278.128 131.406 277.743 131.596 277.331 131.622C276.919 131.648 276.513 131.508 276.204 131.235L274.232 129.49C273.588 128.918 273.526 127.933 274.094 127.285C274.366 126.974 274.751 126.785 275.164 126.759C275.576 126.733 275.981 126.872 276.291 127.146L278.262 128.891C278.907 129.463 278.969 130.448 278.401 131.096Z" fill="#1B1B1B"/>
<path d="M271.105 122.786C267.84 126.187 268.61 128.269 270.789 126.276C272.968 124.283 273.238 120.563 271.105 122.786Z" fill="#1B1B1B"/>
<path d="M278.91 126.513C285.251 124.039 288.876 129.325 285.377 131.7L278.91 126.513Z" fill="white"/>
<path d="M278.91 126.513C285.251 124.039 288.876 129.325 285.377 131.7" stroke="#1B1B1B" stroke-width="0.7" stroke-linecap="round" stroke-linejoin="round"/>
<ellipse opacity="0.27" cx="273.499" cy="140.529" rx="5.2265" ry="5.24682" fill="white"/>
<path d="M280.143 139.082C283.724 139.663 285.576 137.081 285.576 137.081L280.143 139.082Z" fill="white"/>
<path d="M280.143 139.082C283.724 139.663 285.576 137.081 285.576 137.081" stroke="#1B1B1B" stroke-width="0.7" stroke-linecap="round" stroke-linejoin="round"/>
<path d="M262.22 146.142C261.393 145.828 260.354 146.431 260.213 147.306C260.071 148.182 260.867 149.083 261.75 149.048" stroke="#1B1B1B" stroke-width="0.7" stroke-linecap="round" stroke-linejoin="round"/>
<path d="M254 123.376C253.274 124.512 252.981 125.871 253.175 127.205" stroke="#1B1B1B" stroke-width="0.7" stroke-linecap="round" stroke-linejoin="round"/>
<path d="M245.403 151.123C244.663 152.845 245.521 155.084 247.22 155.864" stroke="#1B1B1B" stroke-width="0.7" stroke-linecap="round" stroke-linejoin="round"/>
<path d="M297.284 254.719C300.231 256.146 303.587 256.482 306.758 255.666" stroke="#1B1B1B" stroke-width="0.7" stroke-linecap="round" stroke-linejoin="round"/>
<path d="M336.993 152.792L337.896 154.604" stroke="#1B1B1B" stroke-width="0.7" stroke-linecap="round" stroke-linejoin="round"/>
<path d="M236.367 213.503C237.29 218.209 240.317 222.457 244.454 224.856" stroke="#1B1B1B" stroke-width="0.7" stroke-linecap="round" stroke-linejoin="round"/>
</g>
</svg>
