<svg width="312" height="247" viewBox="0 0 312 247" fill="none" xmlns="http://www.w3.org/2000/svg">
<rect x="79.1115" y="21.8487" width="160.038" height="222.871" rx="10.3049" fill="white"/>
<rect x="79.1115" y="21.8487" width="160.038" height="222.871" rx="10.3049" stroke="#1B1B1B" stroke-width="0.7" stroke-linecap="round" stroke-linejoin="round"/>
<rect x="92.2207" y="33.0431" width="133.819" height="200.482" rx="1.87781" fill="white" stroke="#1B1B1B" stroke-width="0.7" stroke-linecap="round" stroke-linejoin="round"/>
<rect x="106.407" y="66.0006" width="17.782" height="17.8395" rx="7.61025" fill="white" stroke="#1B1B1B" stroke-width="0.7" stroke-linecap="round" stroke-linejoin="round"/>
<rect x="130.457" y="68.3642" width="88.2447" height="13.1123" rx="5.59366" fill="white" stroke="#1B1B1B" stroke-width="0.7" stroke-linecap="round" stroke-linejoin="round"/>
<rect x="106.407" y="175.237" width="17.782" height="17.8395" rx="7.61025" fill="white"/>
<rect x="130.457" y="177.6" width="88.2447" height="13.1123" rx="5.59366" fill="white"/>
<rect x="106.407" y="102.413" width="17.782" height="17.8395" rx="7.61025" fill="white"/>
<rect x="130.457" y="104.776" width="88.2447" height="13.1123" rx="5.59366" fill="white"/>
<rect x="106.407" y="138.825" width="17.782" height="17.8395" rx="7.61025" fill="white"/>
<rect x="130.457" y="141.188" width="88.2447" height="13.1123" rx="5.59366" fill="white"/>
<path fill-rule="evenodd" clip-rule="evenodd" d="M172.481 14.4769H179.802C189.238 14.4769 196.887 22.1507 196.887 31.6166V33.5506C196.888 34.3239 196.582 35.0659 196.036 35.6135C195.49 36.1612 194.749 36.4696 193.976 36.4708H124.285C123.512 36.4696 122.771 36.1613 122.225 35.6136C121.679 35.066 121.373 34.3239 121.374 33.5506V31.6166C121.374 22.1507 129.023 14.4769 138.458 14.4769H145.78C145.78 7.07989 151.757 1.08325 159.13 1.08325C166.504 1.08325 172.481 7.07989 172.481 14.4769ZM154.038 16.5935C154.895 18.6475 156.905 19.9826 159.13 19.9755H159.13C160.586 19.9732 161.982 19.3926 163.01 18.3614C164.037 17.3302 164.614 15.9329 164.611 14.4769C164.611 12.2514 163.27 10.2454 161.213 9.39539C159.156 8.5454 156.79 9.01909 155.218 10.5953C153.647 12.1715 153.181 14.5394 154.038 16.5935Z" fill="white"/>
<mask id="mask0_502_180" style="mask-type:luminance" maskUnits="userSpaceOnUse" x="121" y="1" width="76" height="36">
<path fill-rule="evenodd" clip-rule="evenodd" d="M179.802 14.4769H172.481C172.481 7.07989 166.504 1.08325 159.13 1.08325C151.757 1.08325 145.78 7.07989 145.78 14.4769H138.458C129.023 14.4769 121.374 22.1507 121.374 31.6166V33.5506C121.373 34.3239 121.679 35.066 122.225 35.6136C122.771 36.1613 123.512 36.4696 124.285 36.4708H193.976C194.749 36.4696 195.49 36.1612 196.036 35.6135C196.582 35.0659 196.888 34.3239 196.887 33.5506V31.6166C196.887 22.1507 189.238 14.4769 179.802 14.4769ZM159.13 19.9755C156.905 19.9826 154.895 18.6475 154.038 16.5935C153.181 14.5394 153.647 12.1715 155.218 10.5953C156.79 9.01909 159.156 8.5454 161.213 9.39539C163.27 10.2454 164.611 12.2514 164.611 14.4769C164.614 15.9329 164.037 17.3302 163.01 18.3614C161.982 19.3926 160.586 19.9732 159.13 19.9755H159.13Z" fill="white"/>
</mask>
<g mask="url(#mask0_502_180)">
<path d="M188.148 7.94485C204.15 32.2856 170.074 37.7829 126.069 30.3733C82.0647 22.9636 130.589 42.1254 130.589 42.1254L217.056 44.9738L209.313 7.68591L185.308 5.80109" fill="white"/>
</g>
<path d="M172.481 14.4769H172.131C172.131 14.6702 172.288 14.8269 172.481 14.8269V14.4769ZM145.78 14.4769V14.8269C145.973 14.8269 146.13 14.6702 146.13 14.4769H145.78ZM121.374 33.5506L121.724 33.5512V33.5506H121.374ZM124.285 36.4708L124.284 36.8208H124.285V36.4708ZM193.976 36.4708V36.8208L193.977 36.8208L193.976 36.4708ZM196.887 33.5506H196.537V33.5512L196.887 33.5506ZM159.13 19.9755L159.131 20.3255C159.325 20.3249 159.481 20.168 159.48 19.9749C159.48 19.7818 159.323 19.6255 159.13 19.6255V19.9755ZM164.611 14.4769L164.261 14.4769V14.4775L164.611 14.4769ZM159.13 19.9755L159.13 19.6255C158.937 19.6258 158.78 19.7826 158.78 19.9757C158.78 20.1689 158.937 20.3255 159.13 20.3255V19.9755ZM179.802 14.1269H172.481V14.8269H179.802V14.1269ZM172.831 14.4769C172.831 6.88765 166.698 0.733252 159.13 0.733252V1.43325C166.309 1.43325 172.131 7.27214 172.131 14.4769H172.831ZM159.13 0.733252C151.563 0.733252 145.43 6.88766 145.43 14.4769H146.13C146.13 7.27213 151.951 1.43325 159.13 1.43325V0.733252ZM145.78 14.1269H138.458V14.8269H145.78V14.1269ZM138.458 14.1269C128.829 14.1269 121.024 21.9584 121.024 31.6166H121.724C121.724 22.3429 129.218 14.8269 138.458 14.8269V14.1269ZM121.024 31.6166V33.5506H121.724V31.6166H121.024ZM121.024 33.5501C121.023 34.4162 121.365 35.2473 121.977 35.8607L122.473 35.3666C121.992 34.8846 121.723 34.2316 121.724 33.5512L121.024 33.5501ZM121.977 35.8607C122.588 36.4741 123.418 36.8195 124.284 36.8208L124.286 36.1208C123.605 36.1198 122.953 35.8485 122.473 35.3666L121.977 35.8607ZM124.285 36.8208H193.976V36.1208H124.285V36.8208ZM193.977 36.8208C194.843 36.8194 195.673 36.474 196.284 35.8606L195.788 35.3665C195.308 35.8484 194.656 36.1197 193.975 36.1208L193.977 36.8208ZM196.284 35.8606C196.895 35.2472 197.238 34.4161 197.237 33.5501L196.537 33.5512C196.538 34.2316 196.269 34.8846 195.788 35.3665L196.284 35.8606ZM197.237 33.5506V31.6166H196.537V33.5506H197.237ZM197.237 31.6166C197.237 21.9584 189.432 14.1269 179.802 14.1269V14.8269C189.043 14.8269 196.537 22.3429 196.537 31.6166H197.237ZM159.129 19.6255C157.045 19.6322 155.163 18.382 154.361 16.4587L153.715 16.7282C154.626 18.913 156.764 20.3331 159.131 20.3255L159.129 19.6255ZM154.361 16.4587C153.559 14.5354 153.995 12.3183 155.466 10.8424L154.971 10.3482C153.299 12.0248 152.804 14.5434 153.715 16.7282L154.361 16.4587ZM155.466 10.8424C156.937 9.36651 159.153 8.92297 161.079 9.71886L161.346 9.07193C159.159 8.16783 156.642 8.67166 154.971 10.3482L155.466 10.8424ZM161.079 9.71886C163.005 10.5147 164.261 12.3931 164.261 14.4769L164.961 14.4769C164.961 12.1097 163.534 9.97603 161.346 9.07193L161.079 9.71886ZM164.261 14.4775C164.263 15.8407 163.724 17.1489 162.762 18.1143L163.257 18.6085C164.351 17.5116 164.964 16.0252 164.961 14.4764L164.261 14.4775ZM162.762 18.1143C161.799 19.0798 160.493 19.6233 159.13 19.6255L159.131 20.3255C160.68 20.323 162.164 19.7054 163.257 18.6085L162.762 18.1143ZM159.13 20.3255H159.13V19.6255H159.13V20.3255Z" fill="#1B1B1B"/>
<path d="M142.054 48.636L136.888 54.3295" stroke="#1B1B1B" stroke-width="0.7" stroke-linecap="round" stroke-linejoin="round"/>
<path d="M222.04 212.267C220.193 214.911 217.717 217.056 214.836 218.507" stroke="#1B1B1B" stroke-width="0.7" stroke-linecap="round" stroke-linejoin="round"/>
<path d="M83.652 95.715C83.652 95.715 80.6572 80.4283 80.0336 76.3211C79.41 72.2139 74.7337 68.4963 73.7637 70.5499C72.7937 72.6035 75.8422 76.8574 74.318 77.0041C72.7938 77.1508 74.1027 79.2777 75.9425 79.7911C77.7822 80.3045 76.7495 88.2255 76.7495 88.2255L83.652 95.715Z" fill="white"/>
<mask id="mask1_502_180" style="mask-type:luminance" maskUnits="userSpaceOnUse" x="73" y="69" width="11" height="27">
<path fill-rule="evenodd" clip-rule="evenodd" d="M83.652 95.715C83.652 95.715 80.6572 80.4283 80.0336 76.3211C79.41 72.2139 74.7337 68.4963 73.7637 70.5499C72.7937 72.6035 75.8422 76.8574 74.318 77.0041C72.7938 77.1508 74.1027 79.2777 75.9425 79.7911C77.7822 80.3045 76.7495 88.2255 76.7495 88.2255L83.652 95.715Z" fill="white"/>
</mask>
<g mask="url(#mask1_502_180)">
<path d="M76.5202 82.9449C80.2696 83.7634 85.7802 87.4285 85.7802 87.4285L79.6447 88.5859L74.1167 85.3548L74.7897 82.841" fill="white"/>
</g>
<path fill-rule="evenodd" clip-rule="evenodd" d="M83.652 95.715C83.652 95.715 80.6572 80.4283 80.0336 76.3211C79.41 72.2139 74.7337 68.4963 73.7637 70.5499C72.7937 72.6035 75.8422 76.8574 74.318 77.0041C72.7938 77.1508 74.1027 79.2777 75.9425 79.7911C77.7822 80.3045 76.7495 88.2255 76.7495 88.2255L83.652 95.715Z" stroke="#1B1B1B" stroke-width="0.7" stroke-linecap="round" stroke-linejoin="round"/>
<path d="M76.8327 82.8471C76.8327 82.8471 81.2464 85.3651 82.9092 88.2255C82.9092 88.2255 86.4427 115.949 81.2464 117.489C76.0501 119.029 43.8331 100.327 47.5744 93.5062C51.3157 86.6853 75.2187 102.747 75.2187 102.747L76.8327 82.8471Z" fill="white"/>
<mask id="mask2_502_180" style="mask-type:luminance" maskUnits="userSpaceOnUse" x="47" y="82" width="38" height="36">
<path fill-rule="evenodd" clip-rule="evenodd" d="M76.8327 82.8471C76.8327 82.8471 81.2464 85.3651 82.9092 88.2255C82.9092 88.2255 86.4427 115.949 81.2464 117.489C76.0501 119.029 43.8331 100.327 47.5744 93.5062C51.3157 86.6853 75.2187 102.747 75.2187 102.747L76.8327 82.8471Z" fill="white"/>
</mask>
<g mask="url(#mask2_502_180)">
<ellipse cx="81.1896" cy="117.579" rx="5.00551" ry="2.92717" fill="white" stroke="#1B1B1B" stroke-width="0.7" stroke-linecap="round" stroke-linejoin="round"/>
</g>
<path fill-rule="evenodd" clip-rule="evenodd" d="M76.8327 82.8471C76.8327 82.8471 81.2464 85.3651 82.9092 88.2255C82.9092 88.2255 86.4427 115.949 81.2464 117.489C76.0501 119.029 43.8331 100.327 47.5744 93.5062C51.3157 86.6853 75.2187 102.747 75.2187 102.747L76.8327 82.8471Z" stroke="#1B1B1B" stroke-width="0.7" stroke-linecap="round" stroke-linejoin="round"/>
<path d="M76.0998 86.2672L76.3919 82.7334C76.3919 82.7334 82.6793 82.8412 83.6492 85.8699L83.437 88.5853C83.437 88.5853 79.0094 84.055 76.0998 86.2672Z" fill="white" stroke="#1B1B1B" stroke-width="0.7" stroke-linecap="round" stroke-linejoin="round"/>
<path d="M65.1813 205.451H54.9273C49.9259 224.975 45.4035 244.369 47.2722 244.369C50.9452 244.369 69.4441 246.571 69.4479 245.029C69.4544 242.371 54.1441 242.058 56.0897 235.219C56.8884 232.412 60.8498 217.945 65.1813 205.451Z" fill="#1B1B1B" stroke="#1B1B1B" stroke-width="0.7" stroke-linecap="round" stroke-linejoin="round"/>
<path d="M78.493 167.36L65.4333 165.873C65.0323 167.626 59.7565 186.599 54.9273 205.451H65.1814C71.4019 187.508 78.493 167.36 78.493 167.36Z" fill="white"/>
<mask id="mask3_502_180" style="mask-type:luminance" maskUnits="userSpaceOnUse" x="54" y="165" width="25" height="41">
<path fill-rule="evenodd" clip-rule="evenodd" d="M78.493 167.36L65.4333 165.873C65.0323 167.626 59.7565 186.599 54.9273 205.451H65.1814C71.4019 187.508 78.493 167.36 78.493 167.36Z" fill="white"/>
</mask>
<g mask="url(#mask3_502_180)">
<path d="M51.6684 179.918C71.2819 178.337 67.4742 173.347 77.4531 170.318C87.432 167.289 65.4333 165.873 65.4333 165.873L61.1995 171.389" fill="white"/>
</g>
<path fill-rule="evenodd" clip-rule="evenodd" d="M78.493 167.36L65.4333 165.873C65.0323 167.626 59.7565 186.599 54.9273 205.451H65.1814C71.4019 187.508 78.493 167.36 78.493 167.36Z" stroke="#1B1B1B" stroke-width="0.7" stroke-linecap="round" stroke-linejoin="round"/>
<path d="M27.0486 165.36L27.1017 152.593C14.3974 146.275 2.27706 139.758 1.76594 142.88C1.02728 147.393 0.58546 165.377 1.67185 165.492C5.26666 165.873 5.21967 151.526 9.66864 153.98C11.4949 154.988 18.9244 159.909 27.0486 165.36Z" fill="#1B1B1B" stroke="#1B1B1B" stroke-width="0.7" stroke-linecap="round" stroke-linejoin="round"/>
<path d="M54.61 178.919L67.8982 163.734C67.3405 163.486 61.7401 167.758 53.4699 165.873C44.8229 163.902 33.3719 155.711 27.1017 152.593L27.0486 165.36C35.1327 170.784 43.9049 176.734 48.5306 179.877C50.5152 181.225 52.9251 180.845 54.61 178.919Z" fill="white"/>
<mask id="mask4_502_180" style="mask-type:luminance" maskUnits="userSpaceOnUse" x="27" y="152" width="41" height="29">
<path fill-rule="evenodd" clip-rule="evenodd" d="M54.61 178.919L67.8982 163.734C67.3405 163.486 61.7401 167.758 53.4699 165.873C44.8229 163.902 33.3719 155.711 27.1017 152.593L27.0486 165.36C35.1327 170.784 43.9049 176.734 48.5306 179.877C50.5152 181.225 52.9251 180.845 54.61 178.919Z" fill="white"/>
</mask>
<g mask="url(#mask4_502_180)">
<path d="M33.7866 153.787C33.9789 171.918 54.9272 174.277 54.9272 174.277L39.3246 153.787" fill="white"/>
</g>
<path fill-rule="evenodd" clip-rule="evenodd" d="M54.61 178.919L67.8982 163.734C67.3405 163.486 61.7401 167.758 53.4699 165.873C44.8229 163.902 33.3719 155.711 27.1017 152.593L27.0486 165.36C35.1327 170.784 43.9049 176.734 48.5306 179.877C50.5152 181.225 52.9251 180.845 54.61 178.919Z" stroke="#1B1B1B" stroke-width="0.7" stroke-linecap="round" stroke-linejoin="round"/>
<path d="M52.2795 119.877C54.7282 145.148 28.5228 155.354 39.888 166.635C56.1416 182.769 89.8806 170.328 87.1734 157.182C83.0684 137.248 68.9798 117.579 68.9798 117.579L52.2795 119.877Z" fill="white"/>
<mask id="mask5_502_180" style="mask-type:luminance" maskUnits="userSpaceOnUse" x="37" y="117" width="51" height="58">
<path fill-rule="evenodd" clip-rule="evenodd" d="M52.2795 119.877C54.7282 145.148 28.5228 155.354 39.888 166.635C56.1416 182.769 89.8806 170.328 87.1734 157.182C83.0684 137.248 68.9798 117.579 68.9798 117.579L52.2795 119.877Z" fill="white"/>
</mask>
<g mask="url(#mask5_502_180)">
<path d="M32.2272 143.211C54.7664 145.251 52.0908 131.4 61.2432 131.026C70.3956 130.652 75.4007 121.021 75.4007 121.021L46.3947 117.579L44.0609 120.475L32.2272 143.211Z" fill="white" stroke="#1B1B1B" stroke-width="0.7" stroke-linecap="round" stroke-linejoin="round"/>
<path d="M94.9886 150.386L86.1169 143.22L78.9958 152.094L70.1508 144.95L63.0297 153.823L54.1847 146.679L47.0634 155.552L38.2184 148.408L31.0758 157.308L39.8379 164.386L32.7833 173.176L41.6548 180.342L48.7761 171.469L57.6211 178.613L64.7424 169.739L73.5872 176.884L80.7085 168.01L89.5533 175.155L96.6961 166.254L87.9338 159.177L94.9886 150.386Z" fill="white" stroke="#1B1B1B" stroke-width="0.7" stroke-linecap="round" stroke-linejoin="round"/>
<path d="M48.7709 171.421L40.0353 164.364L47.0686 155.6L55.8042 162.657L48.7709 171.421Z" fill="white" stroke="#1B1B1B" stroke-width="0.7" stroke-linecap="round" stroke-linejoin="round"/>
<path d="M64.7373 169.691L56.0016 162.635L63.0349 153.871L71.7706 160.927L64.7373 169.691Z" fill="white" stroke="#1B1B1B" stroke-width="0.7" stroke-linecap="round" stroke-linejoin="round"/>
<path d="M80.7033 167.962L71.9675 160.906L79.001 152.142L87.7367 159.198L80.7033 167.962Z" fill="white" stroke="#1B1B1B" stroke-width="0.7" stroke-linecap="round" stroke-linejoin="round"/>
<path d="M91.5602 118.68L82.6885 111.514L75.5674 120.388L66.7224 113.243L59.6013 122.117L50.7563 114.973L43.635 123.846L34.79 116.702L27.6474 125.602L36.4095 132.68L29.3549 141.47L38.2263 148.636L45.3477 139.762L54.1927 146.907L61.314 138.033L70.1588 145.177L77.2801 136.304L86.1248 143.448L93.2677 134.548L84.5054 127.471L91.5602 118.68Z" fill="white" stroke="#1B1B1B" stroke-width="0.7" stroke-linecap="round" stroke-linejoin="round"/>
<path d="M45.3425 139.714L36.6068 132.658L43.6401 123.894L52.3758 130.95L45.3425 139.714Z" fill="white" stroke="#1B1B1B" stroke-width="0.7" stroke-linecap="round" stroke-linejoin="round"/>
<path d="M61.3088 137.985L52.5732 130.929L59.6065 122.165L68.3421 129.221L61.3088 137.985Z" fill="white" stroke="#1B1B1B" stroke-width="0.7" stroke-linecap="round" stroke-linejoin="round"/>
<path d="M77.2749 136.256L68.539 129.2L75.5726 120.436L84.3082 127.492L77.2749 136.256Z" fill="white" stroke="#1B1B1B" stroke-width="0.7" stroke-linecap="round" stroke-linejoin="round"/>
</g>
<path fill-rule="evenodd" clip-rule="evenodd" d="M52.2795 119.877C54.7282 145.148 28.5228 155.354 39.888 166.635C56.1416 182.769 89.8806 170.328 87.1734 157.182C83.0684 137.248 68.9798 117.579 68.9798 117.579L52.2795 119.877Z" stroke="#1B1B1B" stroke-width="0.7" stroke-linecap="round" stroke-linejoin="round"/>
<path d="M47.4174 83.202C45.419 86.8717 54.6868 94.4965 54.6868 94.4965L44.2871 95.9955L39.9452 84.9846L47.4174 83.202Z" fill="white"/>
<mask id="mask6_502_180" style="mask-type:luminance" maskUnits="userSpaceOnUse" x="39" y="83" width="16" height="13">
<path fill-rule="evenodd" clip-rule="evenodd" d="M47.4174 83.202C45.419 86.8717 54.6868 94.4965 54.6868 94.4965L44.2871 95.9955L39.9452 84.9846L47.4174 83.202Z" fill="white"/>
</mask>
<g mask="url(#mask6_502_180)">
<path d="M52.0324 90.0785C52.0324 90.0785 48.1612 91.4192 46.0542 86.5225C45.0717 84.2389 47.4764 83.6817 47.4764 83.6817L52.0324 90.0785Z" fill="white"/>
</g>
<path fill-rule="evenodd" clip-rule="evenodd" d="M47.4174 83.202C45.419 86.8717 54.6868 94.4965 54.6868 94.4965L44.2871 95.9955L39.9452 84.9846L47.4174 83.202Z" stroke="#1B1B1B" stroke-width="0.7" stroke-linecap="round" stroke-linejoin="round"/>
<path d="M32.032 85.0556C12.8904 84.1029 32.0511 102.633 15.7016 108.801C-0.64794 114.969 20.9207 135.26 35.0661 121.463C49.2115 107.667 27.7732 88.0642 34.0691 87.6597C40.3651 87.2553 32.032 85.0556 32.032 85.0556Z" fill="white" stroke="#1B1B1B" stroke-width="0.7" stroke-linecap="round" stroke-linejoin="round"/>
<path d="M30.4222 84.1605C27.1533 84.896 31.7419 89.6307 34.3662 87.9805C36.9904 86.3302 35.4374 86.4165 35.4374 86.4165L30.4222 84.1605Z" fill="#1B1B1B" stroke="#1B1B1B" stroke-width="0.7" stroke-linecap="round" stroke-linejoin="round"/>
<ellipse cx="41.8659" cy="71.962" rx="7.83963" ry="5.68622" transform="rotate(-29.4711 41.8659 71.962)" fill="white" stroke="#1B1B1B" stroke-width="0.7" stroke-linecap="round" stroke-linejoin="round"/>
<path d="M48.3285 84.1604L53.3848 95.5284L42.5765 96.6903L36.3749 84.9384L48.3285 84.1604Z" fill="white"/>
<mask id="mask7_502_180" style="mask-type:luminance" maskUnits="userSpaceOnUse" x="36" y="84" width="18" height="13">
<path fill-rule="evenodd" clip-rule="evenodd" d="M48.3285 84.1604L53.3848 95.5284L42.5765 96.6903L36.3749 84.9384L48.3285 84.1604Z" fill="white"/>
</mask>
<g mask="url(#mask7_502_180)">
<path d="M46.9973 86.0313C44.176 87.7514 49.5426 90.1565 52.5355 93.4576C55.5284 96.7587 49.8323 84.9161 49.8323 84.9161L44.969 84.0352" fill="white"/>
</g>
<path fill-rule="evenodd" clip-rule="evenodd" d="M48.3285 84.1604L53.3848 95.5284L42.5765 96.6903L36.3749 84.9384L48.3285 84.1604V84.1604Z" stroke="#1B1B1B" stroke-width="0.7" stroke-linecap="round" stroke-linejoin="round"/>
<path d="M46.9973 86.0313C55.9919 84.813 51.2065 72.2259 43.2231 70.1869C34.0992 67.8566 38.1905 78.4967 38.1905 78.4967L39.5015 80.8485L41.7669 84.9122" fill="white"/>
<path d="M46.9973 86.0313C55.9919 84.813 51.2065 72.2259 43.2231 70.1869C34.0992 67.8566 38.1905 78.4967 38.1905 78.4967L39.5015 80.8485L41.7669 84.9122" stroke="#1B1B1B" stroke-width="0.7" stroke-linecap="round" stroke-linejoin="round"/>
<path d="M38.0284 67.8214C37.2824 67.9948 36.5674 68.2817 35.9084 68.6722C28.8556 72.821 26.1752 82.9224 32.6482 86.1947C40.1303 89.9772 38.9511 91.0557 38.9511 91.0557C38.9511 91.0557 47.3234 87.4126 41.419 81.2631C47.6528 78.1631 44.3405 68.402 44.3405 68.402" fill="white"/>
<path d="M38.0284 67.8214C37.2824 67.9948 36.5674 68.2817 35.9084 68.6722C28.8556 72.821 26.1752 82.9224 32.6482 86.1947C40.1303 89.9772 38.9511 91.0557 38.9511 91.0557C38.9511 91.0557 47.3234 87.4126 41.419 81.2631C47.6528 78.1631 44.3405 68.402 44.3405 68.402" stroke="#1B1B1B" stroke-width="0.7" stroke-linecap="round" stroke-linejoin="round"/>
<path d="M44.0897 78.8548C37.4004 79.8413 37.6245 86.6106 44.6257 85.2646L44.0897 78.8548Z" fill="white"/>
<path d="M44.0897 78.8548C37.4004 79.8413 37.6245 86.6106 44.6257 85.2646" stroke="#1B1B1B" stroke-width="0.7" stroke-linecap="round" stroke-linejoin="round"/>
<path d="M48.7071 77.893C48.5411 77.9729 48.3502 77.9833 48.1765 77.9221C48.0028 77.8609 47.8606 77.733 47.7813 77.5667L47.2743 76.507C47.1084 76.1606 47.2538 75.7454 47.5995 75.5782C47.7655 75.4984 47.9564 75.488 48.1301 75.5492C48.3038 75.6104 48.446 75.7383 48.5252 75.9045L49.0323 76.9643C49.1982 77.3106 49.0528 77.7259 48.7071 77.893Z" fill="#1B1B1B"/>
<path d="M47.1517 73.211C45.2221 74.0368 45.1776 75.025 46.4173 74.5878C47.6571 74.1505 48.4124 72.6715 47.1517 73.211Z" fill="#1B1B1B"/>
<path d="M49.7168 75.9223C52.4199 76.2615 52.7162 78.7283 51.0363 78.8835L49.7168 75.9223Z" fill="white"/>
<path d="M49.7168 75.9223C52.4199 76.2615 52.7162 78.7283 51.0363 78.8835" stroke="#1B1B1B" stroke-width="0.7" stroke-linecap="round" stroke-linejoin="round"/>
<ellipse opacity="0.27" cx="45.5909" cy="81.1702" rx="2.14191" ry="2.14884" fill="white"/>
<path d="M47.9915 80.2224C48.6492 80.8726 49.6094 81.1117 50.4951 80.846L47.9915 80.2224Z" fill="white"/>
<path d="M47.9915 80.2224C48.6492 80.8726 49.6094 81.1117 50.4951 80.846" stroke="#1B1B1B" stroke-width="0.7" stroke-linecap="round" stroke-linejoin="round"/>
<path d="M44.0537 96.88C52.2919 102.313 58.9691 95.2778 54.6868 92.2179C52.1575 90.4106 41.0937 86.1358 39.9963 94.6893L42.5068 98.3184" fill="#1B1B1B"/>
<path d="M44.0537 96.88C52.2919 102.313 58.9691 95.2778 54.6868 92.2179C52.1575 90.4106 41.0937 86.1358 39.9963 94.6893L42.5068 98.3184" stroke="#1B1B1B" stroke-width="0.7" stroke-linecap="round" stroke-linejoin="round"/>
<path d="M74.7989 124.393C80.4221 121.789 63.536 92.3249 49.72 91.1208C31.533 89.5358 50.2765 123.87 50.9 124.53C51.5236 125.19 61.4964 130.554 74.7989 124.393Z" fill="white"/>
<mask id="mask8_502_180" style="mask-type:luminance" maskUnits="userSpaceOnUse" x="41" y="91" width="35" height="37">
<path fill-rule="evenodd" clip-rule="evenodd" d="M74.7989 124.393C80.4221 121.789 63.5359 92.3249 49.72 91.1208C31.533 89.5358 50.2765 123.87 50.9 124.53C51.5235 125.19 61.4964 130.554 74.7989 124.393Z" fill="white"/>
</mask>
<g mask="url(#mask8_502_180)">
<path d="M54.9532 97.2099L51.9343 97.4709C51.9343 97.4709 47.3535 106.735 65.6778 112.3C76.9054 115.71 79.0656 126.166 84.0827 126.464C97.4613 127.258 70.4641 103.411 70.4641 103.411L54.9532 97.2099Z" fill="white"/>
<path d="M28.5096 114.638C44.0399 112.889 47.3386 103.711 44.7058 92.049C42.073 80.3873 31.6026 97.5127 31.6026 97.5127L28.6119 100.565L28.5096 114.638Z" fill="white"/>
</g>
<path fill-rule="evenodd" clip-rule="evenodd" d="M74.7989 124.393C80.4221 121.789 63.536 92.3249 49.72 91.1208C31.533 89.5358 50.2765 123.87 50.9 124.53C51.5236 125.19 61.4964 130.554 74.7989 124.393Z" stroke="#1B1B1B" stroke-width="0.7" stroke-linecap="round" stroke-linejoin="round"/>
<path d="M42.2489 49.3676L58.4252 31.4204L124.099 90.9971C125.428 92.2047 125.531 94.2595 124.329 95.594L119.136 101.355L112.505 108.713C111.929 109.353 111.121 109.737 110.261 109.781C109.402 109.824 108.56 109.523 107.922 108.944L42.2489 49.3676Z" fill="white"/>
<mask id="mask9_502_180" style="mask-type:luminance" maskUnits="userSpaceOnUse" x="42" y="31" width="84" height="79">
<path fill-rule="evenodd" clip-rule="evenodd" d="M42.2489 49.3676L58.4252 31.4204L124.099 90.9971C125.428 92.2047 125.531 94.2595 124.329 95.594L119.136 101.355L112.505 108.713C111.929 109.353 111.121 109.737 110.261 109.781C109.402 109.824 108.56 109.523 107.922 108.944L42.2489 49.3676Z" fill="white"/>
</mask>
<g mask="url(#mask9_502_180)">
<path d="M51.0657 35.5633L53.5731 32.7813L112.654 86.3772L110.146 89.1591L51.0657 35.5633Z" fill="white" stroke="#1B1B1B" stroke-width="0.7" stroke-linecap="round" stroke-linejoin="round"/>
<path d="M46.5556 40.5672L49.063 37.7852L108.144 91.3811L105.636 94.163L46.5556 40.5672Z" fill="white" stroke="#1B1B1B" stroke-width="0.7" stroke-linecap="round" stroke-linejoin="round"/>
<path d="M42.2291 45.3673L44.7365 42.5853L103.817 96.1812L101.31 98.9631L42.2291 45.3673Z" fill="white" stroke="#1B1B1B" stroke-width="0.7" stroke-linecap="round" stroke-linejoin="round"/>
<path d="M98.2549 105.569L119.888 81.568L129.286 90.0941L107.653 114.095L98.2549 105.569Z" fill="white" stroke="#1B1B1B" stroke-width="0.7" stroke-linecap="round" stroke-linejoin="round"/>
<path d="M100.602 103.453L120.303 81.5945L118.189 79.6761L98.4873 101.534L100.602 103.453Z" fill="white" stroke="#1B1B1B" stroke-width="0.7" stroke-linecap="round" stroke-linejoin="round"/>
</g>
<path fill-rule="evenodd" clip-rule="evenodd" d="M42.2489 49.3676L58.4252 31.4204L124.099 90.9971C125.428 92.2047 125.531 94.2595 124.329 95.594L119.136 101.355L112.505 108.713C111.929 109.353 111.121 109.737 110.261 109.781C109.402 109.824 108.56 109.523 107.922 108.944L42.2489 49.3676Z" stroke="#1B1B1B" stroke-width="0.7" stroke-linecap="round" stroke-linejoin="round"/>
<path d="M35.2883 26.7424C35.8694 26.0976 36.6769 25.7627 37.3633 25.8817L58.4252 31.4204L42.2489 49.3676L34.6429 28.8999C34.4561 28.2267 34.7072 27.3871 35.2883 26.7424Z" fill="white"/>
<mask id="mask10_502_180" style="mask-type:luminance" maskUnits="userSpaceOnUse" x="34" y="25" width="25" height="25">
<path fill-rule="evenodd" clip-rule="evenodd" d="M35.2883 26.7424C35.8694 26.0976 36.6769 25.7627 37.3633 25.8817L58.4252 31.4204L42.2489 49.3676L34.6429 28.8999C34.4561 28.2267 34.7072 27.3871 35.2883 26.7424Z" fill="white"/>
</mask>
<g mask="url(#mask10_502_180)">
<path d="M37.1614 51.3936L59.8758 26.1925L63.4644 29.4479L40.75 54.649L37.1614 51.3936Z" fill="white" stroke="#1B1B1B" stroke-width="0.7" stroke-linecap="round" stroke-linejoin="round"/>
<path d="M29.3847 33.659C25.8456 30.4485 26.1494 24.3256 30.0634 19.9831C33.9773 15.6407 40.0192 14.7231 43.5584 17.9337C47.0975 21.1442 44.2194 24.9319 40.3055 29.2743C36.3915 33.6168 32.9238 36.8696 29.3847 33.659Z" fill="#1B1B1B" stroke="#1B1B1B" stroke-width="0.7" stroke-linecap="round" stroke-linejoin="round"/>
</g>
<path fill-rule="evenodd" clip-rule="evenodd" d="M35.2883 26.7424V26.7424C35.8694 26.0976 36.6769 25.7627 37.3633 25.8817L58.4252 31.4204L42.2489 49.3676L34.6429 28.8999C34.4561 28.2267 34.7072 27.3871 35.2883 26.7424Z" stroke="#1B1B1B" stroke-width="0.7" stroke-linecap="round" stroke-linejoin="round"/>
<path d="M88.8673 84.7663C88.8673 84.7663 91.1358 74.8712 91.4751 70.7431C92.106 63.0658 90.7834 60.3499 89.0628 61.7479C87.3423 63.1458 88.3269 68.3825 86.8955 67.809C85.4641 67.2354 85.7628 69.7541 87.2053 71.0673C88.6478 72.3806 84.4474 79.0263 84.4474 79.0263L88.8673 84.7663Z" fill="white"/>
<mask id="mask11_502_180" style="mask-type:luminance" maskUnits="userSpaceOnUse" x="84" y="61" width="8" height="24">
<path fill-rule="evenodd" clip-rule="evenodd" d="M88.8673 84.7663C88.8673 84.7663 91.1358 74.8712 91.4751 70.7431C92.106 63.0658 90.7834 60.3499 89.0628 61.7479C87.3423 63.1458 88.3269 68.3825 86.8955 67.809C85.4641 67.2354 85.7628 69.7541 87.2053 71.0673C88.6478 72.3806 84.4474 79.0263 84.4474 79.0263L88.8673 84.7663Z" fill="white"/>
</mask>
<g mask="url(#mask11_502_180)">
<path d="M91.9986 80.7493C91.2054 76.1198 86.3114 75.2562 86.3114 75.2562L86.3144 80.7132L90.9651 82.0876" fill="white"/>
</g>
<path fill-rule="evenodd" clip-rule="evenodd" d="M88.8673 84.7663C88.8673 84.7663 91.1358 74.8712 91.4751 70.7431C92.106 63.0658 90.7834 60.3499 89.0628 61.7479C87.3423 63.1458 88.3269 68.3825 86.8955 67.809C85.4641 67.2354 85.7628 69.7541 87.2053 71.0673C88.6478 72.3806 84.4474 79.0263 84.4474 79.0263L88.8673 84.7663Z" stroke="#1B1B1B" stroke-width="0.7" stroke-linecap="round" stroke-linejoin="round"/>
<path d="M50.1823 92.6785C58.1391 91.4572 77.7129 94.8264 77.7129 94.8264L85.7803 75.7022C90.6137 79.0948 90.2064 80.5768 90.2064 80.5768C90.2064 80.5768 85.5146 109.228 78.1286 108.908C64.2393 108.306 50.7352 105.3 50.7352 105.3" fill="white"/>
<mask id="mask12_502_180" style="mask-type:luminance" maskUnits="userSpaceOnUse" x="50" y="75" width="41" height="34">
<path fill-rule="evenodd" clip-rule="evenodd" d="M50.1823 92.6785C58.1391 91.4572 77.7129 94.8264 77.7129 94.8264L85.7803 75.7022C90.6137 79.0948 90.2064 80.5768 90.2064 80.5768C90.2064 80.5768 85.5146 109.228 78.1286 108.908C64.2393 108.306 50.7352 105.3 50.7352 105.3" fill="white"/>
</mask>
<g mask="url(#mask12_502_180)">
<ellipse cx="80.9759" cy="109.306" rx="7.07207" ry="4.75575" fill="white" stroke="#1B1B1B" stroke-width="0.7" stroke-linecap="round" stroke-linejoin="round"/>
</g>
<path d="M50.1823 92.6785C58.1391 91.4572 77.7129 94.8264 77.7129 94.8264L85.7803 75.7022C90.6137 79.0948 90.2064 80.5768 90.2064 80.5768C90.2064 80.5768 85.5146 109.228 78.1286 108.908C64.2393 108.306 50.7352 105.3 50.7352 105.3" stroke="#1B1B1B" stroke-width="0.7" stroke-linecap="round" stroke-linejoin="round"/>
<path d="M61.7607 116.079C67.278 116.758 68.8791 114.284 68.8791 114.284C68.8791 114.284 76.9685 121.533 68.724 122.734C61.8886 123.73 61.7607 116.079 61.7607 116.079Z" fill="#1B1B1B" stroke="#1B1B1B" stroke-width="0.7" stroke-linecap="round" stroke-linejoin="round"/>
<path d="M84.0827 78.5458L85.5411 75.3158C85.5411 75.3158 91.4269 77.5364 91.3263 80.7159L90.2172 83.2019C90.2172 83.2019 87.5639 77.4428 84.0827 78.5458Z" fill="white" stroke="#1B1B1B" stroke-width="0.7" stroke-linecap="round" stroke-linejoin="round"/>
<path d="M257.153 173.463L230.342 171.813C226.237 171.56 223.569 167.367 225.068 163.524L228.381 155.028C229.024 153.367 230.366 152.075 232.049 151.493C233.732 150.912 235.586 151.102 237.117 152.011L258.644 164.818L257.153 173.463Z" fill="white"/>
<mask id="mask13_502_180" style="mask-type:luminance" maskUnits="userSpaceOnUse" x="224" y="151" width="35" height="23">
<path fill-rule="evenodd" clip-rule="evenodd" d="M257.153 173.463L230.342 171.813C226.237 171.56 223.569 167.367 225.068 163.524L228.381 155.028C229.024 153.367 230.366 152.075 232.049 151.493C233.732 150.912 235.586 151.102 237.117 152.011L258.644 164.818L257.153 173.463Z" fill="white"/>
</mask>
<g mask="url(#mask13_502_180)">
<path d="M253.534 157.901C252.872 164.717 250.056 167.931 245.473 164.994C240.89 162.057 246.244 167.931 250.662 169.87C255.08 171.81 228.852 173.463 228.381 155.028C228.068 142.8 223.993 167.235 223.993 167.235L224.646 177.129L229.294 179.9L249.062 183.225L258.007 174.47V162.833L253.534 157.901Z" fill="white"/>
</g>
<path fill-rule="evenodd" clip-rule="evenodd" d="M257.153 173.463L230.342 171.813C226.237 171.56 223.569 167.367 225.068 163.524L228.381 155.028C229.024 153.367 230.366 152.075 232.049 151.493C233.732 150.912 235.586 151.102 237.117 152.011L258.644 164.818L257.153 173.463Z" stroke="#1B1B1B" stroke-width="0.7" stroke-linecap="round" stroke-linejoin="round"/>
<path d="M260.135 173.463L286.946 171.813C291.051 171.56 293.719 167.367 292.221 163.524L288.908 155.028C288.264 153.367 286.922 152.075 285.239 151.493C283.556 150.912 281.702 151.102 280.171 152.011L258.644 164.818L260.135 173.463Z" fill="white" stroke="#1B1B1B" stroke-width="0.7" stroke-linecap="round" stroke-linejoin="round"/>
<path d="M260.135 173.463L286.946 171.813C291.051 171.56 293.719 167.367 292.221 163.524L288.908 155.028C288.264 153.367 286.922 152.075 285.239 151.493C283.556 150.912 281.702 151.102 280.171 152.011L258.644 164.818L260.135 173.463Z" fill="white"/>
<mask id="mask14_502_180" style="mask-type:luminance" maskUnits="userSpaceOnUse" x="258" y="151" width="35" height="23">
<path fill-rule="evenodd" clip-rule="evenodd" d="M260.135 173.463L286.946 171.813C291.051 171.56 293.719 167.367 292.221 163.524L288.908 155.028C288.264 153.367 286.922 152.075 285.239 151.493C283.556 150.912 281.702 151.102 280.171 152.011L258.644 164.818L260.135 173.463Z" fill="white"/>
</mask>
<g mask="url(#mask14_502_180)">
<path d="M263.754 157.901C264.416 164.717 271.921 174.068 276.504 171.131C281.087 168.194 271.536 177.094 267.118 179.033C262.699 180.973 288.436 173.463 288.908 155.028C289.22 142.8 293.295 167.235 293.295 167.235L292.642 177.129L287.994 179.9L268.226 183.225L259.281 174.47V162.833L263.754 157.901Z" fill="white"/>
</g>
<path fill-rule="evenodd" clip-rule="evenodd" d="M260.135 173.463L286.946 171.813C291.051 171.56 293.719 167.367 292.221 163.524L288.908 155.028C288.264 153.367 286.922 152.075 285.239 151.493C283.556 150.912 281.702 151.102 280.171 152.011L258.644 164.818L260.135 173.463Z" stroke="#1B1B1B" stroke-width="0.7" stroke-linecap="round" stroke-linejoin="round"/>
<rect x="252.405" y="160.287" width="12.4791" height="13.8962" rx="5.04133" fill="white" stroke="#1B1B1B" stroke-width="0.7" stroke-linecap="round" stroke-linejoin="round"/>
<path d="M259.334 246.117H217.178C213.474 246.11 210.478 243.103 210.484 239.4V182.059H259.334L259.334 246.117Z" fill="white"/>
<path fill-rule="evenodd" clip-rule="evenodd" d="M259.334 246.117H217.178C213.474 246.11 210.478 243.103 210.484 239.4V182.059H259.334L259.334 246.117Z" stroke="#1B1B1B" stroke-width="0.7" stroke-linecap="round" stroke-linejoin="round"/>
<path d="M257.088 246.117H299.244C302.948 246.11 305.944 243.103 305.938 239.4V182.059H257.088L257.088 246.117Z" fill="white"/>
<path fill-rule="evenodd" clip-rule="evenodd" d="M257.088 246.117H299.244C302.948 246.11 305.944 243.103 305.938 239.4V182.059H257.088L257.088 246.117Z" stroke="#1B1B1B" stroke-width="0.7" stroke-linecap="round" stroke-linejoin="round"/>
<path d="M239.308 239.4V182.059H229.866V239.4C229.859 243.103 232.856 246.11 236.559 246.117H246.001C242.298 246.11 239.301 243.103 239.308 239.4Z" fill="white" stroke="#1B1B1B" stroke-width="0.7" stroke-linecap="round" stroke-linejoin="round"/>
<path d="M276.504 182.059V239.4C276.51 243.103 273.513 246.11 269.81 246.117H280.09C283.793 246.11 286.79 243.103 286.783 239.4V182.059H276.504Z" fill="white" stroke="#1B1B1B" stroke-width="0.7" stroke-linecap="round" stroke-linejoin="round"/>
<rect opacity="0.06" x="210.484" y="179.184" width="46.6034" height="14.237" fill="black"/>
<rect opacity="0.06" x="257.088" y="179.184" width="48.85" height="14.237" fill="black"/>
<path d="M260.421 171.198H209.621C207.777 171.202 206.285 172.7 206.288 174.544V184.808C206.286 185.981 207.235 186.934 208.408 186.936H257.088V174.544C257.084 172.7 258.577 171.202 260.421 171.198Z" fill="white" stroke="#1B1B1B" stroke-width="0.7" stroke-linecap="round" stroke-linejoin="round"/>
<path d="M307.646 171.198H260.421C258.577 171.202 257.084 172.7 257.088 174.544V186.936H308.86C310.033 186.934 310.982 185.981 310.98 184.808V174.544C310.983 172.7 309.491 171.202 307.646 171.198Z" fill="white" stroke="#1B1B1B" stroke-width="0.7" stroke-linecap="round" stroke-linejoin="round"/>
<path d="M286.946 171.131H276.504C278.352 171.138 279.844 172.642 279.837 174.491V186.936H290.279V174.491C290.287 172.642 288.794 171.138 286.946 171.131V171.131Z" fill="white" stroke="#1B1B1B" stroke-width="0.7" stroke-linecap="round" stroke-linejoin="round"/>
<path d="M239.438 171.198H228.996C227.154 171.198 225.662 172.718 225.662 174.593V187.169H236.104V174.593C236.104 172.718 237.597 171.198 239.438 171.198Z" fill="white" stroke="#1B1B1B" stroke-width="0.7" stroke-linecap="round" stroke-linejoin="round"/>
<path d="M257.55 171.198H247.108C245.264 171.202 243.771 172.7 243.774 174.544V197.31L248.584 191.88L254.216 197.31V174.544C254.215 173.658 254.565 172.808 255.19 172.181C255.816 171.553 256.664 171.2 257.55 171.198Z" fill="white" stroke="#1B1B1B" stroke-width="0.7" stroke-linecap="round" stroke-linejoin="round"/>
<path d="M222.375 175.336L219.158 178.697" stroke="#1B1B1B" stroke-width="0.7" stroke-linecap="round" stroke-linejoin="round"/>
<path d="M283.157 230.302C281.68 231.8 280.055 233.143 278.305 234.311" stroke="#1B1B1B" stroke-width="0.7" stroke-linecap="round" stroke-linejoin="round"/>
<path d="M243.65 91.7907L243.846 91.9104L243.565 91.3292L241.58 80.6489C240.777 76.327 235.888 74.1728 232.173 76.5039L223.405 82.0042C222.379 82.6313 221.575 83.5636 221.105 84.6705C219.977 87.4253 219.284 92.6347 227.787 95.9739C239.792 100.688 244.227 94.8914 244.227 94.8914L243.65 91.7907Z" fill="#1B1B1B" stroke="#1B1B1B" stroke-width="0.7" stroke-linecap="round" stroke-linejoin="round"/>
<path d="M250.356 129.857L224.356 128.408C224.356 128.408 219.679 124.57 217.856 125.509C215.111 126.924 210.639 129.635 208.564 130.38C208.564 130.38 208.481 132.916 214.502 130.179C214.502 130.179 216.189 133.862 222.752 133.016L256.939 139.114L250.356 129.857Z" fill="white" stroke="#1B1B1B" stroke-width="0.7" stroke-linecap="round" stroke-linejoin="round"/>
<path d="M229.638 128.702C229.638 128.702 229.173 134.162 233.454 137.366L256.73 139.325C261.851 140.083 265.999 135.205 264.444 130.251L256.208 104.012C255.453 100.016 251.559 97.3148 247.399 97.9009C242.826 98.5452 239.829 102.864 240.95 107.196L246.189 127.441L229.638 128.702Z" fill="white"/>
<path fill-rule="evenodd" clip-rule="evenodd" d="M229.638 128.702C229.638 128.702 229.173 134.162 233.454 137.366L256.73 139.325C261.851 140.083 265.999 135.205 264.444 130.251L256.208 104.012C255.453 100.016 251.559 97.3148 247.399 97.9009V97.9009C242.826 98.5452 239.829 102.864 240.95 107.196L246.189 127.441L229.638 128.702Z" stroke="#1B1B1B" stroke-width="0.7" stroke-linecap="round" stroke-linejoin="round"/>
<path d="M220.616 173.465L234.648 191.008L242.431 187.742L229.972 169.29L226.215 175.343" fill="white"/>
<mask id="mask15_502_180" style="mask-type:luminance" maskUnits="userSpaceOnUse" x="220" y="169" width="23" height="23">
<path fill-rule="evenodd" clip-rule="evenodd" d="M220.616 173.465L234.648 191.008L242.431 187.742L229.972 169.29L226.215 175.343" fill="white"/>
</mask>
<g mask="url(#mask15_502_180)">
<path d="M236.785 176.966C234.269 183.969 229.982 180.305 230.299 185.679C230.617 191.053 223.443 181.445 223.443 181.445L225.747 180.061L235.527 176.376" fill="white"/>
</g>
<path d="M220.616 173.465L234.648 191.008L242.431 187.742L229.972 169.29L226.215 175.343" stroke="#1B1B1B" stroke-width="0.7" stroke-linecap="round" stroke-linejoin="round"/>
<path d="M224.788 205.644C224.788 205.644 220.079 200.246 228.285 196.888C236.21 193.645 231.423 188.786 231.423 188.786L241.144 185.626L245.198 190.247C245.759 190.886 245.559 191.721 244.708 192.291L224.788 205.644Z" fill="#1B1B1B" stroke="#1B1B1B" stroke-width="0.7" stroke-linecap="round" stroke-linejoin="round"/>
<path d="M223.228 181.761C223.228 181.761 233.174 181.186 236.544 177.024L224.274 157.902L252.469 168.647C254.6 163.664 240.118 155.127 256.075 170.017L258.481 162.879C258.798 163 259.788 165.323 260.106 165.203C263.3 163.996 260.002 164.57 261.069 160.978L266.377 152.652L262.655 151.479L219.296 141.648C213.752 139.785 207.544 140.944 204.119 144.481C201.072 147.628 200.863 152.017 203.588 155.641L223.228 181.761Z" fill="white" stroke="#1B1B1B" stroke-width="0.7" stroke-linecap="round" stroke-linejoin="round"/>
<path d="M219.218 177.432C219.218 177.432 221.566 182.266 222.719 183.348C222.719 183.348 233.395 184.345 236.614 176.76L233.355 171.851C233.355 171.851 229.374 179.683 219.218 177.432Z" fill="white" stroke="#1B1B1B" stroke-width="0.7" stroke-linecap="round" stroke-linejoin="round"/>
<path d="M212.296 177.764L228.505 199.098L235.793 193.244L221.024 170.388L218.092 179.306" fill="white"/>
<mask id="mask16_502_180" style="mask-type:luminance" maskUnits="userSpaceOnUse" x="212" y="170" width="24" height="30">
<path fill-rule="evenodd" clip-rule="evenodd" d="M212.296 177.764L228.505 199.098L235.793 193.244L221.024 170.388L218.092 179.306" fill="white"/>
</mask>
<g mask="url(#mask16_502_180)">
<path d="M228.552 180.645C226.153 186.806 220.223 186.968 222.62 192.274C225.016 197.581 216.332 192.505 216.332 192.505L216.637 184.4L224.448 182.684" fill="white"/>
</g>
<path d="M212.296 177.764L228.505 199.098L235.793 193.244L221.024 170.388L218.092 179.306" stroke="#1B1B1B" stroke-width="0.7" stroke-linecap="round" stroke-linejoin="round"/>
<path d="M220.648 220.802C220.648 220.802 215.273 214.308 222.968 208.252C230.399 202.404 225.016 196.658 225.016 196.658L234.24 190.597L238.864 196.152C239.503 196.919 239.414 198.093 238.646 199.023L220.648 220.802Z" fill="#1B1B1B" stroke="#1B1B1B" stroke-width="0.7" stroke-linecap="round" stroke-linejoin="round"/>
<path d="M215.973 188.581C215.973 188.581 225.756 185.997 228.552 179.722L213.882 155.92L253.891 171.152C256.514 172.151 259.387 172.282 262.09 171.527C267.251 170.079 271.023 165.653 271.633 160.328L273.102 147.611L254.932 141.152L251.089 140.23L206.818 134.7C201.078 133.169 195.075 135.871 192.144 141.304C189.535 146.139 189.904 152.15 193.08 156.589L215.973 188.581Z" fill="white"/>
<mask id="mask17_502_180" style="mask-type:luminance" maskUnits="userSpaceOnUse" x="190" y="134" width="84" height="55">
<path fill-rule="evenodd" clip-rule="evenodd" d="M215.973 188.581C215.973 188.581 225.756 185.997 228.552 179.722L213.882 155.92L253.891 171.152C256.514 172.151 259.387 172.282 262.09 171.527C267.251 170.079 271.023 165.653 271.633 160.328L273.102 147.611L254.932 141.152L251.089 140.23L206.818 134.7C201.078 133.169 195.075 135.87 192.144 141.304C189.535 146.139 189.904 152.15 193.08 156.589L215.973 188.581Z" fill="white"/>
</mask>
<g mask="url(#mask17_502_180)">
<path d="M226.97 134.276C254.886 146.907 268.431 145.874 268.994 154.912C269.557 163.949 258.536 174.605 241.648 166.201C224.761 157.798 268.012 180.045 268.012 180.045C268.012 180.045 286.287 165.499 287.059 164.724C287.831 163.949 288.346 149.894 287.574 148.4C286.802 146.907 277.536 140.374 277.536 140.374L275.444 137.094" fill="white"/>
</g>
<path fill-rule="evenodd" clip-rule="evenodd" d="M215.973 188.581C215.973 188.581 225.756 185.997 228.552 179.722L213.882 155.92L253.891 171.152C256.514 172.151 259.387 172.282 262.09 171.527V171.527C267.251 170.079 271.023 165.653 271.633 160.328L273.102 147.611L254.932 141.152L251.089 140.23L206.818 134.7C201.078 133.169 195.075 135.871 192.144 141.304V141.304C189.535 146.139 189.904 152.15 193.08 156.589L215.973 188.581Z" stroke="#1B1B1B" stroke-width="0.7" stroke-linecap="round" stroke-linejoin="round"/>
<path d="M239.57 89.3286L250.931 96.7653L246.03 108.112L231.392 96.0314L239.57 89.3286Z" fill="white"/>
<mask id="mask18_502_180" style="mask-type:luminance" maskUnits="userSpaceOnUse" x="231" y="89" width="20" height="20">
<path fill-rule="evenodd" clip-rule="evenodd" d="M239.57 89.3286L250.931 96.7653L246.031 108.112L231.392 96.0314L239.57 89.3286Z" fill="white"/>
</mask>
<g mask="url(#mask18_502_180)">
<path d="M238.355 94.2619C238.688 99.7417 237.823 100.858 239.364 103.126C240.905 105.395 234.704 103.027 234.704 103.027L231.808 98.6131L237.514 92.7324" fill="white"/>
</g>
<path fill-rule="evenodd" clip-rule="evenodd" d="M239.57 89.3286L250.931 96.7653L246.03 108.112L231.392 96.0314L239.57 89.3286V89.3286Z" stroke="#1B1B1B" stroke-width="0.7" stroke-linecap="round" stroke-linejoin="round"/>
<path d="M238.688 92.3222L237.528 89.9077C234.096 90.8358 227.152 91.7404 224.505 84.9807C222.514 88.6392 226.016 99.0693 230.108 101.21C231.871 102.133 236.333 99.0869 238.527 96.9778" fill="white"/>
<path d="M238.688 92.3222L237.528 89.9077C234.096 90.8358 227.152 91.7404 224.505 84.9807C222.514 88.6392 226.016 99.0693 230.108 101.21C231.871 102.133 236.333 99.0869 238.527 96.9778" stroke="#1B1B1B" stroke-width="0.7" stroke-linecap="round" stroke-linejoin="round"/>
<path d="M234.972 90.8536C236.633 83.6203 243.21 88.4097 238.215 92.7324L234.972 90.8536Z" fill="white"/>
<path d="M234.972 90.8536C236.633 83.6203 243.21 88.4097 238.215 92.7324" stroke="#1B1B1B" stroke-width="0.7" stroke-linecap="round" stroke-linejoin="round"/>
<path d="M248.643 140.309C248.643 140.309 265.555 148.467 276.888 148.145C276.888 148.145 283.998 103.372 248.059 94.2619L239.81 101.99C239.81 101.99 235.976 114.388 248.643 140.309Z" fill="white"/>
<path fill-rule="evenodd" clip-rule="evenodd" d="M248.643 140.309C248.643 140.309 265.555 148.467 276.888 148.145C276.888 148.145 283.998 103.372 248.059 94.2619L239.81 101.99C239.81 101.99 235.976 114.388 248.643 140.309Z" stroke="#1B1B1B" stroke-width="0.7" stroke-linecap="round" stroke-linejoin="round"/>
<path d="M236.297 138.729L205.393 135.087L192.026 103.31L195.662 103.698L207.617 132.117L236.67 135.541L236.297 138.729Z" fill="white"/>
<path fill-rule="evenodd" clip-rule="evenodd" d="M236.297 138.729L205.393 135.087L192.026 103.31L195.662 103.698L207.617 132.117L236.67 135.541L236.297 138.729V138.729Z" stroke="#1B1B1B" stroke-width="0.7" stroke-linecap="round" stroke-linejoin="round"/>
<path d="M254.087 131.22L228.088 129.771C228.088 129.771 223.411 125.933 221.588 126.873C218.843 128.288 214.371 130.999 212.296 131.744C212.296 131.744 212.213 134.279 218.234 131.542C218.234 131.542 219.921 135.225 226.483 134.38L260.67 140.478L254.087 131.22Z" fill="white"/>
<mask id="mask19_502_180" style="mask-type:luminance" maskUnits="userSpaceOnUse" x="212" y="126" width="49" height="15">
<path fill-rule="evenodd" clip-rule="evenodd" d="M254.087 131.22L228.088 129.771C228.088 129.771 223.411 125.933 221.588 126.873C218.843 128.288 214.371 130.999 212.296 131.744C212.296 131.744 212.213 134.279 218.234 131.542C218.234 131.542 219.921 135.225 226.483 134.38L260.67 140.478L254.087 131.22Z" fill="white"/>
</mask>
<g mask="url(#mask19_502_180)">
<path d="M234.837 128.748C232.213 128.395 234.039 133.98 232.856 135.517C231.672 137.054 235.892 136.619 235.892 136.619L235.108 131.299" fill="white"/>
<path d="M231.759 129.976C235.979 130.193 229.18 135.301 231.171 137.527C233.161 139.753 236.67 135.541 236.67 135.541L234.902 129.949" fill="white"/>
</g>
<path fill-rule="evenodd" clip-rule="evenodd" d="M254.087 131.22L228.088 129.771C228.088 129.771 223.411 125.933 221.588 126.873C218.843 128.288 214.371 130.999 212.296 131.744C212.296 131.744 212.213 134.279 218.234 131.542C218.234 131.542 219.921 135.225 226.483 134.38L260.67 140.478L254.087 131.22Z" stroke="#1B1B1B" stroke-width="0.7" stroke-linecap="round" stroke-linejoin="round"/>
<path d="M245.649 112.297L249.921 128.805L233.37 130.066C233.37 130.066 232.389 136.494 236.67 139.698L260.461 140.688C265.583 141.447 269.731 136.569 268.176 131.615L259.94 105.376" fill="white"/>
<mask id="mask20_502_180" style="mask-type:luminance" maskUnits="userSpaceOnUse" x="233" y="105" width="36" height="36">
<path fill-rule="evenodd" clip-rule="evenodd" d="M245.649 112.297L249.921 128.805L233.37 130.066C233.37 130.066 232.389 136.494 236.67 139.698L260.461 140.688C265.583 141.447 269.731 136.569 268.176 131.615L259.94 105.376" fill="white"/>
</mask>
<g mask="url(#mask20_502_180)">
<path d="M272.5 114.944L274.547 119.105L279.123 119.772L275.811 123.01L276.593 127.582L272.5 125.423L268.407 127.582L269.189 123.01L265.877 119.772L270.454 119.105L272.5 114.944Z" fill="white" stroke="#1B1B1B" stroke-width="0.7" stroke-linecap="round" stroke-linejoin="round"/>
</g>
<path d="M245.649 112.297L249.921 128.805L233.37 130.066C233.37 130.066 232.389 136.494 236.67 139.698L260.461 140.688C265.583 141.447 269.731 136.569 268.176 131.615L259.94 105.376" stroke="#1B1B1B" stroke-width="0.7" stroke-linecap="round" stroke-linejoin="round"/>
<path d="M245.569 91.1839C245.569 91.1839 240.269 98.9987 239.81 101.99L239.265 104.402L248.059 94.2618C248.059 94.2618 247.782 91.8735 245.569 91.1839Z" fill="white" stroke="#1B1B1B" stroke-width="0.7" stroke-linecap="round" stroke-linejoin="round"/>
<path d="M211.522 183.348C211.522 183.348 214.654 187.711 215.973 188.581C215.973 188.581 226.663 187.746 228.552 179.722L225.529 174.819C225.529 174.819 221.911 183.836 211.522 183.348Z" fill="white" stroke="#1B1B1B" stroke-width="0.7" stroke-linecap="round" stroke-linejoin="round"/>
<ellipse cx="240.76" cy="106.124" rx="0.4012" ry="0.4025" fill="white" stroke="#1B1B1B" stroke-width="0.7" stroke-linecap="round" stroke-linejoin="round"/>
<ellipse cx="241.776" cy="115.347" rx="0.4012" ry="0.4025" fill="white" stroke="#1B1B1B" stroke-width="0.7" stroke-linecap="round" stroke-linejoin="round"/>
<ellipse cx="243.662" cy="123.474" rx="0.4012" ry="0.4025" fill="white" stroke="#1B1B1B" stroke-width="0.7" stroke-linecap="round" stroke-linejoin="round"/>
<path d="M228.54 94.1488C228.941 94.0489 229.185 93.6435 229.086 93.2426L228.784 92.0149C228.737 91.8224 228.615 91.6565 228.446 91.5538C228.276 91.4511 228.073 91.42 227.88 91.4674C227.48 91.5673 227.236 91.9727 227.335 92.3736L227.637 93.6013C227.684 93.7938 227.805 93.9597 227.975 94.0624C228.144 94.1651 228.347 94.1962 228.54 94.1488Z" fill="#1B1B1B"/>
<path d="M226.638 89.1953C228.802 88.5562 229.513 89.3458 228.186 89.8339C226.859 90.3219 225.223 89.6129 226.638 89.1953Z" fill="#1B1B1B"/>
<path d="M226.273 93.362C224.028 95.7367 225.707 98.3099 227.393 97.1827L226.273 93.362Z" fill="white"/>
<path d="M226.273 93.362C224.028 95.7367 225.707 98.3099 227.393 97.1827" stroke="#1B1B1B" stroke-width="0.7" stroke-linecap="round" stroke-linejoin="round"/>
<ellipse opacity="0.27" cx="231.273" cy="93.9057" rx="1.70027" ry="1.25655" transform="rotate(-23.7824 231.273 93.9057)" fill="white"/>
<path d="M231.003 95.8415C230.712 96.7938 229.926 97.5122 228.951 97.7155L231.003 95.8415Z" fill="white"/>
<path d="M231.003 95.8415C230.712 96.7938 229.926 97.5122 228.951 97.7155" stroke="#1B1B1B" stroke-width="0.7" stroke-linecap="round" stroke-linejoin="round"/>
<path d="M236.804 90.092C236.838 89.8023 237.044 89.562 237.325 89.484C237.606 89.406 237.907 89.5058 238.085 89.7365C238.264 89.9672 238.285 90.2829 238.139 90.5355" stroke="#1B1B1B" stroke-width="0.7" stroke-linecap="round" stroke-linejoin="round"/>
<path d="M231.26 82.4541C231.368 83.2705 231.802 84.0081 232.464 84.4977" stroke="#1B1B1B" stroke-width="0.7" stroke-linecap="round" stroke-linejoin="round"/>
<path d="M254.546 116.736L255.52 117.713" stroke="#1B1B1B" stroke-width="0.7" stroke-linecap="round" stroke-linejoin="round"/>
<path d="M249.673 128.642C250.405 128.766 251.09 129.085 251.656 129.564" stroke="#1B1B1B" stroke-width="0.7" stroke-linecap="round" stroke-linejoin="round"/>
<path d="M214.404 156.365L212.472 154.717" stroke="#1B1B1B" stroke-width="0.7" stroke-linecap="round" stroke-linejoin="round"/>
<path d="M237.535 146.544C237.235 148.28 237.327 150.06 237.805 151.756" stroke="#1B1B1B" stroke-width="0.7" stroke-linecap="round" stroke-linejoin="round"/>
<path d="M223.077 199.44C224.034 200.354 225.344 200.802 226.66 200.666L220.561 204.418" stroke="#1B1B1B" stroke-width="0.7" stroke-linecap="round" stroke-linejoin="round"/>
</svg>
