<svg width="291" height="248" viewBox="0 0 291 248" fill="none" xmlns="http://www.w3.org/2000/svg">
<path d="M212.204 112.616C202.904 140.187 214.162 157.419 227.379 175.635C240.595 193.852 235.809 195.001 242.553 208.348C242.553 208.348 238.024 177.223 222.743 137.422C219.679 129.442 216.183 121.113 212.204 112.616Z" fill="white"/>
<mask id="mask0_502_3396" style="mask-type:luminance" maskUnits="userSpaceOnUse" x="208" y="112" width="35" height="97">
<path fill-rule="evenodd" clip-rule="evenodd" d="M212.204 112.616C202.904 140.187 214.162 157.419 227.379 175.635C240.595 193.852 235.809 195.001 242.553 208.348C242.553 208.348 238.024 177.223 222.743 137.422C219.679 129.442 216.183 121.113 212.204 112.616Z" fill="white"/>
</mask>
<g mask="url(#mask0_502_3396)">
<path d="M212.131 102.568C212.131 102.568 218.737 102.327 212.204 112.616C205.672 122.906 223.084 174 223.084 174L193.595 149.031L212.131 102.568Z" fill="white"/>
</g>
<path fill-rule="evenodd" clip-rule="evenodd" d="M212.204 112.616C202.904 140.187 214.162 157.419 227.379 175.635C240.595 193.852 235.809 195.001 242.553 208.348C242.553 208.348 238.024 177.223 222.743 137.422C219.679 129.442 216.183 121.113 212.204 112.616Z" stroke="#1B1B1B" stroke-width="0.7" stroke-linecap="round" stroke-linejoin="round"/>
<path d="M213.795 169.669C204.494 182.765 215.753 190.949 228.969 199.601C242.185 208.254 237.399 208.799 244.143 215.139C244.143 215.139 239.615 200.356 224.333 181.451C221.269 177.661 217.773 173.705 213.795 169.669Z" fill="white" stroke="#1B1B1B" stroke-width="0.7" stroke-linecap="round" stroke-linejoin="round"/>
<path d="M287.928 122.906C297.228 150.477 267.878 160.424 254.661 178.641C241.445 196.857 246.231 198.006 239.487 211.354C239.487 211.354 242.373 196.662 255.368 156.048C259.937 141.77 283.949 131.403 287.928 122.906Z" fill="white"/>
<mask id="mask1_502_3396" style="mask-type:luminance" maskUnits="userSpaceOnUse" x="239" y="122" width="51" height="90">
<path fill-rule="evenodd" clip-rule="evenodd" d="M287.928 122.906C297.228 150.477 267.878 160.424 254.661 178.641C241.445 196.857 246.231 198.006 239.487 211.354C239.487 211.354 242.372 196.662 255.368 156.048C259.937 141.77 283.949 131.403 287.928 122.906Z" fill="white"/>
</mask>
<g mask="url(#mask1_502_3396)">
<path d="M267.082 134.371C265.21 136.041 257.206 192.404 257.206 192.404L231.743 229.865L237.798 152.304L267.082 134.371Z" fill="white"/>
</g>
<path fill-rule="evenodd" clip-rule="evenodd" d="M287.928 122.906C297.228 150.477 267.878 160.424 254.661 178.641C241.445 196.857 246.231 198.006 239.487 211.354C239.487 211.354 242.373 196.662 255.368 156.048C259.937 141.77 283.949 131.403 287.928 122.906Z" stroke="#1B1B1B" stroke-width="0.7" stroke-linecap="round" stroke-linejoin="round"/>
<path d="M240.892 76.2185C252.3 104.163 252.653 133.627 245.564 163.219C238.474 192.811 244.061 192.985 242.023 213.783C242.023 213.783 239.98 209.494 238.103 148.477C237.443 127.027 239.932 89.363 240.892 76.2185Z" fill="white" stroke="#1B1B1B" stroke-width="0.7" stroke-linecap="round" stroke-linejoin="round"/>
<path d="M264.699 220.988C264.643 222.871 261.514 233.85 261.514 233.85C260.986 236.292 258.828 238.037 256.329 238.042C256.329 238.042 243.632 237.796 240.561 238.042C238.024 238.245 228.374 238.042 228.374 238.042C225.876 238.037 223.718 236.292 223.19 233.85L217.12 206.089L268.176 206.945L264.699 220.988" fill="#1B1B1B"/>
<mask id="mask2_502_3396" style="mask-type:luminance" maskUnits="userSpaceOnUse" x="217" y="206" width="52" height="33">
<path fill-rule="evenodd" clip-rule="evenodd" d="M264.699 220.988C264.643 222.871 261.514 233.85 261.514 233.85C260.986 236.292 258.828 238.037 256.329 238.042C256.329 238.042 243.632 237.796 240.561 238.042C238.024 238.245 228.374 238.042 228.374 238.042C225.876 238.037 223.718 236.292 223.19 233.85L217.12 206.089L268.176 206.945L264.699 220.988" fill="white"/>
</mask>
<g mask="url(#mask2_502_3396)">
<path d="M266.957 199.501C261.198 229.968 232.186 239.43 219.386 238.132C206.587 236.834 251.385 250.137 252.451 250.352C253.518 250.566 281.463 246.49 281.463 246.49V213.783L274.637 206.089" fill="#1B1B1B"/>
</g>
<path d="M264.699 220.988C264.643 222.871 261.514 233.85 261.514 233.85C260.986 236.292 258.828 238.037 256.329 238.042C256.329 238.042 243.632 237.796 240.561 238.042C238.024 238.245 228.374 238.042 228.374 238.042C225.876 238.037 223.718 236.292 223.19 233.85L217.12 206.089L268.176 206.945L264.699 220.988" stroke="#1B1B1B" stroke-width="0.7" stroke-linecap="round" stroke-linejoin="round"/>
<path d="M221.115 151.97C221.44 153.926 222.237 155.773 223.437 157.352" stroke="#1B1B1B" stroke-width="0.7" stroke-linecap="round" stroke-linejoin="round"/>
<path d="M242.251 114.998L243.431 121.151" stroke="#1B1B1B" stroke-width="0.7" stroke-linecap="round" stroke-linejoin="round"/>
<path d="M271.275 153.506V155.046" stroke="#1B1B1B" stroke-width="0.7" stroke-linecap="round" stroke-linejoin="round"/>
<path d="M221.911 188.915L224.167 192.024" stroke="#1B1B1B" stroke-width="0.7" stroke-linecap="round" stroke-linejoin="round"/>
<path d="M237.963 226.289C239.38 227.042 241.049 227.162 242.56 226.62" stroke="#1B1B1B" stroke-width="0.7" stroke-linecap="round" stroke-linejoin="round"/>
<rect x="72.2227" y="30.1969" width="153.632" height="209.274" rx="12.6938" fill="white"/>
<rect x="72.2227" y="30.1969" width="153.632" height="209.274" rx="12.6938" stroke="#1B1B1B" stroke-width="0.7" stroke-linecap="round" stroke-linejoin="round"/>
<rect x="87.2405" y="60.7143" width="123.596" height="160.074" rx="2.00869" fill="white" stroke="#1B1B1B" stroke-width="0.7" stroke-linecap="round" stroke-linejoin="round"/>
<rect x="84.1277" y="39.5893" width="129.822" height="168.137" rx="2.00869" fill="white" stroke="#1B1B1B" stroke-width="0.7" stroke-linecap="round" stroke-linejoin="round"/>
<path fill-rule="evenodd" clip-rule="evenodd" d="M131.93 18.2437C131.93 8.73964 139.59 1.03564 149.039 1.03564C158.487 1.03564 166.147 8.73962 166.147 18.2437C166.147 27.7466 158.487 35.4512 149.039 35.4512C139.59 35.4512 131.93 27.7466 131.93 18.2437ZM144.183 20.2665C145.003 22.2206 146.92 23.4875 149.039 23.4753C151.919 23.4668 154.248 21.1247 154.24 18.2437C154.24 16.1248 152.962 14.2151 151.004 13.407C149.045 12.5989 146.792 13.052 145.298 14.5545C143.804 16.0571 143.364 18.3124 144.183 20.2665Z" fill="white"/>
<path d="M166.147 18.2437H165.797H166.147ZM149.039 23.4753L149.037 23.1253L149.036 23.1253L149.039 23.4753ZM154.24 18.2437L153.89 18.2437L153.89 18.2447L154.24 18.2437ZM145.298 14.5545L145.546 14.8013L145.298 14.5545ZM149.039 0.685645C139.395 0.685645 131.58 8.54826 131.58 18.2437H132.28C132.28 8.93103 139.785 1.38564 149.039 1.38564V0.685645ZM166.497 18.2437C166.497 8.54824 158.683 0.685645 149.039 0.685645V1.38564C158.292 1.38564 165.797 8.93101 165.797 18.2437H166.497ZM149.039 35.8012C158.683 35.8012 166.497 27.938 166.497 18.2437H165.797C165.797 27.5553 158.292 35.1012 149.039 35.1012V35.8012ZM131.58 18.2437C131.58 27.938 139.395 35.8012 149.039 35.8012V35.1012C139.785 35.1012 132.28 27.5553 132.28 18.2437H131.58ZM149.036 23.1253C147.059 23.1367 145.271 21.9545 144.506 20.1312L143.861 20.4018C144.735 22.4866 146.78 23.8383 149.041 23.8253L149.036 23.1253ZM153.89 18.2447C153.898 20.9324 151.725 23.1174 149.037 23.1253L149.04 23.8253C152.114 23.8163 154.599 21.317 154.59 18.2428L153.89 18.2447ZM150.87 13.7305C152.698 14.4846 153.89 16.2666 153.89 18.2437L154.59 18.2438C154.59 15.9831 153.227 13.9456 151.137 13.0834L150.87 13.7305ZM145.546 14.8013C146.94 13.3993 149.042 12.9765 150.87 13.7305L151.137 13.0834C149.047 12.2213 146.644 12.7047 145.05 14.3078L145.546 14.8013ZM144.506 20.1312C143.742 18.3078 144.152 16.2034 145.546 14.8013L145.05 14.3078C143.456 15.9109 142.986 18.317 143.861 20.4018L144.506 20.1312Z" fill="#1B1B1B"/>
<path d="M171.961 19.2144H154.143C153.695 21.6817 151.546 23.4755 149.039 23.4755C146.531 23.4755 144.382 21.6817 143.934 19.2144H126.116C117.849 19.2144 111.147 25.9552 111.147 34.2702V43.3135C111.139 46.1963 113.469 48.5401 116.352 48.5486H181.725C184.608 48.5402 186.938 46.1963 186.93 43.3135V34.2702C186.93 25.9552 180.228 19.2144 171.961 19.2144Z" fill="#1B1B1B" stroke="#1B1B1B" stroke-width="0.7" stroke-linecap="round" stroke-linejoin="round"/>
<rect opacity="0.44" x="98.6891" y="61.756" width="14.4676" height="14.5516" rx="1.39504" fill="white"/>
<rect opacity="0.44" x="118.151" y="63.7547" width="72.5484" height="10.5541" rx="0.83791" fill="white"/>
<rect opacity="0.44" x="98.6891" y="87.4216" width="14.4676" height="14.5516" rx="1.39504" fill="white"/>
<rect opacity="0.44" x="118.151" y="89.4203" width="41.6229" height="10.5541" rx="0.83791" fill="white"/>
<rect opacity="0.44" x="98.6891" y="113.087" width="14.4676" height="14.5516" rx="1.39504" fill="white"/>
<rect opacity="0.44" x="118.151" y="115.086" width="72.5484" height="10.5541" rx="0.83791" fill="white"/>
<rect opacity="0.44" x="98.6891" y="138.753" width="14.4676" height="14.5516" rx="1.39504" fill="white"/>
<rect opacity="0.44" x="118.151" y="140.751" width="58.1573" height="10.5541" rx="0.83791" fill="white"/>
<rect opacity="0.44" x="98.6891" y="164.418" width="14.4676" height="14.5516" rx="1.39504" fill="white"/>
<rect opacity="0.44" x="118.151" y="166.417" width="43.6897" height="10.5541" rx="0.83791" fill="white"/>
<path d="M167.733 33.3807C165.475 35.783 162.886 37.8501 160.043 39.5191" stroke="#1B1B1B" stroke-width="0.7" stroke-linecap="round" stroke-linejoin="round"/>
<path d="M89.6052 229.543L91.9822 228.103" stroke="#1B1B1B" stroke-width="0.7" stroke-linecap="round" stroke-linejoin="round"/>
<rect x="47.1533" y="113.911" width="0.53365" height="11.8862" fill="white"/>
<mask id="mask3_502_3396" style="mask-type:luminance" maskUnits="userSpaceOnUse" x="47" y="113" width="1" height="13">
<rect x="47.1533" y="113.911" width="0.53365" height="11.8862" fill="white"/>
</mask>
<g mask="url(#mask3_502_3396)">
<path d="M45.695 116.616C44.8902 118.221 48.3406 117.18 49.5051 119.522C50.6696 121.865 49.1454 115.401 49.1454 115.401L45.1921 116.052" fill="white"/>
<path d="M45.695 116.616C44.8902 118.221 48.3406 117.18 49.5051 119.522C50.6696 121.865 49.1454 115.401 49.1454 115.401L45.1921 116.052" stroke="#1B1B1B" stroke-width="0.7" stroke-linecap="round" stroke-linejoin="round"/>
</g>
<rect x="47.1533" y="113.911" width="0.53365" height="11.8862" stroke="#1B1B1B" stroke-width="0.7" stroke-linecap="round" stroke-linejoin="round"/>
<ellipse cx="47.4202" cy="126.81" rx="1.72519" ry="1.73521" fill="white" stroke="#1B1B1B" stroke-width="0.7" stroke-linecap="round" stroke-linejoin="round"/>
<ellipse cx="47.4202" cy="126.81" rx="0.95844" ry="0.96401" fill="white" stroke="#1B1B1B" stroke-width="0.7" stroke-linecap="round" stroke-linejoin="round"/>
<path d="M6.70557 59.9463H88.1348V113.825C88.1348 115.885 86.4645 117.555 84.4042 117.555H10.4362C8.37585 117.555 6.70562 115.885 6.70562 113.825V59.9463H6.70557Z" fill="white"/>
<mask id="mask4_502_3396" style="mask-type:luminance" maskUnits="userSpaceOnUse" x="6" y="59" width="83" height="59">
<path fill-rule="evenodd" clip-rule="evenodd" d="M6.70557 59.9463H88.1348V113.825C88.1348 115.885 86.4645 117.555 84.4042 117.555H10.4362C8.37585 117.555 6.70562 115.885 6.70562 113.825V59.9463H6.70557Z" fill="white"/>
</mask>
<g mask="url(#mask4_502_3396)">
<path d="M2.14853 80.3124C-4.39611 54.7135 93.957 67.7281 88.1348 62.954C82.3125 58.1798 -7.8576 54.5674 -7.8576 54.5674L-9.23776 58.1798" fill="white"/>
</g>
<path fill-rule="evenodd" clip-rule="evenodd" d="M6.70557 59.9463H88.1348V113.825C88.1348 115.885 86.4645 117.555 84.4042 117.555H10.4362C8.37585 117.555 6.70562 115.885 6.70562 113.825V59.9463H6.70557Z" stroke="#1B1B1B" stroke-width="0.7" stroke-linecap="round" stroke-linejoin="round"/>
<rect x="1.06995" y="58.1799" width="92.7005" height="4.77414" rx="2.38017" fill="white"/>
<mask id="mask5_502_3396" style="mask-type:luminance" maskUnits="userSpaceOnUse" x="1" y="58" width="93" height="5">
<rect x="1.06995" y="58.1799" width="92.7005" height="4.77414" rx="2.38017" fill="white"/>
</mask>
<g mask="url(#mask5_502_3396)">
<path d="M-2.79701 62.954C-1.18683 60.3515 90.5066 63.5586 93.7704 60.5669C97.0343 57.5752 96.8042 66.3669 96.8042 66.3669L-13.1482 73.1288" fill="white"/>
</g>
<rect x="1.06995" y="58.1799" width="92.7005" height="4.77414" rx="2.38017" stroke="#1B1B1B" stroke-width="0.7" stroke-linecap="round" stroke-linejoin="round"/>
<path d="M32.0972 72.0293C30.2739 70.8823 28.1637 70.2734 26.0096 70.2728C19.6257 70.2728 14.4508 75.4778 14.4508 81.8987H26.0096L32.0972 72.0293Z" fill="white" stroke="#1B1B1B" stroke-width="0.7" stroke-linecap="round" stroke-linejoin="round"/>
<path d="M26.0096 81.8987H14.4508C14.4477 85.9126 16.5161 89.6439 19.9218 91.7682C21.7452 92.9152 23.8554 93.5241 26.0096 93.5247C32.3932 93.5247 37.5684 88.3197 37.5684 81.8987H26.0096Z" fill="white" stroke="#1B1B1B" stroke-width="0.7" stroke-linecap="round" stroke-linejoin="round"/>
<path d="M34.8328 70.7035L28.7451 80.573H40.3039C40.307 76.559 38.2385 72.8277 34.8328 70.7035Z" fill="white" stroke="#1B1B1B" stroke-width="0.7" stroke-linecap="round" stroke-linejoin="round"/>
<rect x="43.988" y="73.1288" width="36.4016" height="3.19331" rx="1.59204" fill="white" stroke="#1B1B1B" stroke-width="0.7" stroke-linecap="round" stroke-linejoin="round"/>
<rect x="43.988" y="80.3124" width="19.7591" height="3.19331" rx="1.59204" fill="white" stroke="#1B1B1B" stroke-width="0.7" stroke-linecap="round" stroke-linejoin="round"/>
<rect x="43.988" y="87.4961" width="30.7565" height="3.19331" rx="1.59204" fill="white" stroke="#1B1B1B" stroke-width="0.7" stroke-linecap="round" stroke-linejoin="round"/>
<rect x="13.0075" y="98.0363" width="68.8253" height="11.7054" fill="white"/>
<mask id="mask6_502_3396" style="mask-type:luminance" maskUnits="userSpaceOnUse" x="13" y="98" width="69" height="12">
<rect x="13.0075" y="98.0363" width="68.8253" height="11.7054" fill="white"/>
</mask>
<g mask="url(#mask6_502_3396)">
<path d="M-6.58694 109.722V107.387C4.41397 107.814 3.63161 104.664 13.8024 106.572C23.9731 108.48 24.9952 100.315 31.2647 103.466C37.5341 106.616 39.3597 103.909 43.0107 105.063C46.6617 106.217 50.1823 101.291 56.5717 103.466C62.961 105.64 64.9169 98.0078 71.0454 100.848C77.174 103.687 86.0408 98.9397 90.2134 101.203C94.386 103.466 99.7322 100.36 101.427 100.848V109.722L-6.58694 109.722Z" fill="white" stroke="#1B1B1B" stroke-width="0.7" stroke-linecap="round" stroke-linejoin="round"/>
<path d="M13.0075 109.742V107.985C20.0171 108.306 19.5186 105.936 25.9993 107.371C32.48 108.807 33.1312 102.664 37.1261 105.034C41.1209 107.405 42.2841 105.368 44.6105 106.236C46.9369 107.104 49.1802 103.399 53.2514 105.034C57.3226 106.67 58.5689 100.928 62.4739 103.065C66.3789 105.201 72.0287 101.629 74.6875 103.332C77.3462 105.034 80.7527 102.698 81.8328 103.065V109.742H13.0075Z" fill="white" stroke="#1B1B1B" stroke-width="0.7" stroke-linecap="round" stroke-linejoin="round"/>
</g>
<rect x="13.0075" y="98.0363" width="68.8253" height="11.7054" stroke="#1B1B1B" stroke-width="0.7" stroke-linecap="round" stroke-linejoin="round"/>
<path d="M83.7496 88.2267C82.3535 89.8162 80.6108 91.0636 78.6559 91.8724" stroke="#1B1B1B" stroke-width="0.7" stroke-linecap="round" stroke-linejoin="round"/>
<path d="M24.8807 88.5882L25.9708 89.6846" stroke="#1B1B1B" stroke-width="0.7" stroke-linecap="round" stroke-linejoin="round"/>
<rect x="154.839" y="129.515" width="92.0651" height="58.426" rx="4.82828" fill="white"/>
<rect x="154.839" y="129.515" width="92.0651" height="58.426" rx="4.82828" stroke="#1B1B1B" stroke-width="0.7" stroke-linecap="round" stroke-linejoin="round"/>
<rect x="163.304" y="135.718" width="22.9249" height="3.1234" rx="1.55718" fill="#1B1B1B" stroke="#1B1B1B" stroke-width="0.7" stroke-linecap="round" stroke-linejoin="round"/>
<rect x="188.238" y="135.718" width="10.2295" height="3.1234" rx="1.55718" fill="white" stroke="#1B1B1B" stroke-width="0.7" stroke-linecap="round" stroke-linejoin="round"/>
<rect x="163.15" y="149.076" width="4.47931" height="32.3424" rx="2.23966" fill="white" stroke="#1B1B1B" stroke-width="0.7" stroke-linecap="round" stroke-linejoin="round"/>
<rect x="163.15" y="159.924" width="4.47931" height="21.4945" rx="2.23966" fill="white" stroke="#1B1B1B" stroke-width="0.7" stroke-linecap="round" stroke-linejoin="round"/>
<path d="M185.861 149.076C187.098 149.076 188.101 150.079 188.101 151.316V179.179C188.101 180.416 187.098 181.419 185.861 181.419C184.624 181.419 183.621 180.416 183.621 179.179V151.316C183.621 150.079 184.624 149.076 185.861 149.076H185.861Z" fill="white" stroke="#1B1B1B" stroke-width="0.7" stroke-linecap="round" stroke-linejoin="round"/>
<rect x="183.621" y="155.011" width="4.47931" height="26.4073" rx="2.23965" fill="white" stroke="#1B1B1B" stroke-width="0.7" stroke-linecap="round" stroke-linejoin="round"/>
<path d="M175.625 149.076C176.862 149.076 177.865 150.079 177.865 151.316V179.179C177.865 180.416 176.862 181.419 175.625 181.419C174.388 181.419 173.386 180.416 173.386 179.179V151.316C173.386 150.079 174.388 149.076 175.625 149.076H175.625Z" fill="white" stroke="#1B1B1B" stroke-width="0.7" stroke-linecap="round" stroke-linejoin="round"/>
<path d="M175.625 165.079C176.862 165.079 177.865 166.082 177.865 167.319V179.179C177.865 180.416 176.862 181.419 175.625 181.419C174.388 181.419 173.386 180.416 173.386 179.179V167.319C173.386 166.082 174.388 165.079 175.625 165.079L175.625 165.079Z" fill="white" stroke="#1B1B1B" stroke-width="0.7" stroke-linecap="round" stroke-linejoin="round"/>
<rect x="193.857" y="149.076" width="4.47931" height="32.3424" rx="2.23965" fill="white" stroke="#1B1B1B" stroke-width="0.7" stroke-linecap="round" stroke-linejoin="round"/>
<rect x="193.857" y="162.995" width="4.47931" height="18.424" rx="2.23965" fill="white" stroke="#1B1B1B" stroke-width="0.7" stroke-linecap="round" stroke-linejoin="round"/>
<path d="M206.332 149.076C207.569 149.076 208.571 150.079 208.571 151.316V179.179C208.571 180.416 207.569 181.419 206.332 181.419C205.095 181.419 204.092 180.416 204.092 179.179V151.316C204.092 150.722 204.328 150.152 204.748 149.732C205.168 149.312 205.738 149.076 206.332 149.076Z" fill="white" stroke="#1B1B1B" stroke-width="0.7" stroke-linecap="round" stroke-linejoin="round"/>
<rect x="204.092" y="170.671" width="4.47931" height="10.7473" rx="2.23965" fill="white" stroke="#1B1B1B" stroke-width="0.7" stroke-linecap="round" stroke-linejoin="round"/>
<path d="M226.803 149.076C228.04 149.076 229.042 150.079 229.042 151.316V179.179C229.042 180.416 228.04 181.419 226.803 181.419C225.566 181.419 224.563 180.416 224.563 179.179V151.316C224.563 150.079 225.566 149.076 226.803 149.076Z" fill="white" stroke="#1B1B1B" stroke-width="0.7" stroke-linecap="round" stroke-linejoin="round"/>
<path d="M226.803 162.995C228.04 162.995 229.042 163.997 229.042 165.234V179.179C229.042 180.416 228.04 181.419 226.803 181.419C225.566 181.419 224.563 180.416 224.563 179.179V165.234C224.563 164.64 224.799 164.071 225.219 163.651C225.639 163.231 226.209 162.995 226.803 162.995V162.995Z" fill="white" stroke="#1B1B1B" stroke-width="0.7" stroke-linecap="round" stroke-linejoin="round"/>
<path d="M216.567 149.076C217.804 149.076 218.807 150.079 218.807 151.316V179.179C218.807 180.416 217.804 181.419 216.567 181.419C215.33 181.419 214.328 180.416 214.328 179.179V151.316C214.328 150.079 215.33 149.076 216.567 149.076H216.567Z" fill="white" stroke="#1B1B1B" stroke-width="0.7" stroke-linecap="round" stroke-linejoin="round"/>
<path d="M216.567 168.119C217.804 168.119 218.807 169.121 218.807 170.358V179.179C218.807 180.416 217.804 181.419 216.567 181.419C215.33 181.419 214.328 180.416 214.328 179.179V170.358C214.328 169.121 215.33 168.119 216.567 168.119V168.119Z" fill="white" stroke="#1B1B1B" stroke-width="0.7" stroke-linecap="round" stroke-linejoin="round"/>
<path d="M237.038 149.076C238.275 149.076 239.278 150.079 239.278 151.316V179.179C239.278 180.416 238.275 181.419 237.038 181.419C235.801 181.419 234.799 180.416 234.799 179.179V151.316C234.799 150.079 235.801 149.076 237.038 149.076L237.038 149.076Z" fill="white" stroke="#1B1B1B" stroke-width="0.7" stroke-linecap="round" stroke-linejoin="round"/>
<path d="M237.038 172.671C238.275 172.671 239.278 173.673 239.278 174.91V179.179C239.278 180.416 238.275 181.419 237.038 181.419C235.801 181.419 234.799 180.416 234.799 179.179V174.91C234.799 174.316 235.035 173.747 235.455 173.327C235.875 172.907 236.444 172.671 237.038 172.671Z" fill="white" stroke="#1B1B1B" stroke-width="0.7" stroke-linecap="round" stroke-linejoin="round"/>
<path d="M225.861 138.551C226.678 139.517 227.357 140.591 227.881 141.743" stroke="#1B1B1B" stroke-width="0.7" stroke-linecap="round" stroke-linejoin="round"/>
<path d="M176.807 171.346L178.538 173.668" stroke="#1B1B1B" stroke-width="0.7" stroke-linecap="round" stroke-linejoin="round"/>
<path d="M98.7056 183.572L115.231 174.993C126.652 182.55 133.622 241.292 133.622 241.292L107.075 227.332L98.7056 183.572Z" fill="#1B1B1B"/>
<path fill-rule="evenodd" clip-rule="evenodd" d="M98.7056 183.572L115.231 174.993C126.652 182.55 133.622 241.292 133.622 241.292L107.075 227.332L98.7056 183.572Z" stroke="#1B1B1B" stroke-width="0.7" stroke-linecap="round" stroke-linejoin="round"/>
<path d="M115.336 198.319C114.721 209.682 113.473 224.747 110.97 242.25L53.2898 238.526L30.1188 194.241L30.2087 173.627C30.2087 173.627 70.0304 137.281 115.875 175.525" fill="#1B1B1B"/>
<mask id="mask7_502_3396" style="mask-type:luminance" maskUnits="userSpaceOnUse" x="30" y="158" width="86" height="85">
<path fill-rule="evenodd" clip-rule="evenodd" d="M115.336 198.319C114.721 209.682 113.473 224.747 110.97 242.25L53.2898 238.526L30.1188 194.241L30.2087 173.627C30.2087 173.627 70.0304 137.281 115.875 175.525" fill="white"/>
</mask>
<g mask="url(#mask7_502_3396)">
<path d="M42.6891 195.747C59.84 185.355 46.4038 224.551 63.3932 219.589C80.3826 214.628 82.3818 227.477 82.3818 227.477L60.2686 251.473L20.4227 235.072L33.7601 206.908" fill="#1B1B1B"/>
</g>
<path d="M115.336 198.319C114.721 209.682 113.473 224.747 110.97 242.25L53.2898 238.526L30.1188 194.241L30.2087 173.627C30.2087 173.627 70.0304 137.281 115.875 175.525" stroke="#1B1B1B" stroke-width="0.7" stroke-linecap="round" stroke-linejoin="round"/>
<path d="M68.2638 158.599L73.0698 140.107L86.791 144.587V160.162L87.2381 166.132L85.4435 169.779L81.6749 169.204L73.7858 168.506" fill="white"/>
<mask id="mask8_502_3396" style="mask-type:luminance" maskUnits="userSpaceOnUse" x="68" y="140" width="20" height="30">
<path fill-rule="evenodd" clip-rule="evenodd" d="M68.2638 158.599L73.0698 140.107L86.791 144.587V160.162L87.2381 166.132L85.4435 169.779L81.6749 169.204L73.7858 168.506" fill="white"/>
</mask>
<g mask="url(#mask8_502_3396)">
<path d="M91.0352 163.386C73.7247 159.974 88.7877 155.975 82.6205 153.055C80.9239 152.251 83.6244 143.905 83.6244 143.905L88.3277 146.999" fill="white"/>
</g>
<path d="M68.2638 158.599L73.0698 140.107L86.791 144.587V160.162L87.2381 166.132L85.4435 169.779L81.6749 169.204L73.7858 168.506" stroke="#1B1B1B" stroke-width="0.7" stroke-linecap="round" stroke-linejoin="round"/>
<path d="M76.3144 139.544L81.1397 128.045L94.7024 117.355C96.7346 129.705 108.947 164.387 82.0295 151.037" fill="white"/>
<path d="M76.3144 139.544L81.1397 128.045L94.7024 117.355C96.7346 129.705 108.947 164.387 82.0295 151.037" stroke="#1B1B1B" stroke-width="0.7" stroke-linecap="round" stroke-linejoin="round"/>
<path d="M74.477 140.311C79.5736 142.344 86.6082 132.166 83.6043 128.883C83.6043 128.883 92.1903 132.352 98.2395 127.315C118.759 129.977 117.403 104.618 99.4045 111.874C90.0351 106.688 79.6078 111.809 80.0625 117.611C73.0137 111.346 59.2934 134.255 74.477 140.311Z" fill="#1B1B1B" stroke="#1B1B1B" stroke-width="0.7" stroke-linecap="round" stroke-linejoin="round"/>
<path d="M73.5931 145.806C64.409 138.01 71.2816 126.35 81.7705 140.451L73.5931 145.806Z" fill="white"/>
<path d="M73.5931 145.806C64.409 138.01 71.2816 126.35 81.7705 140.451" stroke="#1B1B1B" stroke-width="0.7" stroke-linecap="round" stroke-linejoin="round"/>
<path d="M93.6465 137.289C93.3235 137.393 92.9725 137.364 92.671 137.208C92.3695 137.053 92.1425 136.783 92.0401 136.46L91.3796 134.396C91.1628 133.722 91.5312 133 92.2037 132.78C92.5267 132.676 92.8777 132.705 93.1792 132.861C93.4807 133.016 93.7077 133.285 93.8101 133.609L94.4706 135.673C94.6874 136.347 94.319 137.069 93.6465 137.289Z" fill="#1B1B1B"/>
<path d="M91.9769 128.341C88.2537 129.365 87.9263 131.16 90.2953 130.673C92.6643 130.185 94.4095 127.672 91.9769 128.341Z" fill="#1B1B1B"/>
<path d="M96.2404 134.092C101.636 135.527 101.498 140.8 98.0348 140.679L96.2404 134.092Z" fill="white"/>
<path d="M96.2404 134.092C101.636 135.527 101.498 140.8 98.0348 140.679" stroke="#1B1B1B" stroke-width="0.7" stroke-linecap="round" stroke-linejoin="round"/>
<ellipse opacity="0.27" cx="89.4504" cy="139.405" rx="2.9075" ry="2.15596" transform="rotate(-8.3081 89.4504 139.405)" fill="white"/>
<path d="M91.5785 141.986C93.8599 143.907 96.2439 142.865 96.2439 142.865L91.5785 141.986Z" fill="white"/>
<path d="M91.5785 141.986C93.8599 143.907 96.2439 142.865 96.2439 142.865" stroke="#1B1B1B" stroke-width="0.7" stroke-linecap="round" stroke-linejoin="round"/>
<path d="M88.3376 177.662L81.6749 169.204C81.6749 169.204 87.0976 167.605 87.4679 156.845L92.8013 161.336L88.3376 177.662Z" fill="white" stroke="#1B1B1B" stroke-width="0.7" stroke-linecap="round" stroke-linejoin="round"/>
<path d="M61.2001 159.054C63.9905 154.194 69.4859 153.275 69.4859 153.275C69.4859 153.275 68.0811 165.123 81.6749 169.204L74.5341 178.988C74.5341 178.988 62.0617 167.077 61.2001 159.054Z" fill="white" stroke="#1B1B1B" stroke-width="0.7" stroke-linecap="round" stroke-linejoin="round"/>
<path d="M31.3811 172.639C21.0094 180.562 6.73414 222.54 16.2248 242.25L46.7486 228.959C46.7486 228.959 44.2124 235.542 44.2524 234.509C44.4417 229.627 47.4281 204.567 45.3263 193.166" fill="#1B1B1B"/>
<path d="M31.3811 172.639C21.0094 180.562 6.73414 222.54 16.2248 242.25L46.7486 228.959C46.7486 228.959 44.2124 235.542 44.2524 234.509C44.4417 229.627 47.4281 204.567 45.3263 193.166" stroke="#1B1B1B" stroke-width="0.7" stroke-linecap="round" stroke-linejoin="round"/>
<path d="M74.2552 225.102C74.2552 225.102 93.7616 222.902 95.8291 223.173C97.8966 223.444 105.809 221.725 106.315 221.49C110.784 219.417 105.217 226.645 98.346 226.518C98.346 226.518 104.704 230.546 104.754 231.722C104.804 232.897 103.995 232.897 103.995 232.897C103.995 232.897 104.534 234.163 103.575 234.886C100.279 233.138 95.9489 231.732 95.4695 232.335C94.9901 232.938 85.7688 236.453 78.0381 234.886C70.3075 233.319 74.2552 225.102 74.2552 225.102Z" fill="white"/>
<mask id="mask9_502_3396" style="mask-type:luminance" maskUnits="userSpaceOnUse" x="73" y="221" width="35" height="15">
<path fill-rule="evenodd" clip-rule="evenodd" d="M74.2552 225.102C74.2552 225.102 93.7616 222.902 95.8291 223.173C97.8966 223.444 105.809 221.725 106.315 221.49C110.784 219.417 105.217 226.645 98.346 226.518C98.346 226.518 104.704 230.546 104.754 231.722C104.804 232.897 103.995 232.897 103.995 232.897C103.995 232.897 104.534 234.163 103.575 234.886C100.279 233.138 95.9489 231.732 95.4695 232.335C94.9901 232.938 85.7688 236.453 78.0381 234.886C70.3075 233.319 74.2552 225.102 74.2552 225.102Z" fill="white"/>
</mask>
<g mask="url(#mask9_502_3396)">
<path d="M78.699 225.102C82.2047 223.294 84.6318 234.324 85.261 237.85C85.8902 241.376 76.991 238.121 76.991 238.121" fill="white"/>
</g>
<path fill-rule="evenodd" clip-rule="evenodd" d="M74.2552 225.102C74.2552 225.102 93.7616 222.902 95.8291 223.173C97.8966 223.444 105.809 221.725 106.315 221.49C110.784 219.417 105.217 226.645 98.346 226.518C98.346 226.518 104.704 230.546 104.754 231.722C104.804 232.897 103.995 232.897 103.995 232.897C103.995 232.897 104.534 234.163 103.575 234.886C100.279 233.138 95.9489 231.732 95.4695 232.335C94.9901 232.938 85.7688 236.453 78.0381 234.886C70.3075 233.319 74.2552 225.102 74.2552 225.102Z" stroke="#1B1B1B" stroke-width="0.7" stroke-linecap="round" stroke-linejoin="round"/>
<ellipse cx="81.9809" cy="180.562" rx="1.56456" ry="1.57364" fill="white" stroke="#1B1B1B" stroke-width="0.7" stroke-linecap="round" stroke-linejoin="round"/>
<ellipse cx="81.9809" cy="193.009" rx="1.56456" ry="1.57364" fill="white" stroke="#1B1B1B" stroke-width="0.7" stroke-linecap="round" stroke-linejoin="round"/>
<rect x="56.1525" y="238.526" width="50.604" height="3.6924" fill="white" stroke="#1B1B1B" stroke-width="0.7" stroke-linecap="round" stroke-linejoin="round"/>
<path d="M165.803 242.222H99.0652L110.865 190.382C111.138 189.172 112.21 188.312 113.45 188.31H175.055C175.79 188.313 176.484 188.65 176.94 189.226C177.397 189.802 177.566 190.554 177.401 191.27L165.803 242.222Z" fill="white" stroke="#1B1B1B" stroke-width="0.7" stroke-linecap="round" stroke-linejoin="round"/>
<path d="M167.734 242.222H100.997L112.797 190.382C113.069 189.172 114.142 188.312 115.382 188.31H176.987C177.722 188.313 178.415 188.65 178.872 189.226C179.328 189.802 179.498 190.554 179.332 191.27L167.734 242.222Z" fill="white"/>
<path fill-rule="evenodd" clip-rule="evenodd" d="M167.734 242.222H100.997L112.797 190.382C113.069 189.172 114.142 188.312 115.382 188.31H176.987C177.722 188.313 178.415 188.65 178.872 189.226C179.328 189.802 179.498 190.554 179.332 191.27L167.734 242.222Z" stroke="#1B1B1B" stroke-width="0.7" stroke-linecap="round" stroke-linejoin="round"/>
<path d="M39.6013 223.421C58.0455 221.686 80.0083 224.258 80.0083 224.258C82.705 230.768 82.1656 240.171 82.1656 240.171C82.1656 240.171 22.2967 254.863 16.2248 242.25C15.5863 240.924 14.6419 238.379 14.4173 237.222" fill="#1B1B1B"/>
<path d="M39.6013 223.421C58.0455 221.686 80.0083 224.258 80.0083 224.258C82.705 230.768 82.1656 240.171 82.1656 240.171C82.1656 240.171 22.2967 254.863 16.2248 242.25C15.5863 240.924 14.6419 238.379 14.4173 237.222" stroke="#1B1B1B" stroke-width="0.7" stroke-linecap="round" stroke-linejoin="round"/>
<path d="M72.4782 223.085C72.4782 223.085 77.0822 233.249 74.3757 241.88L82.2401 240.72C82.2401 240.72 83.2235 230.01 80.0083 224.258L72.4782 223.085Z" fill="white" stroke="#1B1B1B" stroke-width="0.7" stroke-linecap="round" stroke-linejoin="round"/>
<ellipse cx="143.611" cy="212.534" rx="6.96629" ry="5.49386" transform="rotate(-44.5194 143.611 212.534)" fill="white" stroke="#1B1B1B" stroke-width="0.7" stroke-linecap="round" stroke-linejoin="round"/>
<rect x="91.5615" y="190.089" width="14.7115" height="2.91949" fill="white" stroke="#1B1B1B" stroke-width="0.7" stroke-linecap="round" stroke-linejoin="round"/>
<path d="M237.939 135.555L238.411 136.275" stroke="#1B1B1B" stroke-width="0.7" stroke-linecap="round" stroke-linejoin="round"/>
<path d="M238.666 185.089L239.382 187.243" stroke="#1B1B1B" stroke-width="0.7" stroke-linecap="round" stroke-linejoin="round"/>
<path d="M255.462 98.4737C255.253 98.609 255.176 98.8768 255.281 99.102C255.399 99.3199 255.66 99.4165 255.891 99.3278" stroke="#1B1B1B" stroke-width="0.7" stroke-linecap="round" stroke-linejoin="round"/>
</svg>
