<svg width="45" height="45" viewBox="0 0 45 45" fill="none" xmlns="http://www.w3.org/2000/svg">
<path d="M20.0817 22.1892V30.7398C20.0817 31.2559 20.5118 31.686 21.028 31.686H24.3312C24.8473 31.686 25.2774 31.2559 25.2774 30.7398V26.0602C25.2774 25.9398 25.243 25.8366 25.1398 25.7333L24.3312 24.9075C24.1247 24.7527 24.1247 24.4602 24.3312 24.2538L25.1398 23.428C25.2086 23.3419 25.2774 23.2387 25.2774 23.1011V14.5505C25.2774 14.0344 24.8473 13.6043 24.3312 13.6043H21.028C20.5118 13.6043 20.0817 14.0344 20.0817 14.5505V19.2301C20.0817 19.3505 20.1161 19.4538 20.2194 19.557L21.028 20.3828C21.2344 20.5376 21.2344 20.8301 21.028 21.0366L20.2194 21.8624C20.1505 21.9484 20.0817 22.0516 20.0817 22.1892ZM22.6727 7.53677C13.7953 7.53677 7.56946 13.7282 7.56946 22.64C7.56946 31.5174 13.7609 37.7604 22.6727 37.7604C31.5501 37.7604 37.7931 31.5518 37.7931 22.64C37.7931 13.7282 31.5501 7.53677 22.6727 7.53677ZM34.8998 22.6503C34.8998 29.4116 29.4116 34.8998 22.6503 34.8998C15.8718 34.8998 10.3837 29.4116 10.3837 22.6503C10.3837 15.8718 15.8718 10.3837 22.6503 10.3837C29.4116 10.3837 34.8998 15.8718 34.8998 22.6503ZM22.6452 44.2903C34.0516 45.2903 45.2903 34.0516 44.2903 22.6452C45.2903 11.2387 35.0516 -3.80725e-06 22.6452 0.999996C11.2387 -3.80725e-06 -3.80725e-06 11.2387 0.999996 22.6452C-3.80725e-06 34.0516 11.2387 45.2903 22.6452 44.2903ZM3.3144 22.652C3.3144 11.9682 11.9682 3.3144 22.652 3.3144C33.3359 3.3144 41.9725 11.9682 41.9725 22.652C41.9725 33.3359 33.3359 41.9725 22.652 41.9725C11.9682 41.9725 3.3144 33.3359 3.3144 22.652Z" fill="black"/>
</svg>
