<svg width="42" height="42" viewBox="0 0 42 42" fill="none" xmlns="http://www.w3.org/2000/svg">
<path d="M18.0817 20.1892V28.7398C18.0817 29.2559 18.5118 29.686 19.028 29.686H22.3312C22.8473 29.686 23.2774 29.2559 23.2774 28.7398V24.0602C23.2774 23.9398 23.243 23.8366 23.1398 23.7333L22.3312 22.9075C22.1247 22.7527 22.1247 22.4602 22.3312 22.2538L23.1398 21.428C23.2086 21.3419 23.2774 21.2387 23.2774 21.1011V12.5505C23.2774 12.0344 22.8473 11.6043 22.3312 11.6043H19.028C18.5118 11.6043 18.0817 12.0344 18.0817 12.5505V17.2301C18.0817 17.3505 18.1161 17.4538 18.2194 17.557L19.028 18.3828C19.2344 18.5376 19.2344 18.8301 19.028 19.0366L18.2194 19.8624C18.1505 19.9484 18.0817 20.0516 18.0817 20.1892ZM20.6727 4.53677C11.7953 4.53677 4.56946 11.7282 4.56946 20.64C4.56946 29.5174 11.7609 36.7604 20.6727 36.7604C29.5501 36.7604 36.7931 29.5518 36.7931 20.64C36.7931 11.7282 29.5501 4.53677 20.6727 4.53677ZM32.8998 20.6503C32.8998 27.4116 27.4116 32.8998 20.6503 32.8998C13.8718 32.8998 8.38366 27.4116 8.38366 20.6503C8.38366 13.8718 13.8718 8.38366 20.6503 8.38366C27.4116 8.38366 32.8998 13.8718 32.8998 20.6503ZM20.6452 41.2903C32.0516 41.2903 41.2903 32.0516 41.2903 20.6452C41.2903 9.23871 32.0516 0 20.6452 0C9.23871 0 0 9.23871 0 20.6452C0 32.0516 9.23871 41.2903 20.6452 41.2903ZM1.31441 20.652C1.31441 9.96817 9.96817 1.31441 20.652 1.31441C31.3359 1.31441 39.9725 9.96817 39.9725 20.652C39.9725 31.3359 31.3359 39.9725 20.652 39.9725C9.96817 39.9725 1.31441 31.3359 1.31441 20.652Z" fill="black"/>
</svg>
