<svg width="316" height="187" viewBox="0 0 316 187" fill="none" xmlns="http://www.w3.org/2000/svg">
<path d="M207.486 82.0006L198.378 69.4111C196.428 66.7096 193.299 65.1083 189.967 65.1059H152.407C146.808 65.1059 142.269 69.6686 142.269 75.2971V156.007H272.703V92.1918C272.703 86.5634 268.164 82.0006 262.565 82.0006H207.486Z" fill="white" stroke="#1B1B1B" stroke-width="0.7" stroke-linecap="round" stroke-linejoin="round"/>
<rect x="150.189" y="85.0041" width="112.531" height="27.5457" rx="4.97338" fill="white" stroke="#1B1B1B" stroke-width="0.7" stroke-linecap="round" stroke-linejoin="round"/>
<path d="M150.546 92.8354H264.426C268.997 92.8354 272.703 96.5412 272.703 101.113V172.423C272.703 178.671 267.638 183.736 261.39 183.736H153.582C150.582 183.736 147.704 182.544 145.582 180.423C143.461 178.301 142.269 175.424 142.269 172.423V101.113C142.269 98.9173 143.141 96.812 144.693 95.2597C146.246 93.7074 148.351 92.8354 150.546 92.8354Z" fill="white"/>
<path fill-rule="evenodd" clip-rule="evenodd" d="M150.546 92.8354H264.426C268.997 92.8354 272.703 96.5412 272.703 101.113V172.423C272.703 178.671 267.638 183.736 261.39 183.736H153.582C150.582 183.736 147.704 182.544 145.582 180.423C143.461 178.301 142.269 175.424 142.269 172.423V101.113C142.269 98.9173 143.141 96.812 144.693 95.2597C146.246 93.7074 148.351 92.8354 150.546 92.8354Z" stroke="#1B1B1B" stroke-width="0.7" stroke-linecap="round" stroke-linejoin="round"/>
<rect x="154.015" y="111.045" width="49.8718" height="7.71281" fill="white"/>
<rect x="155.348" y="129.922" width="30.1423" height="18.1802" fill="white"/>
<path d="M246.872 152.481C244.558 154.4 241.933 155.909 239.109 156.94" stroke="#1B1B1B" stroke-width="0.7" stroke-linecap="round" stroke-linejoin="round"/>
<path d="M191.103 105.568L193.581 103.13" stroke="#1B1B1B" stroke-width="0.7" stroke-linecap="round" stroke-linejoin="round"/>
<path d="M67.758 1.03066H67.7579C60.5484 1.03066 54.7039 6.90575 54.7039 14.1531V83.2037H80.8119V14.153C80.812 6.90575 74.9675 1.03066 67.758 1.03066Z" fill="#1B1B1B"/>
<mask id="mask0_502_3034" style="mask-type:luminance" maskUnits="userSpaceOnUse" x="54" y="1" width="27" height="83">
<path fill-rule="evenodd" clip-rule="evenodd" d="M67.758 1.03066H67.7579C60.5484 1.03066 54.7039 6.90575 54.7039 14.1531V83.2037H80.8119V14.153C80.812 6.90575 74.9675 1.03066 67.758 1.03066Z" fill="white"/>
</mask>
<g mask="url(#mask0_502_3034)">
<path d="M32.3865 1.41291C101.328 -12.6979 84.6152 102.106 84.6152 102.106L101.328 -12.6979L80.812 -23.8985" fill="#1B1B1B"/>
</g>
<path fill-rule="evenodd" clip-rule="evenodd" d="M67.758 1.03066H67.7579C60.5484 1.03066 54.7039 6.90575 54.7039 14.1531V83.2037H80.8119V14.153C80.812 6.90575 74.9675 1.03066 67.758 1.03066Z" stroke="#1B1B1B" stroke-width="0.7" stroke-linecap="round" stroke-linejoin="round"/>
<path d="M200.12 1.03073H103.547V1.03064H67.758C74.9675 1.03064 80.812 6.90574 80.812 14.153V23.8757V183.524H213.174V14.153C213.174 6.90574 207.329 1.03073 200.12 1.03073Z" fill="#1B1B1B"/>
<mask id="mask1_502_3034" style="mask-type:luminance" maskUnits="userSpaceOnUse" x="67" y="1" width="147" height="183">
<path fill-rule="evenodd" clip-rule="evenodd" d="M200.12 1.03073H103.547V1.03064H67.758C74.9675 1.03064 80.812 6.90574 80.812 14.153V23.8757V183.524H213.174V14.153C213.174 6.90574 207.329 1.03073 200.12 1.03073Z" fill="white"/>
</mask>
<g mask="url(#mask1_502_3034)">
<path d="M213.174 98.8474C222.499 206.179 76.2586 172.578 76.2586 172.578L60.4739 208.046L228.534 217.38L232.713 129.726" fill="#1B1B1B"/>
</g>
<path fill-rule="evenodd" clip-rule="evenodd" d="M200.12 1.03073H103.547V1.03064H67.758C74.9675 1.03064 80.812 6.90574 80.812 14.153V23.8757V23.8757V183.524H213.174V14.153C213.174 6.90574 207.329 1.03073 200.12 1.03073Z" stroke="#1B1B1B" stroke-width="0.7" stroke-linecap="round" stroke-linejoin="round"/>
<path d="M93.866 183.524C93.0792 183.524 94.6144 183.658 93.866 183.524V183.524Z" fill="#1B1B1B" stroke="#1B1B1B" stroke-width="0.7" stroke-linecap="round" stroke-linejoin="round"/>
<g opacity="0.73">
<path fill-rule="evenodd" clip-rule="evenodd" d="M93.8844 60.8495C93.8844 55.3255 98.3391 50.8473 103.834 50.8473C109.33 50.8473 113.784 55.3254 113.784 60.8495C113.784 66.3737 109.33 70.8518 103.834 70.8518C98.3391 70.8518 93.8844 66.3736 93.8844 60.8495ZM99.4472 62.6767C100.187 64.4432 101.919 65.5891 103.834 65.5791C105.085 65.5758 106.284 65.0757 107.166 64.1887C108.049 63.3018 108.543 62.1006 108.539 60.8495C108.539 58.9344 107.384 57.2082 105.614 56.4776C103.843 55.7471 101.807 56.1563 100.457 57.514C99.1059 58.8718 98.7073 60.9102 99.4472 62.6767Z" fill="white"/>
<path d="M103.834 65.5791L103.833 65.2291L103.833 65.2291L103.834 65.5791ZM99.4472 62.6767L99.1244 62.8119L99.4472 62.6767ZM107.166 64.1887L107.414 64.4356L107.166 64.1887ZM108.539 60.8495L108.189 60.8495L108.189 60.8505L108.539 60.8495ZM105.614 56.4776L105.48 56.8012L105.614 56.4776ZM103.834 50.4973C98.1441 50.4973 93.5344 55.1339 93.5344 60.8495H94.2344C94.2344 55.5171 98.5341 51.1973 103.834 51.1973V50.4973ZM114.134 60.8495C114.134 55.1338 109.525 50.4973 103.834 50.4973V51.1973C109.135 51.1973 113.434 55.517 113.434 60.8495H114.134ZM103.834 71.2018C109.525 71.2018 114.134 66.5652 114.134 60.8495H113.434C113.434 66.1821 109.135 70.5018 103.834 70.5018V71.2018ZM93.5344 60.8495C93.5344 66.5651 98.1441 71.2018 103.834 71.2018V70.5018C98.5341 70.5018 94.2344 66.182 94.2344 60.8495H93.5344ZM103.833 65.2291C102.059 65.2384 100.455 64.1773 99.77 62.5415L99.1244 62.8119C99.919 64.7091 101.779 65.9399 103.836 65.9291L103.833 65.2291ZM106.918 63.9419C106.101 64.763 104.992 65.2261 103.833 65.2291L103.835 65.9291C105.179 65.9256 106.467 65.3883 107.414 64.4356L106.918 63.9419ZM108.189 60.8505C108.192 62.0087 107.735 63.1207 106.918 63.9419L107.414 64.4356C108.362 63.4828 108.893 62.1925 108.889 60.8486L108.189 60.8505ZM105.48 56.8012C107.12 57.4777 108.189 59.0761 108.189 60.8495L108.889 60.8495C108.889 58.7926 107.649 56.9387 105.747 56.1541L105.48 56.8012ZM100.705 57.7609C101.955 56.5036 103.841 56.1247 105.48 56.8012L105.747 56.1541C103.846 55.3695 101.659 55.8089 100.208 57.2672L100.705 57.7609ZM99.77 62.5415C99.0849 60.9057 99.4539 59.0182 100.705 57.7609L100.208 57.2672C98.7578 58.7255 98.3298 60.9147 99.1244 62.8119L99.77 62.5415Z" fill="#1B1B1B"/>
<rect x="118.483" y="53.8824" width="82.6409" height="5.5806" rx="2.74095" fill="white" stroke="#1B1B1B" stroke-width="0.7" stroke-linecap="round" stroke-linejoin="round"/>
<rect x="118.483" y="62.3205" width="30.2108" height="5.49625" rx="2.74095" fill="white" stroke="#1B1B1B" stroke-width="0.7" stroke-linecap="round" stroke-linejoin="round"/>
<rect x="152.019" y="62.3205" width="30.2108" height="5.49625" rx="2.74095" fill="white" stroke="#1B1B1B" stroke-width="0.7" stroke-linecap="round" stroke-linejoin="round"/>
</g>
<g opacity="0.73">
<path fill-rule="evenodd" clip-rule="evenodd" d="M93.8844 133.903C93.8844 128.379 98.3391 123.901 103.834 123.901C109.33 123.901 113.784 128.379 113.784 133.903C113.784 139.427 109.33 143.906 103.834 143.906C98.3391 143.906 93.8844 139.427 93.8844 133.903ZM99.4472 135.73C100.187 137.497 101.919 138.643 103.834 138.633C105.085 138.63 106.284 138.129 107.166 137.242C108.049 136.356 108.543 135.154 108.539 133.903C108.539 131.988 107.384 130.262 105.614 129.531C103.843 128.801 101.807 129.21 100.457 130.568C99.1059 131.926 98.7073 133.964 99.4472 135.73Z" fill="white"/>
<path d="M103.834 138.633L103.833 138.283L103.833 138.283L103.834 138.633ZM99.4472 135.73L99.1244 135.866L99.4472 135.73ZM107.166 137.242L107.414 137.489L107.166 137.242ZM108.539 133.903L108.189 133.903L108.189 133.904L108.539 133.903ZM105.614 129.531L105.48 129.855L105.614 129.531ZM103.834 123.551C98.1441 123.551 93.5344 128.188 93.5344 133.903H94.2344C94.2344 128.571 98.5341 124.251 103.834 124.251V123.551ZM114.134 133.903C114.134 128.188 109.525 123.551 103.834 123.551V124.251C109.135 124.251 113.434 128.571 113.434 133.903H114.134ZM103.834 144.256C109.525 144.256 114.134 139.619 114.134 133.903H113.434C113.434 139.236 109.135 143.556 103.834 143.556V144.256ZM93.5344 133.903C93.5344 139.619 98.1441 144.256 103.834 144.256V143.556C98.5341 143.556 94.2344 139.236 94.2344 133.903H93.5344ZM103.833 138.283C102.059 138.292 100.455 137.231 99.77 135.595L99.1244 135.866C99.919 137.763 101.779 138.994 103.836 138.983L103.833 138.283ZM106.918 136.996C106.101 137.817 104.992 138.28 103.833 138.283L103.835 138.983C105.179 138.979 106.467 138.442 107.414 137.489L106.918 136.996ZM108.189 133.904C108.192 135.062 107.735 136.175 106.918 136.996L107.414 137.489C108.362 136.537 108.893 135.246 108.889 133.902L108.189 133.904ZM105.48 129.855C107.12 130.531 108.189 132.13 108.189 133.903L108.889 133.903C108.889 131.846 107.649 129.993 105.747 129.208L105.48 129.855ZM100.705 130.815C101.955 129.557 103.841 129.178 105.48 129.855L105.747 129.208C103.846 128.423 101.659 128.863 100.208 130.321L100.705 130.815ZM99.77 135.595C99.0849 133.959 99.4539 132.072 100.705 130.815L100.208 130.321C98.7578 131.779 98.3298 133.968 99.1244 135.866L99.77 135.595Z" fill="#1B1B1B"/>
<rect x="118.483" y="126.936" width="82.6409" height="5.5806" rx="2.74095" fill="white" stroke="#1B1B1B" stroke-width="0.7" stroke-linecap="round" stroke-linejoin="round"/>
<rect x="118.483" y="135.374" width="30.2108" height="5.49625" rx="2.74095" fill="white" stroke="#1B1B1B" stroke-width="0.7" stroke-linecap="round" stroke-linejoin="round"/>
<rect x="152.019" y="135.374" width="30.2108" height="5.49625" rx="2.74095" fill="white" stroke="#1B1B1B" stroke-width="0.7" stroke-linecap="round" stroke-linejoin="round"/>
</g>
<rect x="132.797" y="21.5338" width="29.4137" height="5.69657" rx="1.62334" fill="white" stroke="#1B1B1B" stroke-width="0.7" stroke-linecap="round" stroke-linejoin="round"/>
<rect x="122.813" y="32.7913" width="49.3826" height="3.25518" rx="1.62334" fill="white" stroke="#1B1B1B" stroke-width="0.7" stroke-linecap="round" stroke-linejoin="round"/>
<path fill-rule="evenodd" clip-rule="evenodd" d="M93.8843 97.3764C93.8843 91.8524 98.3391 87.3742 103.834 87.3742C109.33 87.3742 113.784 91.8523 113.784 97.3764C113.784 102.901 109.33 107.379 103.834 107.379C98.3391 107.379 93.8843 102.9 93.8843 97.3764ZM99.4472 99.2036C100.187 100.97 101.919 102.116 103.834 102.106V102.106C105.085 102.103 106.284 101.603 107.166 100.716C108.049 99.8286 108.542 98.6275 108.539 97.3764C108.539 95.4612 107.384 93.7351 105.614 93.0045C103.843 92.2739 101.807 92.6831 100.457 94.0409C99.1058 95.3987 98.7073 97.4371 99.4472 99.2036Z" fill="white"/>
<path d="M103.834 102.106H104.184C104.184 102.013 104.147 101.924 104.081 101.858C104.015 101.792 103.926 101.756 103.833 101.756L103.834 102.106ZM99.4472 99.2036L99.1244 99.3388L99.4472 99.2036ZM103.834 102.106H103.484C103.484 102.199 103.521 102.288 103.587 102.354C103.653 102.419 103.742 102.456 103.835 102.456L103.834 102.106ZM107.166 100.716L106.918 100.469H106.918L107.166 100.716ZM108.539 97.3764L108.189 97.3764L108.189 97.3773L108.539 97.3764ZM105.614 93.0045L105.48 93.3281L105.614 93.0045ZM103.834 87.0242C98.1441 87.0242 93.5343 91.6608 93.5343 97.3764H94.2343C94.2343 92.044 98.5341 87.7242 103.834 87.7242V87.0242ZM114.134 97.3764C114.134 91.6607 109.525 87.0242 103.834 87.0242V87.7242C109.135 87.7242 113.434 92.0439 113.434 97.3764H114.134ZM103.834 107.729C109.525 107.729 114.134 103.092 114.134 97.3764H113.434C113.434 102.709 109.135 107.029 103.834 107.029V107.729ZM93.5343 97.3764C93.5343 103.092 98.1441 107.729 103.834 107.729V107.029C98.5341 107.029 94.2343 102.709 94.2343 97.3764H93.5343ZM103.833 101.756C102.059 101.765 100.455 100.704 99.77 99.0684L99.1244 99.3388C99.919 101.236 101.779 102.467 103.836 102.456L103.833 101.756ZM104.184 102.106V102.106H103.484V102.106H104.184ZM106.918 100.469C106.101 101.29 104.992 101.753 103.833 101.756L103.835 102.456C105.179 102.452 106.467 101.915 107.414 100.962L106.918 100.469ZM108.189 97.3773C108.192 98.5356 107.735 99.6476 106.918 100.469L107.414 100.962C108.362 100.01 108.893 98.7194 108.889 97.3755L108.189 97.3773ZM105.48 93.3281C107.12 94.0046 108.189 95.603 108.189 97.3764L108.889 97.3764C108.889 95.3195 107.649 93.4656 105.747 92.681L105.48 93.3281ZM100.705 94.2878C101.955 93.0305 103.841 92.6515 105.48 93.3281L105.747 92.681C103.846 91.8963 101.659 92.3358 100.208 93.7941L100.705 94.2878ZM99.77 99.0684C99.0849 97.4326 99.4539 95.5451 100.705 94.2878L100.208 93.7941C98.7578 95.2524 98.3298 97.4415 99.1244 99.3388L99.77 99.0684Z" fill="#1B1B1B"/>
<rect x="118.483" y="90.4093" width="82.6409" height="5.5806" rx="2.74095" fill="white" stroke="#1B1B1B" stroke-width="0.7" stroke-linecap="round" stroke-linejoin="round"/>
<rect x="118.483" y="98.8474" width="30.2108" height="5.49625" rx="2.74095" fill="white" stroke="#1B1B1B" stroke-width="0.7" stroke-linecap="round" stroke-linejoin="round"/>
<rect x="152.019" y="98.8474" width="30.2108" height="5.49625" rx="2.74095" fill="white" stroke="#1B1B1B" stroke-width="0.7" stroke-linecap="round" stroke-linejoin="round"/>
<path d="M105.926 18.5098L102.444 21.3099" stroke="#1B1B1B" stroke-width="0.7" stroke-linecap="round" stroke-linejoin="round"/>
<path d="M192.315 165.554C189.558 168.34 186.207 170.466 182.512 171.772" stroke="#1B1B1B" stroke-width="0.7" stroke-linecap="round" stroke-linejoin="round"/>
<ellipse cx="70.9105" cy="184.954" rx="16.3556" ry="1.43377" fill="#1B1B1B" stroke="#1B1B1B" stroke-width="0.7" stroke-linecap="round" stroke-linejoin="round"/>
<path d="M76.6098 153.08L76.0434 153.284C76.0434 153.284 53.4929 97.4324 0.010437 83.151C0.010437 83.151 48.8586 91.2689 76.6098 153.08Z" fill="#190000"/>
<path d="M120.503 92.8099C120.503 92.8099 75.3053 100.551 66.138 150.307L68.7216 151.562C68.7216 151.562 113.931 135.144 120.503 92.8099Z" fill="white"/>
<mask id="mask2_502_3034" style="mask-type:luminance" maskUnits="userSpaceOnUse" x="66" y="92" width="55" height="60">
<path fill-rule="evenodd" clip-rule="evenodd" d="M120.503 92.8099C120.503 92.8099 75.3053 100.551 66.138 150.307L68.7216 151.562C68.7216 151.562 113.931 135.144 120.503 92.8099Z" fill="white"/>
</mask>
<g mask="url(#mask2_502_3034)">
<path d="M63.1817 138.579C80.2251 127.28 119.598 154.81 103.003 127.929C86.4083 101.048 136.382 161.532 136.382 161.532L61.8424 153.263" fill="white"/>
</g>
<path fill-rule="evenodd" clip-rule="evenodd" d="M120.503 92.8099C120.503 92.8099 75.3053 100.551 66.138 150.307L68.7216 151.562C68.7216 151.562 113.931 135.144 120.503 92.8099Z" stroke="#1B1B1B" stroke-width="0.7" stroke-linecap="round" stroke-linejoin="round"/>
<path fill-rule="evenodd" clip-rule="evenodd" d="M116.656 96.2034C111.866 99.1719 106.43 103.98 100.957 109.541L100.957 109.541C100.988 109.547 107.915 110.907 114.523 108.513C108.154 111.657 99.7982 110.737 99.7909 110.736C93.622 117.116 87.4616 124.353 82.1734 130.904C82.4386 130.954 91.3121 132.605 99.8269 129.46C92.2734 133.244 82.6142 132.644 80.8902 132.5C72.7862 142.635 67.0323 150.741 67.0323 150.741L66.138 150.307C66.138 150.307 76.4233 135.723 88.8779 121.415C87.5915 118.24 87.1811 114.778 87.6894 111.39C87.4013 116.446 89.2307 119.643 89.741 120.429C98.6845 110.248 108.634 100.38 116.656 96.2034ZM100.886 109.613L99.993 110.528C100.291 110.221 100.588 109.916 100.886 109.613Z" fill="white"/>
<path d="M95.3694 37.4862C95.3694 37.4862 44.6013 75.2322 68.641 144.115C68.641 144.115 117.353 95.3363 95.3694 37.4862Z" fill="white"/>
<mask id="mask3_502_3034" style="mask-type:luminance" maskUnits="userSpaceOnUse" x="62" y="37" width="40" height="108">
<path fill-rule="evenodd" clip-rule="evenodd" d="M95.3694 37.4862C95.3694 37.4862 44.6013 75.2322 68.641 144.115C68.641 144.115 117.353 95.3363 95.3694 37.4862Z" fill="white"/>
</mask>
<g mask="url(#mask3_502_3034)">
<path d="M67.4829 57.2836C88.6036 83.6929 58.4337 142.977 99.7903 94.1441C141.147 45.3113 92.997 151.562 92.997 151.562C92.997 151.562 38.8085 171.906 38.3101 166.886C37.8117 161.865 18.5459 76.2316 18.5459 76.2316L33.7035 51.2974" fill="white"/>
</g>
<path fill-rule="evenodd" clip-rule="evenodd" d="M95.3694 37.4862C95.3694 37.4862 44.6013 75.2322 68.641 144.115V144.115C68.641 144.115 117.353 95.3363 95.3694 37.4862Z" stroke="#1B1B1B" stroke-width="0.7" stroke-linecap="round" stroke-linejoin="round"/>
<path fill-rule="evenodd" clip-rule="evenodd" d="M82.9518 70.8149C83.0038 70.801 92.5929 68.2508 99.1123 61.1319C93.4237 69.0566 82.3698 73.0468 82.3507 73.0537C79.2148 84.9696 76.7005 97.9699 74.7831 109.559C75.4879 109.364 87.5001 105.94 95.7384 96.8235C89.0287 106.296 76.5723 111.497 74.323 112.379C71.4533 130.262 70.0644 144.115 70.0644 144.115H68.6411C68.6411 144.115 71.0567 119.233 76.3709 93.3622C74.4382 91.7748 70.2157 87.7671 67.7468 81.357C70.9907 87.9593 75.5476 90.8921 76.7429 91.576C80.6251 73.1164 85.9839 54.4338 92.997 44.1736C89.1469 50.9036 85.8046 60.3694 82.9516 70.8149L82.9518 70.8149ZM82.4525 72.6722C82.6058 72.0926 82.7607 71.5156 82.917 70.9412L82.4525 72.6722Z" fill="white"/>
<path d="M56.8907 76.2316C56.8907 76.2316 33.0554 112.457 67.2252 151.896L69.9622 150.956C69.9622 150.956 86.7819 108.944 56.8907 76.2316Z" fill="white"/>
<mask id="mask4_502_3034" style="mask-type:luminance" maskUnits="userSpaceOnUse" x="48" y="76" width="27" height="76">
<path fill-rule="evenodd" clip-rule="evenodd" d="M56.8907 76.2316C56.8907 76.2316 33.0554 112.457 67.2252 151.896L69.9622 150.956C69.9622 150.956 86.7819 108.944 56.8907 76.2316Z" fill="white"/>
</mask>
<g mask="url(#mask4_502_3034)">
<path d="M56.8907 76.2316C56.8905 110.117 5.76096 100.84 62.636 129.895C103.442 150.741 21.7149 182.966 21.7149 182.966C21.7149 182.966 -33.1985 164.691 -30.4575 160.464C-27.7164 156.237 10.6433 77.3624 10.6433 77.3624L37.9981 67.4765" fill="white"/>
</g>
<path fill-rule="evenodd" clip-rule="evenodd" d="M56.8907 76.2316C56.8907 76.2316 33.0554 112.457 67.2252 151.896L69.9622 150.956C69.9622 150.956 86.7819 108.944 56.8907 76.2316Z" stroke="#1B1B1B" stroke-width="0.7" stroke-linecap="round" stroke-linejoin="round"/>
<path fill-rule="evenodd" clip-rule="evenodd" d="M62.1987 127.951C62.416 127.802 69.6621 122.802 72.7873 114.854C70.8098 122.606 63.8489 128.853 62.636 129.895C65.443 142.217 68.1725 151.571 68.1725 151.571L67.2251 151.896C67.2251 151.896 62.2702 135.113 58.9835 117.023C55.5883 115.81 52.5338 113.801 50.0766 111.163C53.9773 114.728 57.7839 115.6 58.76 115.772C56.4749 102.844 55.1138 89.4319 57.0756 81.1362C56.2879 86.4062 56.5601 93.3448 57.4164 100.811L57.4166 100.81C57.4552 100.784 63.1591 96.9303 65.6189 90.8005C63.9284 97.2485 57.6598 102.365 57.6072 102.408L57.6069 102.408C58.6627 110.898 60.4182 119.953 62.1987 127.951ZM57.5763 102.155C57.5244 101.733 57.4742 101.313 57.4258 100.894L57.5763 102.155Z" fill="white"/>
<path d="M33.7035 117.153C33.7035 117.153 35.31 145.098 72.2147 152.41L73.412 150.87C73.412 150.87 65.2199 122.621 33.7035 117.153Z" fill="white"/>
<mask id="mask5_502_3034" style="mask-type:luminance" maskUnits="userSpaceOnUse" x="33" y="117" width="41" height="36">
<path fill-rule="evenodd" clip-rule="evenodd" d="M33.7035 117.153C33.7035 117.153 35.31 145.098 72.2147 152.41L73.412 150.87C73.412 150.87 65.2199 122.621 33.7035 117.153Z" fill="white"/>
</mask>
<g mask="url(#mask5_502_3034)">
<path d="M16.4827 122.186C50.1104 146.786 56.0829 134.361 76.6098 150.741C97.1366 167.121 41.4407 164.958 41.4407 164.958L25.6777 153.284" fill="white"/>
</g>
<path fill-rule="evenodd" clip-rule="evenodd" d="M33.7035 117.153C33.7035 117.153 35.31 145.098 72.2147 152.41L73.412 150.87C73.412 150.87 65.2199 122.621 33.7035 117.153Z" stroke="#1B1B1B" stroke-width="0.7" stroke-linecap="round" stroke-linejoin="round"/>
<path fill-rule="evenodd" clip-rule="evenodd" d="M60.0904 142.767C67.0189 148.076 72.6292 151.877 72.6292 151.877L72.2149 152.41C72.2149 152.41 62.1178 145.611 52.4337 137.496C49.9155 138.175 47.2813 138.307 44.7079 137.883C48.5201 138.232 51.1207 137.22 51.7645 136.935C44.8803 131.11 38.329 124.68 35.9163 119.624C37.7168 122.659 40.8546 126.152 44.5584 129.693L44.5586 129.692C44.5813 129.635 46.2467 125.46 45.0591 121.351C46.8369 125.342 45.3694 130.4 45.3562 130.445C49.6183 134.443 54.5252 138.462 59.0006 141.926C59.0678 141.755 61.154 136.383 59.5724 131.066C61.7424 135.845 60.3526 141.76 60.0904 142.767ZM44.8057 129.93C44.8241 129.947 44.8425 129.964 44.8608 129.982L44.6616 129.793C44.7093 129.838 44.7575 129.884 44.8057 129.93Z" fill="white"/>
<path d="M87.266 148.817H54.5549C57.1191 152.037 57.0661 155.704 54.3179 158.879C48.3089 165.823 42.5349 177.85 54.5549 184.954H87.266C99.286 177.85 93.512 165.823 87.503 158.879C84.7549 155.704 84.7018 152.037 87.266 148.817Z" fill="white"/>
<mask id="mask6_502_3034" style="mask-type:luminance" maskUnits="userSpaceOnUse" x="47" y="148" width="48" height="37">
<path fill-rule="evenodd" clip-rule="evenodd" d="M87.266 148.817H54.5549C57.1191 152.037 57.0661 155.704 54.3179 158.879C48.3089 165.823 42.5349 177.85 54.5549 184.954H87.266C99.286 177.85 93.512 165.823 87.503 158.879C84.7549 155.704 84.7018 152.037 87.266 148.817Z" fill="white"/>
</mask>
<g mask="url(#mask6_502_3034)">
<path d="M100.219 134.901C52.8269 154.226 115.845 181.945 65.6189 185.99C15.3933 190.035 99.7903 199.542 99.7903 199.542L107.157 198.134L120.503 173.133L101.068 151.562L91.3971 146.613L100.219 134.901Z" fill="white"/>
</g>
<path fill-rule="evenodd" clip-rule="evenodd" d="M87.266 148.817H54.5549C57.1191 152.037 57.0661 155.704 54.3179 158.879C48.3089 165.823 42.5349 177.85 54.5549 184.954H87.266C99.286 177.85 93.512 165.823 87.503 158.879C84.7549 155.704 84.7018 152.037 87.266 148.817Z" stroke="#1B1B1B" stroke-width="0.7" stroke-linecap="round" stroke-linejoin="round"/>
<path d="M64.9888 171.271C67.7185 173.232 71.1447 173.962 74.4367 173.282" stroke="#1B1B1B" stroke-width="0.7" stroke-linecap="round" stroke-linejoin="round"/>
<path d="M87.1064 89.2434L85.3241 91.6855" stroke="#1B1B1B" stroke-width="0.7" stroke-linecap="round" stroke-linejoin="round"/>
<rect x="265.443" y="105.165" width="15.345" height="33.7928" fill="white"/>
<mask id="mask7_502_3034" style="mask-type:luminance" maskUnits="userSpaceOnUse" x="265" y="105" width="16" height="34">
<rect x="265.443" y="105.165" width="15.345" height="33.7928" fill="white"/>
</mask>
<g mask="url(#mask7_502_3034)">
<path d="M283.927 110.304C279.899 122.1 267.113 112.718 266.763 121.044C266.413 129.37 278.756 130.829 285.633 129.37C292.509 127.91 280.788 142.875 280.788 142.875L254.153 134.953L260.458 109.423L271.842 109.952" fill="white"/>
</g>
<rect x="265.443" y="105.165" width="15.345" height="33.7928" stroke="#1B1B1B" stroke-width="0.7" stroke-linecap="round" stroke-linejoin="round"/>
<path d="M273.116 183.893C265.559 183.893 259.483 177.642 259.658 170.047L260.599 129.37H285.633L286.574 170.047C286.749 177.642 280.673 183.893 273.116 183.893Z" fill="white"/>
<mask id="mask8_502_3034" style="mask-type:luminance" maskUnits="userSpaceOnUse" x="259" y="129" width="28" height="55">
<path fill-rule="evenodd" clip-rule="evenodd" d="M273.116 183.893C265.559 183.893 259.483 177.642 259.658 170.047L260.599 129.37H285.633L286.574 170.047C286.749 177.642 280.673 183.893 273.116 183.893Z" fill="white"/>
</mask>
<g mask="url(#mask8_502_3034)">
<path d="M284.453 123.685C286.356 186.327 268.514 175.063 256.605 176.664C244.695 178.264 273.116 197.631 273.116 197.631L299.69 200.8L303.686 151.15L289.532 131.677" fill="white"/>
</g>
<path fill-rule="evenodd" clip-rule="evenodd" d="M273.116 183.893V183.893C265.559 183.893 259.483 177.642 259.658 170.047L260.599 129.37H285.633L286.574 170.047C286.749 177.642 280.673 183.893 273.116 183.893Z" stroke="#1B1B1B" stroke-width="0.7" stroke-linecap="round" stroke-linejoin="round"/>
<path fill-rule="evenodd" clip-rule="evenodd" d="M230.688 74.1271C230.688 50.742 249.547 31.7843 272.81 31.7843C296.074 31.7843 314.932 50.742 314.932 74.1271C314.932 97.5125 296.074 116.47 272.81 116.47C249.547 116.47 230.688 97.5125 230.688 74.1271ZM241.935 74.1271C241.935 91.2687 255.758 105.165 272.81 105.165C289.862 105.165 303.686 91.2687 303.686 74.1271C303.686 56.9855 289.862 43.0895 272.81 43.0895C255.758 43.0895 241.935 56.9855 241.935 74.1271Z" fill="white"/>
<path d="M314.932 74.1271H314.582H314.932ZM272.81 31.4343C249.352 31.4343 230.338 50.5504 230.338 74.1271H231.038C231.038 50.9335 249.742 32.1343 272.81 32.1343V31.4343ZM230.338 74.1271C230.338 97.7041 249.352 116.82 272.81 116.82V116.12C249.742 116.12 231.038 97.321 231.038 74.1271H230.338ZM272.81 116.82C296.269 116.82 315.282 97.7041 315.282 74.1271H314.582C314.582 97.321 295.879 116.12 272.81 116.12V116.82ZM315.282 74.1271C315.282 50.5504 296.269 31.4343 272.81 31.4343V32.1343C295.879 32.1343 314.582 50.9336 314.582 74.1271H315.282ZM272.81 104.815C255.953 104.815 242.285 91.0771 242.285 74.1271H241.585C241.585 91.4602 255.563 105.515 272.81 105.515V104.815ZM242.285 74.1271C242.285 57.1771 255.953 43.4395 272.81 43.4395V42.7395C255.563 42.7395 241.585 56.794 241.585 74.1271H242.285ZM272.81 43.4395C289.667 43.4395 303.336 57.1771 303.336 74.1271H304.036C304.036 56.794 290.058 42.7395 272.81 42.7395V43.4395ZM303.336 74.1271C303.336 91.0771 289.667 104.815 272.81 104.815V105.515C290.058 105.515 304.036 91.4602 304.036 74.1271H303.336Z" fill="#1B1B1B"/>
<path d="M254.987 42.1154C253.177 44.0526 251.05 45.6677 248.697 46.8915" stroke="#1B1B1B" stroke-width="0.7" stroke-linecap="round" stroke-linejoin="round"/>
<path d="M277.062 155.682L275.486 157.795" stroke="#1B1B1B" stroke-width="0.7" stroke-linecap="round" stroke-linejoin="round"/>
<path d="M194.826 91.8087C190.75 90.5148 191.476 81.2343 199.461 82.3261C207.447 83.4178 206.042 98.1566 218.519 97.3075C231.479 96.4255 230.611 127.588 213.379 123.327C200.759 120.207 194.826 91.8087 194.826 91.8087Z" fill="#1B1B1B"/>
<mask id="mask9_502_3034" style="mask-type:luminance" maskUnits="userSpaceOnUse" x="192" y="82" width="36" height="42">
<path fill-rule="evenodd" clip-rule="evenodd" d="M194.826 91.8087C190.75 90.5148 191.476 81.2343 199.461 82.3261C207.447 83.4178 206.042 98.1566 218.519 97.3075C231.479 96.4255 230.611 127.588 213.379 123.327C200.759 120.207 194.826 91.8087 194.826 91.8087Z" fill="white"/>
</mask>
<g mask="url(#mask9_502_3034)">
<path d="M221.37 123.385C222.584 115.872 206.862 113.521 208.031 110.33C209.2 107.14 210.376 103.545 206.889 102.114C203.403 100.683 200.839 108.449 200.839 108.449L199.592 114.693L201.755 119.49L221.643 124.561" fill="#323442"/>
</g>
<path fill-rule="evenodd" clip-rule="evenodd" d="M194.826 91.8087C190.75 90.5148 191.476 81.2343 199.461 82.3261C207.447 83.4178 206.042 98.1566 218.519 97.3075C231.479 96.4255 230.611 127.588 213.379 123.327C200.759 120.207 194.826 91.8087 194.826 91.8087Z" stroke="#1B1B1B" stroke-width="0.7" stroke-linecap="round" stroke-linejoin="round"/>
<path d="M193.287 90.6353C193.287 90.6353 197.346 87.9465 200.839 90.0491L200.417 91.7744L194.372 92.1248L193.287 90.6353Z" fill="#1B1B1B" stroke="#1B1B1B" stroke-width="0.7" stroke-linecap="round" stroke-linejoin="round"/>
<path d="M169.582 160.034C168.737 156.613 155.555 111.721 199.747 111.858C243.94 111.995 227.383 163.719 227.383 163.719L169.582 160.034Z" fill="white"/>
<mask id="mask10_502_3034" style="mask-type:luminance" maskUnits="userSpaceOnUse" x="167" y="111" width="64" height="53">
<path fill-rule="evenodd" clip-rule="evenodd" d="M169.582 160.034C168.737 156.613 155.555 111.721 199.747 111.858C243.94 111.995 227.383 163.719 227.383 163.719L169.582 160.034Z" fill="white"/>
</mask>
<g mask="url(#mask10_502_3034)">
<ellipse cx="198.895" cy="112.414" rx="11.3678" ry="8.36214" fill="white" stroke="#1B1B1B" stroke-width="0.7" stroke-linecap="round" stroke-linejoin="round"/>
<ellipse cx="198.895" cy="112.414" rx="8.47549" ry="6.23456" fill="white"/>
<mask id="mask11_502_3034" style="mask-type:luminance" maskUnits="userSpaceOnUse" x="190" y="106" width="18" height="13">
<ellipse cx="198.895" cy="112.414" rx="8.47549" ry="6.23456" fill="white"/>
</mask>
<g mask="url(#mask11_502_3034)">
<ellipse cx="193.981" cy="112.038" rx="10.4506" ry="5.095" fill="white"/>
</g>
<ellipse cx="198.895" cy="112.414" rx="8.47549" ry="6.23456" stroke="#1B1B1B" stroke-width="0.7" stroke-linecap="round" stroke-linejoin="round"/>
<path d="M220.962 129.124C220.894 131.835 219.628 139.664 219.628 139.664L221.701 134.109L220.962 129.124Z" fill="#1B1B1B" stroke="#1B1B1B" stroke-width="0.7" stroke-linecap="round" stroke-linejoin="round"/>
</g>
<path fill-rule="evenodd" clip-rule="evenodd" d="M169.582 160.034C168.737 156.613 155.555 111.721 199.747 111.858C243.94 111.995 227.383 163.719 227.383 163.719L169.582 160.034Z" stroke="#1B1B1B" stroke-width="0.7" stroke-linecap="round" stroke-linejoin="round"/>
<path d="M198.656 117.945C198.433 123.591 188.304 125.601 186.137 113.33C186.137 113.33 192.321 109.897 192.423 111.593C192.749 117.007 198.656 117.945 198.656 117.945Z" fill="white" stroke="#1B1B1B" stroke-width="0.7" stroke-linecap="round" stroke-linejoin="round"/>
<path d="M198.603 117.945C198.826 123.591 208.527 125.22 211.601 113.444C211.601 113.444 204.938 109.897 204.836 111.593C204.51 117.007 198.603 117.945 198.603 117.945Z" fill="white" stroke="#1B1B1B" stroke-width="0.7" stroke-linecap="round" stroke-linejoin="round"/>
<path d="M219.987 167.827H174.139L171.346 137.009C171.093 134.217 172.822 131.913 175.213 131.913H218.914C221.304 131.913 223.034 134.217 222.781 137.009L219.987 167.827Z" fill="white"/>
<mask id="mask12_502_3034" style="mask-type:luminance" maskUnits="userSpaceOnUse" x="171" y="131" width="52" height="37">
<path fill-rule="evenodd" clip-rule="evenodd" d="M219.987 167.827H174.139L171.346 137.009C171.093 134.217 172.822 131.913 175.213 131.913H218.914C221.304 131.913 223.034 134.217 222.781 137.009L219.987 167.827Z" fill="white"/>
</mask>
<g mask="url(#mask12_502_3034)">
<path d="M165.983 148.94C175.791 144.065 191.535 159.453 199.864 163.64C208.192 167.827 215.198 144.397 226.582 147.664C237.967 150.931 214.921 168.407 214.921 168.407L184.991 170.122" fill="white"/>
</g>
<path fill-rule="evenodd" clip-rule="evenodd" d="M219.987 167.827H174.139L171.346 137.009C171.093 134.217 172.822 131.913 175.213 131.913H218.914C221.304 131.913 223.034 134.217 222.781 137.009L219.987 167.827Z" stroke="#1B1B1B" stroke-width="0.7" stroke-linecap="round" stroke-linejoin="round"/>
<path d="M200.361 147.994C200.227 149.331 198.882 150.322 197.349 150.294C195.816 150.266 194.511 149.227 194.428 147.886C194.338 146.439 195.686 145.205 197.446 145.237C199.206 145.269 200.506 146.551 200.361 147.994Z" fill="white" stroke="#1B1B1B" stroke-width="0.7" stroke-linecap="round" stroke-linejoin="round"/>
<path d="M233.68 173.158L237.018 172.695C237.018 172.695 242.937 179.939 227.458 183.045L233.68 173.158Z" fill="#1B1B1B" stroke="#1B1B1B" stroke-width="0.7" stroke-linecap="round" stroke-linejoin="round"/>
<path d="M229.199 172.258C232.08 172.032 234.547 171.95 235.838 172.155C240.166 172.842 236.093 181.366 227.458 183.045C227.458 183.045 233.188 175.413 229.199 172.258Z" fill="white" stroke="#1B1B1B" stroke-width="0.7" stroke-linecap="round" stroke-linejoin="round"/>
<path d="M211.724 174.344C211.724 174.344 221.819 172.834 229.199 172.258C233.188 175.413 227.458 183.045 227.458 183.045C226.909 183.152 226.355 183.23 225.798 183.277C216.04 184.098 207.692 183.254 206.564 182.371C205.435 181.489 211.724 174.344 211.724 174.344Z" fill="#1B1B1B" stroke="#1B1B1B" stroke-width="0.7" stroke-linecap="round" stroke-linejoin="round"/>
<path d="M205.16 169.153C210.267 172.432 213.601 174.709 213.601 174.709C215.488 177.155 214.739 179.317 213.71 180.748C212.864 181.906 211.481 182.545 210.051 182.441C207.951 182.297 205.845 182.099 203.745 181.851C204.503 178.357 205.486 172.878 205.16 169.153Z" fill="white" stroke="#1B1B1B" stroke-width="0.7" stroke-linecap="round" stroke-linejoin="round"/>
<path d="M153.363 146.978C158.325 140.307 189.783 159.279 205.16 169.153C205.486 172.878 204.503 178.357 203.745 181.851C172.037 178.102 141.612 162.776 153.363 146.978Z" fill="white"/>
<path fill-rule="evenodd" clip-rule="evenodd" d="M153.363 146.978C158.325 140.307 189.783 159.279 205.16 169.153C205.486 172.878 204.503 178.357 203.745 181.851C172.037 178.102 141.612 162.776 153.363 146.978Z" stroke="#1B1B1B" stroke-width="0.7" stroke-linecap="round" stroke-linejoin="round"/>
<ellipse cx="198.656" cy="104.161" rx="8.3597" ry="11.7666" fill="white"/>
<mask id="mask13_502_3034" style="mask-type:luminance" maskUnits="userSpaceOnUse" x="190" y="92" width="18" height="24">
<ellipse cx="198.656" cy="104.161" rx="8.3597" ry="11.7666" fill="white"/>
</mask>
<g mask="url(#mask13_502_3034)">
<path d="M195.759 105.561C196.177 105.572 196.506 105.92 196.494 106.338L196.458 107.629C196.452 107.829 196.367 108.019 196.222 108.157C196.076 108.295 195.881 108.369 195.681 108.364C195.263 108.352 194.935 108.004 194.946 107.587L194.982 106.295C194.994 105.878 195.342 105.549 195.759 105.561V105.561Z" fill="#1B1B1B"/>
<path d="M201.577 105.486C201.994 105.498 202.323 105.846 202.312 106.263L202.275 107.554C202.264 107.972 201.916 108.301 201.498 108.289C201.081 108.277 200.752 107.929 200.764 107.512L200.8 106.221C200.811 105.803 201.159 105.474 201.577 105.486L201.577 105.486Z" fill="#1B1B1B"/>
<path d="M198.7 107.1C198.262 108.456 198.679 108.86 198.679 108.86C196.363 108.564 198.306 110.818 198.306 110.818" stroke="#1B1B1B" stroke-width="0.60747" stroke-linecap="round" stroke-linejoin="round"/>
<path d="M199.686 111.291C199.524 111.756 199.056 112.043 198.569 111.975" stroke="#1B1B1B" stroke-width="0.60747" stroke-linecap="round" stroke-linejoin="round"/>
<path d="M195.62 103.765C194.065 104.174 194.466 105.031 195.455 104.839C196.444 104.647 196.636 103.497 195.62 103.765Z" fill="#1B1B1B"/>
<path d="M201.582 103.634C203.112 104.129 202.783 104.901 201.806 104.654C200.83 104.407 200.583 103.31 201.582 103.634Z" fill="#1B1B1B"/>
</g>
<ellipse cx="198.656" cy="104.161" rx="8.3597" ry="11.7666" stroke="#1B1B1B" stroke-width="0.7" stroke-linecap="round" stroke-linejoin="round"/>
<path d="M190.906 102.823C186.082 100.562 185.028 104.174 187.246 107.14C188.91 109.364 190.761 109.07 191.582 108.785" fill="white"/>
<path d="M190.906 102.823C186.082 100.562 185.028 104.174 187.246 107.14C188.91 109.364 190.761 109.07 191.582 108.785" stroke="#1B1B1B" stroke-width="0.7" stroke-linecap="round" stroke-linejoin="round"/>
<path d="M205.54 102.823C210.365 100.562 211.418 104.174 209.2 107.14C207.778 109.041 206.218 109.103 205.283 108.902" fill="white"/>
<path d="M205.54 102.823C210.365 100.562 211.418 104.174 209.2 107.14C207.778 109.041 206.218 109.103 205.283 108.902" stroke="#1B1B1B" stroke-width="0.7" stroke-linecap="round" stroke-linejoin="round"/>
<path d="M196.202 97.2466C194.954 106.708 189.381 105.253 189.381 105.253C189.381 105.253 186.137 91.2622 198.115 91.4239C210.093 91.5857 207.016 104.161 207.016 104.161C207.016 104.161 197.533 104.363 196.202 97.2466Z" fill="#1B1B1B" stroke="#1B1B1B" stroke-width="0.7" stroke-linecap="round" stroke-linejoin="round"/>
<path d="M163.952 173.158L160.613 172.695C160.613 172.695 154.694 179.939 170.174 183.045L163.952 173.158Z" fill="#1B1B1B" stroke="#1B1B1B" stroke-width="0.7" stroke-linecap="round" stroke-linejoin="round"/>
<path d="M168.433 172.258C165.552 172.032 163.085 171.95 161.794 172.155C157.465 172.842 161.538 181.366 170.174 183.045C170.174 183.045 164.444 175.413 168.433 172.258Z" fill="white" stroke="#1B1B1B" stroke-width="0.7" stroke-linecap="round" stroke-linejoin="round"/>
<path d="M185.908 174.344C185.908 174.344 175.813 172.834 168.433 172.258C164.444 175.413 170.174 183.045 170.174 183.045C170.723 183.152 171.277 183.23 171.834 183.277C181.592 184.098 189.939 183.254 191.068 182.371C192.197 181.489 185.908 174.344 185.908 174.344Z" fill="#1B1B1B" stroke="#1B1B1B" stroke-width="0.7" stroke-linecap="round" stroke-linejoin="round"/>
<path d="M192.472 169.153C187.365 172.432 184.031 174.709 184.031 174.709C182.144 177.155 182.893 179.317 183.921 180.748C184.767 181.906 186.15 182.545 187.58 182.441C189.68 182.297 191.786 182.099 193.887 181.851C193.128 178.357 192.146 172.878 192.472 169.153Z" fill="white"/>
<mask id="mask14_502_3034" style="mask-type:luminance" maskUnits="userSpaceOnUse" x="182" y="169" width="12" height="14">
<path fill-rule="evenodd" clip-rule="evenodd" d="M192.472 169.153C187.365 172.432 184.031 174.709 184.031 174.709C182.144 177.155 182.893 179.317 183.921 180.748C184.767 181.906 186.15 182.545 187.58 182.441C189.68 182.297 191.786 182.099 193.887 181.851C193.128 178.357 192.146 172.878 192.472 169.153Z" fill="white"/>
</mask>
<g mask="url(#mask14_502_3034)">
<path d="M184.664 173.294C184.211 177.946 188.203 182.963 191.833 181.321C195.463 179.68 190.116 169.847 192.472 169.153C194.828 168.459 196.37 183.61 196.37 183.61C196.37 183.61 195.372 184.058 194.465 184.423C193.557 184.788 185.118 184.788 185.118 184.788L180.49 177.87L181.397 172.037L185.908 174.344" fill="white"/>
</g>
<path fill-rule="evenodd" clip-rule="evenodd" d="M192.472 169.153C187.365 172.432 184.031 174.709 184.031 174.709C182.144 177.155 182.893 179.317 183.921 180.748C184.767 181.906 186.15 182.545 187.58 182.441C189.68 182.297 191.786 182.099 193.887 181.851C193.128 178.357 192.146 172.878 192.472 169.153Z" stroke="#1B1B1B" stroke-width="0.7" stroke-linecap="round" stroke-linejoin="round"/>
<path d="M244.268 146.978C239.306 140.307 207.849 159.279 192.472 169.153C192.146 172.878 193.128 178.357 193.887 181.851C225.594 178.102 256.02 162.776 244.268 146.978Z" fill="white"/>
<mask id="mask15_502_3034" style="mask-type:luminance" maskUnits="userSpaceOnUse" x="192" y="145" width="55" height="37">
<path fill-rule="evenodd" clip-rule="evenodd" d="M244.268 146.978C239.306 140.307 207.849 159.279 192.472 169.153C192.146 172.878 193.128 178.357 193.887 181.851C225.594 178.102 256.02 162.776 244.268 146.978Z" fill="white"/>
</mask>
<g mask="url(#mask15_502_3034)">
<path d="M218.519 151.675C224.773 152.405 238.525 144.444 242.603 146.644C246.682 148.843 251.086 152.091 248.909 160.119C246.731 168.146 249.819 163.719 249.819 163.719L251.089 145.587L235.244 136.299L218.519 151.675Z" fill="white"/>
<path d="M196.161 165.062C194.964 170.77 198.76 183.611 198.76 183.611L191.204 184.327L188.922 166.633" fill="white"/>
<path d="M196.161 165.062C194.964 170.77 198.76 183.611 198.76 183.611L191.204 184.327L188.922 166.633" stroke="#1B1B1B" stroke-width="0.7" stroke-linecap="round" stroke-linejoin="round"/>
</g>
<path fill-rule="evenodd" clip-rule="evenodd" d="M244.268 146.978C239.306 140.307 207.849 159.279 192.472 169.153C192.146 172.878 193.128 178.357 193.887 181.851C225.594 178.102 256.02 162.776 244.268 146.978Z" stroke="#1B1B1B" stroke-width="0.7" stroke-linecap="round" stroke-linejoin="round"/>
<ellipse cx="198.505" cy="123.278" rx="0.73544" ry="0.7393" fill="#1B1B1B"/>
<ellipse cx="198.505" cy="127.559" rx="0.73544" ry="0.7393" fill="#1B1B1B"/>
<path d="M200.648 94.2707C200.612 94.9171 200.77 95.5595 201.1 96.116" stroke="#1B1B1B" stroke-width="0.7" stroke-linecap="round" stroke-linejoin="round"/>
<path d="M217.202 104.048C217.771 104.576 218.197 105.24 218.439 105.978" stroke="#1B1B1B" stroke-width="0.7" stroke-linecap="round" stroke-linejoin="round"/>
<path d="M181.072 143.888C182.226 145.051 183.547 146.034 184.991 146.806" stroke="#1B1B1B" stroke-width="0.7" stroke-linecap="round" stroke-linejoin="round"/>
<path d="M217.913 164.09L214.921 165.468" stroke="#1B1B1B" stroke-width="0.7" stroke-linecap="round" stroke-linejoin="round"/>
</svg>
