<svg width="312" height="236" viewBox="0 0 312 236" fill="none" xmlns="http://www.w3.org/2000/svg">
<ellipse cx="185.032" cy="164.713" rx="1.796" ry="20.5117" transform="rotate(-69.8073 185.032 164.713)" fill="#1B1B1B" stroke="#1B1B1B" stroke-width="0.7" stroke-linecap="round" stroke-linejoin="round"/>
<path d="M205.392 129.659L204.638 129.654C204.638 129.654 202.018 54.1475 145.184 14.1858C145.184 14.1858 199.203 44.8862 205.392 129.659Z" fill="#190000"/>
<path d="M282.871 77.7122C282.871 77.7122 226.356 67.2607 194.254 121.862L196.758 124.458C196.758 124.458 257.004 124.701 282.871 77.7122Z" fill="white"/>
<mask id="mask0_502_3204" style="mask-type:luminance" maskUnits="userSpaceOnUse" x="194" y="76" width="89" height="49">
<path fill-rule="evenodd" clip-rule="evenodd" d="M282.871 77.7122C282.871 77.7122 226.356 67.2607 194.254 121.862L196.758 124.458C196.758 124.458 257.004 124.701 282.871 77.7122Z" fill="white"/>
</mask>
<g mask="url(#mask0_502_3204)">
<path d="M195.798 106.777C220.698 100.854 255.25 150.304 247.231 111.478C239.212 72.6519 272.127 165.481 272.127 165.481L187.932 123.483" fill="white"/>
</g>
<path fill-rule="evenodd" clip-rule="evenodd" d="M282.871 77.7122C282.871 77.7122 226.356 67.2607 194.254 121.862L196.758 124.458C196.758 124.458 257.004 124.701 282.871 77.7122Z" stroke="#1B1B1B" stroke-width="0.7" stroke-linecap="round" stroke-linejoin="round"/>
<path fill-rule="evenodd" clip-rule="evenodd" d="M276.89 80.0418C269.98 81.4623 261.523 84.7696 252.699 88.9464L252.699 88.9464C252.732 88.9666 260.303 93.5663 269.107 93.6083C260.263 94.5524 250.822 89.8525 250.814 89.8484C240.821 94.6881 230.47 100.541 221.44 105.963C221.73 106.137 231.467 111.921 242.837 111.905C232.325 113.09 221.213 108.202 219.245 107.286C205.365 115.709 195.121 122.76 195.121 122.76L194.255 121.862C194.255 121.862 212.607 109.147 233.395 97.6956C233.295 95.567 233.444 90.6071 236.29 85.3797C233.785 91.2064 234.569 95.7619 234.833 96.9082C249.721 88.7946 265.659 81.4857 276.89 80.0418ZM252.584 89.0004L251.141 89.6912C251.623 89.4586 252.104 89.2283 252.584 89.0004Z" fill="white"/>
<path d="M276.984 1.70889C276.984 1.70889 201.061 24.1658 199.853 115.657C199.853 115.657 278.081 79.3227 276.984 1.70889Z" fill="white"/>
<mask id="mask1_502_3204" style="mask-type:luminance" maskUnits="userSpaceOnUse" x="199" y="1" width="78" height="115">
<path fill-rule="evenodd" clip-rule="evenodd" d="M276.984 1.70889C276.984 1.70889 201.061 24.1658 199.853 115.657C199.853 115.657 278.081 79.3227 276.984 1.70889Z" fill="white"/>
</mask>
<g mask="url(#mask1_502_3204)">
<path d="M235.681 12.9423C249.229 53.1722 188.326 109.899 257.92 70.317C327.514 30.7354 225.331 134.966 225.331 134.966C225.331 134.966 152.835 135.458 154.399 129.332C155.963 123.206 169.964 14.0639 169.964 14.0639L198.485 -8.72601" fill="white"/>
</g>
<path fill-rule="evenodd" clip-rule="evenodd" d="M276.984 1.70889C276.984 1.70889 201.061 24.1658 199.853 115.657V115.657C199.853 115.657 278.081 79.3227 276.984 1.70889Z" stroke="#1B1B1B" stroke-width="0.7" stroke-linecap="round" stroke-linejoin="round"/>
<path fill-rule="evenodd" clip-rule="evenodd" d="M248.093 35.5664C248.119 35.5689 260.521 36.7306 271.262 31.1635C261.172 38.0295 246.452 37.9418 246.426 37.9416C237.631 50.611 229.104 64.8257 221.883 77.6377C222.796 77.7134 238.402 78.8828 252.003 71.7171C240.048 79.9631 223.159 80.694 220.133 80.7587C209.096 100.567 201.528 116.273 201.528 116.273L199.853 115.657C199.853 115.657 213.353 87.4127 230.689 59.2592C229.094 56.5541 225.841 50.0087 225.681 41.3943C226.671 50.5703 230.778 55.9952 231.892 57.3177C244.368 37.2685 258.678 17.596 271.327 8.55405C263.913 14.8096 255.925 24.5054 248.093 35.5664ZM246.71 37.5366C247.138 36.9207 247.568 36.3085 247.998 35.7001L246.71 37.5366Z" fill="white"/>
<path d="M215.098 30.6619C215.098 30.6619 171.526 62.9875 194.853 124.203L198.477 124.282C198.477 124.282 236.27 82.1072 215.098 30.6619Z" fill="white"/>
<mask id="mask2_502_3204" style="mask-type:luminance" maskUnits="userSpaceOnUse" x="187" y="30" width="35" height="95">
<path fill-rule="evenodd" clip-rule="evenodd" d="M215.098 30.6619C215.098 30.6619 171.526 62.9875 194.853 124.203L198.477 124.282C198.477 124.282 236.27 82.1072 215.098 30.6619Z" fill="white"/>
</mask>
<g mask="url(#mask2_502_3204)">
<path d="M215.098 30.6619C200.584 70.5499 144.376 37.4972 198.875 96.3184C237.976 138.52 127.978 141.077 127.978 141.077C127.978 141.077 71.1704 95.7949 76.2072 92.0056C81.2441 88.2164 160.178 11.9743 160.178 11.9743L196.61 12.1781" fill="white"/>
</g>
<path fill-rule="evenodd" clip-rule="evenodd" d="M215.098 30.6619C215.098 30.6619 171.526 62.9875 194.853 124.203L198.477 124.282C198.477 124.282 236.27 82.1072 215.098 30.6619Z" stroke="#1B1B1B" stroke-width="0.7" stroke-linecap="round" stroke-linejoin="round"/>
<path fill-rule="evenodd" clip-rule="evenodd" d="M199.193 93.8402C199.513 93.7593 210.183 91.0098 217.266 83.0068C211.618 91.2758 200.749 95.6166 198.875 96.3183C196.901 112.037 196.108 124.23 196.108 124.23L194.853 124.203C194.853 124.203 196.209 102.302 200.089 79.5848C198.337 78.1477 194.491 74.5322 192.116 68.831C195.18 74.7165 199.287 77.3902 200.362 78.0162C203.21 61.8082 207.352 45.4314 213.215 36.5154C210.03 42.3779 207.379 50.6635 205.189 59.8225L205.189 59.8224C205.25 59.8073 213.612 57.7388 219.131 51.5897C214.381 58.4456 204.816 61.7554 204.729 61.7856L204.729 61.7858C202.335 72.2362 200.523 83.6548 199.193 93.8402ZM204.801 61.4744C204.921 60.9554 205.042 60.4388 205.164 59.9246L204.801 61.4744Z" fill="white"/>
<path d="M170.278 68.7949C170.278 68.7949 160.199 102.386 200.506 126.967L202.575 125.673C202.575 125.673 205.032 88.8743 170.278 68.7949Z" fill="white"/>
<mask id="mask3_502_3204" style="mask-type:luminance" maskUnits="userSpaceOnUse" x="169" y="68" width="34" height="59">
<path fill-rule="evenodd" clip-rule="evenodd" d="M170.278 68.7949C170.278 68.7949 160.199 102.386 200.506 126.967L202.575 125.673C202.575 125.673 205.032 88.8743 170.278 68.7949Z" fill="white"/>
</mask>
<g mask="url(#mask3_502_3204)">
<path d="M147.853 67.2657C176.897 110.779 189.249 98.739 206.394 126.906C223.539 155.073 158.909 128.417 158.909 128.417L145.356 107.852" fill="white"/>
</g>
<path fill-rule="evenodd" clip-rule="evenodd" d="M170.278 68.7949C170.278 68.7949 160.199 102.386 200.506 126.967L202.575 125.673C202.575 125.673 205.032 88.8743 170.278 68.7949Z" stroke="#1B1B1B" stroke-width="0.7" stroke-linecap="round" stroke-linejoin="round"/>
<path fill-rule="evenodd" clip-rule="evenodd" d="M190.366 110.368C196.247 119.617 201.222 126.519 201.222 126.519L200.506 126.968C200.506 126.968 191.534 114.595 183.611 100.85C180.354 100.558 177.197 99.5728 174.352 97.9611C178.689 100.022 182.184 99.956 183.064 99.8991C177.456 90.0624 172.498 79.6578 171.824 72.6624C172.644 77.0142 174.841 82.4835 177.684 88.2552L177.684 88.2547C177.734 88.1987 181.484 84.0042 181.846 78.6519C182.229 84.1204 178.335 89.4387 178.3 89.4865C181.605 96.0375 185.659 102.892 189.443 108.907C189.595 108.735 194.352 103.314 194.768 96.3702C195.275 102.936 191.105 109.297 190.366 110.368ZM177.875 88.6441C177.89 88.6747 177.906 88.7053 177.921 88.7358L177.762 88.4176C177.799 88.493 177.837 88.5686 177.875 88.6441Z" fill="white"/>
<path d="M219.761 129.253L200.51 122.174L181.259 115.094C182.898 119.995 181.265 124.288 176.67 126.836C166.623 132.409 154.675 144.067 165.78 157.633L185.032 164.713L204.283 171.792C221.474 168.632 219.829 151.975 215.73 141.201C213.856 136.273 215.364 131.934 219.761 129.253Z" fill="white"/>
<mask id="mask4_502_3204" style="mask-type:luminance" maskUnits="userSpaceOnUse" x="161" y="115" width="59" height="57">
<path fill-rule="evenodd" clip-rule="evenodd" d="M219.761 129.253L200.51 122.174L181.259 115.094C182.898 119.995 181.265 124.288 176.67 126.836C166.623 132.409 154.675 144.067 165.78 157.633L185.032 164.713L204.283 171.792C221.474 168.632 219.829 151.975 215.73 141.201C213.856 136.273 215.364 131.934 219.761 129.253Z" fill="white"/>
</mask>
<g mask="url(#mask4_502_3204)">
<path d="M240.968 118.479C176.908 120.714 239.21 180.621 178.36 163.641C117.51 146.662 212.776 194.386 212.776 194.386L222.05 195.916L248.467 172.264L234.83 138.459L225.568 128.447L240.968 118.479Z" fill="white"/>
</g>
<path fill-rule="evenodd" clip-rule="evenodd" d="M219.761 129.253V129.253L200.51 122.174L181.259 115.094V115.094C182.898 119.995 181.265 124.288 176.67 126.836C166.623 132.409 154.675 144.067 165.78 157.633L185.032 164.713L204.283 171.792C221.474 168.632 219.829 151.975 215.73 141.201C213.856 136.273 215.364 131.934 219.761 129.253Z" stroke="#1B1B1B" stroke-width="0.7" stroke-linecap="round" stroke-linejoin="round"/>
<path d="M183.922 146.042C186.248 149.503 190.069 151.908 194.181 152.499" stroke="#1B1B1B" stroke-width="0.7" stroke-linecap="round" stroke-linejoin="round"/>
<path d="M245.09 59.0579L241.946 61.1611" stroke="#1B1B1B" stroke-width="0.7" stroke-linecap="round" stroke-linejoin="round"/>
<path d="M229.23 102.565L217.814 86.7849C215.37 83.3989 211.449 81.3917 207.273 81.3886H160.198C153.181 81.3886 147.492 87.1077 147.492 94.1626V195.327H310.967V115.339C310.967 108.284 305.279 102.565 298.261 102.565L229.23 102.565Z" fill="white" stroke="#1B1B1B" stroke-width="0.7" stroke-linecap="round" stroke-linejoin="round"/>
<rect x="157.418" y="106.33" width="141.038" height="34.5266" rx="6.23351" fill="white" stroke="#1B1B1B" stroke-width="0.7" stroke-linecap="round" stroke-linejoin="round"/>
<path d="M157.866 116.146H300.593C306.322 116.146 310.967 120.79 310.967 126.52V215.904C310.967 223.735 304.619 230.084 296.788 230.084H161.672C153.84 230.084 147.492 223.735 147.492 215.904V126.52C147.492 120.79 152.137 116.146 157.866 116.146H157.866Z" fill="white"/>
<path fill-rule="evenodd" clip-rule="evenodd" d="M157.866 116.146H300.593C306.323 116.146 310.967 120.79 310.967 126.52V215.904C310.967 223.735 304.619 230.084 296.788 230.084H161.672C153.84 230.084 147.492 223.735 147.492 215.904V126.52C147.492 120.79 152.137 116.146 157.866 116.146H157.866Z" stroke="#1B1B1B" stroke-width="0.7" stroke-linecap="round" stroke-linejoin="round"/>
<rect x="162.214" y="138.97" width="62.5053" height="9.66746" fill="white"/>
<rect x="163.884" y="162.631" width="37.7779" height="22.7876" fill="white"/>
<path d="M278.592 190.907C275.693 193.313 272.402 195.203 268.864 196.496" stroke="#1B1B1B" stroke-width="0.7" stroke-linecap="round" stroke-linejoin="round"/>
<path d="M208.696 132.106L211.802 129.05" stroke="#1B1B1B" stroke-width="0.7" stroke-linecap="round" stroke-linejoin="round"/>
<path d="M54.1061 1.07486H54.1059C45.0701 1.07486 37.7452 8.43886 37.7452 17.5229V104.073H70.4668V17.5229C70.4668 8.43887 63.1419 1.07486 54.1061 1.07486Z" fill="#1B1B1B"/>
<mask id="mask5_502_3204" style="mask-type:luminance" maskUnits="userSpaceOnUse" x="37" y="1" width="34" height="104">
<path fill-rule="evenodd" clip-rule="evenodd" d="M54.1061 1.07486H54.1059C45.0701 1.07486 37.7452 8.43886 37.7452 17.5229V104.073H70.4668V17.5229C70.4668 8.43887 63.1419 1.07486 54.1061 1.07486Z" fill="white"/>
</mask>
<g mask="url(#mask5_502_3204)">
<path d="M9.77423 1.55404C96.1805 -16.1329 75.2335 127.766 75.2335 127.766L96.1805 -16.133L70.4668 -30.172" fill="#1B1B1B"/>
</g>
<path fill-rule="evenodd" clip-rule="evenodd" d="M54.1061 1.07486H54.1059C45.0701 1.07486 37.7452 8.43886 37.7452 17.5229V104.073H70.4668V17.5229C70.4668 8.43887 63.1419 1.07486 54.1061 1.07486Z" stroke="#1B1B1B" stroke-width="0.7" stroke-linecap="round" stroke-linejoin="round"/>
<path d="M219.997 1.07494H98.961V1.07483H54.106C63.1418 1.07483 70.4668 8.43883 70.4668 17.5228V29.7094H70.4668V229.818H236.358V17.5228C236.358 8.43884 229.033 1.07494 219.997 1.07494Z" fill="white"/>
<mask id="mask6_502_3204" style="mask-type:luminance" maskUnits="userSpaceOnUse" x="54" y="1" width="183" height="229">
<path fill-rule="evenodd" clip-rule="evenodd" d="M219.997 1.07494H98.961V1.07483H54.106C63.1418 1.07483 70.4668 8.43883 70.4668 17.5228V29.7094H70.4668V229.818H236.358V17.5228C236.358 8.43884 229.033 1.07494 219.997 1.07494Z" fill="white"/>
</mask>
<g mask="url(#mask6_502_3204)">
<path d="M236.358 123.681C248.046 258.214 64.76 216.097 64.76 216.097L44.9768 260.554L255.61 272.253L260.847 162.386" fill="white"/>
</g>
<path fill-rule="evenodd" clip-rule="evenodd" d="M219.997 1.07494H98.961V1.07483H54.106C63.1418 1.07483 70.4668 8.43883 70.4668 17.5228V29.7094H70.4668V229.818H236.358V17.5228C236.358 8.43884 229.033 1.07494 219.997 1.07494Z" stroke="#1B1B1B" stroke-width="0.7" stroke-linecap="round" stroke-linejoin="round"/>
<path d="M86.8276 229.818C85.8415 229.818 87.7656 229.986 86.8276 229.818V229.818Z" fill="#1B1B1B" stroke="#1B1B1B" stroke-width="0.7" stroke-linecap="round" stroke-linejoin="round"/>
<g opacity="0.73">
<path fill-rule="evenodd" clip-rule="evenodd" d="M86.8507 76.0536C86.8507 69.1296 92.4339 63.5165 99.3213 63.5165C106.209 63.5165 111.792 69.1295 111.792 76.0536C111.792 82.9777 106.209 88.5908 99.3213 88.5908C92.4339 88.5908 86.8507 82.9776 86.8507 76.0536ZM93.8219 78.3441C94.7494 80.5583 96.9207 81.9945 99.3213 81.9818C102.587 81.973 105.227 79.3189 105.218 76.0536C105.218 73.653 103.77 71.4894 101.551 70.5737C99.3319 69.6579 96.7796 70.1709 95.0867 71.873C93.3937 73.575 92.8943 76.13 93.8219 78.3441Z" fill="white"/>
<path d="M99.3213 81.9818L99.3204 81.6318L99.3194 81.6318L99.3213 81.9818ZM93.8219 78.3441L93.4991 78.4794L93.8219 78.3441ZM105.218 76.0536L104.868 76.0536L104.868 76.0545L105.218 76.0536ZM101.551 70.5737L101.685 70.2501L101.551 70.5737ZM95.0867 71.873L94.8385 71.6261L95.0867 71.873ZM99.3213 63.1665C92.2389 63.1665 86.5007 68.938 86.5007 76.0536H87.2007C87.2007 69.3211 92.629 63.8665 99.3213 63.8665V63.1665ZM112.142 76.0536C112.142 68.9379 106.404 63.1665 99.3213 63.1665V63.8665C106.014 63.8665 111.442 69.321 111.442 76.0536H112.142ZM99.3213 88.9408C106.404 88.9408 112.142 83.1692 112.142 76.0536H111.442C111.442 82.7861 106.014 88.2408 99.3213 88.2408V88.9408ZM86.5007 76.0536C86.5007 83.1691 92.2389 88.9408 99.3213 88.9408V88.2408C92.629 88.2408 87.2007 82.786 87.2007 76.0536H86.5007ZM99.3194 81.6318C97.0606 81.6438 95.0175 80.2924 94.1447 78.2089L93.4991 78.4794C94.4814 80.8243 96.7809 82.3453 99.3232 82.3318L99.3194 81.6318ZM104.868 76.0545C104.876 79.1265 102.392 81.6236 99.3204 81.6318L99.3222 82.3318C102.781 82.3225 105.577 79.5113 105.568 76.0526L104.868 76.0545ZM101.418 70.8972C103.506 71.7588 104.868 73.7947 104.868 76.0536L105.568 76.0536C105.568 73.5112 104.035 71.2199 101.685 70.2501L101.418 70.8972ZM95.3348 72.1198C96.9278 70.5183 99.3294 70.0355 101.418 70.8972L101.685 70.2501C99.3344 69.2803 96.6314 69.8236 94.8385 71.6261L95.3348 72.1198ZM94.1447 78.2089C93.2719 76.1255 93.7418 73.7213 95.3348 72.1198L94.8385 71.6261C93.0456 73.4286 92.5168 76.1345 93.4991 78.4794L94.1447 78.2089Z" fill="#1B1B1B"/>
<rect x="117.681" y="67.3208" width="103.575" height="6.99488" rx="3.43543" fill="white" stroke="#1B1B1B" stroke-width="0.7" stroke-linecap="round" stroke-linejoin="round"/>
<rect x="117.681" y="77.8973" width="37.8638" height="6.88917" rx="3.43543" fill="white" stroke="#1B1B1B" stroke-width="0.7" stroke-linecap="round" stroke-linejoin="round"/>
<rect x="159.711" y="77.8973" width="37.8638" height="6.88917" rx="3.43543" fill="white" stroke="#1B1B1B" stroke-width="0.7" stroke-linecap="round" stroke-linejoin="round"/>
</g>
<g opacity="0.73">
<path fill-rule="evenodd" clip-rule="evenodd" d="M86.8507 167.621C86.8507 160.697 92.4339 155.084 99.3213 155.084C106.209 155.084 111.792 160.697 111.792 167.621C111.792 174.545 106.209 180.159 99.3213 180.159C92.4339 180.159 86.8507 174.545 86.8507 167.621ZM93.8219 169.912C94.7494 172.126 96.9207 173.562 99.3213 173.55C102.587 173.541 105.227 170.887 105.218 167.621C105.218 165.221 103.77 163.057 101.551 162.141C99.3319 161.226 96.7796 161.739 95.0867 163.441C93.3937 165.143 92.8943 167.698 93.8219 169.912Z" fill="white"/>
<path d="M99.3213 173.55L99.3204 173.2L99.3194 173.2L99.3213 173.55ZM93.8219 169.912L93.4991 170.047L93.8219 169.912ZM105.218 167.621L104.868 167.621L104.868 167.622L105.218 167.621ZM101.551 162.141L101.685 161.818L101.551 162.141ZM95.0867 163.441L94.8385 163.194L95.0867 163.441ZM99.3213 154.734C92.2389 154.734 86.5007 160.506 86.5007 167.621H87.2007C87.2007 160.889 92.629 155.434 99.3213 155.434V154.734ZM112.142 167.621C112.142 160.506 106.404 154.734 99.3213 154.734V155.434C106.014 155.434 111.442 160.889 111.442 167.621H112.142ZM99.3213 180.509C106.404 180.509 112.142 174.737 112.142 167.621H111.442C111.442 174.354 106.014 179.809 99.3213 179.809V180.509ZM86.5007 167.621C86.5007 174.737 92.2389 180.509 99.3213 180.509V179.809C92.629 179.809 87.2007 174.354 87.2007 167.621H86.5007ZM99.3194 173.2C97.0606 173.212 95.0175 171.86 94.1447 169.777L93.4991 170.047C94.4814 172.392 96.7809 173.913 99.3232 173.9L99.3194 173.2ZM104.868 167.622C104.876 170.694 102.392 173.191 99.3204 173.2L99.3222 173.9C102.781 173.89 105.577 171.079 105.568 167.62L104.868 167.622ZM101.418 162.465C103.506 163.327 104.868 165.362 104.868 167.621L105.568 167.621C105.568 165.079 104.035 162.788 101.685 161.818L101.418 162.465ZM95.3348 163.688C96.9278 162.086 99.3294 161.603 101.418 162.465L101.685 161.818C99.3344 160.848 96.6314 161.391 94.8385 163.194L95.3348 163.688ZM94.1447 169.777C93.2719 167.693 93.7418 165.289 95.3348 163.688L94.8385 163.194C93.0456 164.996 92.5168 167.702 93.4991 170.047L94.1447 169.777Z" fill="#1B1B1B"/>
<rect x="117.681" y="158.889" width="103.575" height="6.99488" rx="3.43543" fill="white" stroke="#1B1B1B" stroke-width="0.7" stroke-linecap="round" stroke-linejoin="round"/>
<rect x="117.681" y="169.465" width="37.8638" height="6.88917" rx="3.43543" fill="white" stroke="#1B1B1B" stroke-width="0.7" stroke-linecap="round" stroke-linejoin="round"/>
<rect x="159.711" y="169.465" width="37.8638" height="6.88917" rx="3.43543" fill="white" stroke="#1B1B1B" stroke-width="0.7" stroke-linecap="round" stroke-linejoin="round"/>
</g>
<rect x="135.621" y="26.774" width="36.8647" height="7.14024" rx="2.03465" fill="white" stroke="#1B1B1B" stroke-width="0.7" stroke-linecap="round" stroke-linejoin="round"/>
<rect x="123.107" y="40.8845" width="61.8922" height="4.08014" rx="2.03465" fill="white" stroke="#1B1B1B" stroke-width="0.7" stroke-linecap="round" stroke-linejoin="round"/>
<path fill-rule="evenodd" clip-rule="evenodd" d="M86.8507 121.837C86.8507 114.913 92.4339 109.3 99.3213 109.3C106.209 109.3 111.792 114.913 111.792 121.837C111.792 128.762 106.209 134.375 99.3213 134.375C92.4339 134.375 86.8507 128.761 86.8507 121.837ZM93.8219 124.128C94.7494 126.342 96.9207 127.778 99.3213 127.766C102.587 127.757 105.227 125.103 105.218 121.837C105.218 119.437 103.77 117.273 101.551 116.358C99.3319 115.442 96.7796 115.955 95.0867 117.657C93.3937 119.359 92.8943 121.914 93.8219 124.128Z" fill="white"/>
<path d="M99.3213 127.766L99.3204 127.416L99.3194 127.416L99.3213 127.766ZM105.218 121.837L104.868 121.837L104.868 121.838L105.218 121.837ZM95.0867 117.657L94.8385 117.41L95.0867 117.657ZM99.3213 108.95C92.2389 108.95 86.5007 114.722 86.5007 121.837H87.2007C87.2007 115.105 92.629 109.65 99.3213 109.65V108.95ZM112.142 121.837C112.142 114.722 106.404 108.95 99.3213 108.95V109.65C106.014 109.65 111.442 115.105 111.442 121.837H112.142ZM99.3213 134.725C106.404 134.725 112.142 128.953 112.142 121.837H111.442C111.442 128.57 106.014 134.025 99.3213 134.025V134.725ZM86.5007 121.837C86.5007 128.953 92.2389 134.725 99.3213 134.725V134.025C92.629 134.025 87.2007 128.57 87.2007 121.837H86.5007ZM99.3194 127.416C97.0606 127.428 95.0175 126.076 94.1447 123.993L93.4991 124.263C94.4814 126.608 96.7809 128.129 99.3232 128.116L99.3194 127.416ZM104.868 121.838C104.876 124.91 102.392 127.407 99.3204 127.416L99.3222 128.116C102.781 128.106 105.577 125.295 105.568 121.837L104.868 121.838ZM101.417 116.681C103.506 117.543 104.868 119.579 104.868 121.837L105.568 121.837C105.568 119.295 104.035 117.004 101.685 116.034L101.417 116.681ZM95.3348 117.904C96.9278 116.302 99.3294 115.819 101.417 116.681L101.685 116.034C99.3344 115.064 96.6314 115.608 94.8385 117.41L95.3348 117.904ZM94.1447 123.993C93.2719 121.909 93.7418 119.505 95.3348 117.904L94.8385 117.41C93.0456 119.213 92.5168 121.918 93.4991 124.263L94.1447 123.993Z" fill="#1B1B1B"/>
<rect x="117.681" y="113.105" width="103.575" height="6.99488" rx="3.43543" fill="white" stroke="#1B1B1B" stroke-width="0.7" stroke-linecap="round" stroke-linejoin="round"/>
<rect x="117.681" y="123.681" width="37.8638" height="6.88917" rx="3.43543" fill="white" stroke="#1B1B1B" stroke-width="0.7" stroke-linecap="round" stroke-linejoin="round"/>
<rect x="159.711" y="123.681" width="37.8638" height="6.88917" rx="3.43543" fill="white" stroke="#1B1B1B" stroke-width="0.7" stroke-linecap="round" stroke-linejoin="round"/>
<path d="M101.942 22.9837L97.5784 26.4935" stroke="#1B1B1B" stroke-width="0.7" stroke-linecap="round" stroke-linejoin="round"/>
<path d="M210.215 207.294C206.76 210.785 202.56 213.45 197.93 215.088" stroke="#1B1B1B" stroke-width="0.7" stroke-linecap="round" stroke-linejoin="round"/>
<rect x="44.5919" y="132.775" width="19.2322" height="42.3568" fill="white"/>
<mask id="mask7_502_3204" style="mask-type:luminance" maskUnits="userSpaceOnUse" x="44" y="132" width="20" height="44">
<rect x="44.5919" y="132.775" width="19.2322" height="42.3568" fill="white"/>
</mask>
<g mask="url(#mask7_502_3204)">
<path d="M67.7579 139.217C62.7091 154.002 46.6848 142.242 46.2458 152.678C45.8067 163.114 61.2772 164.944 69.8956 163.114C78.514 161.285 63.8241 180.043 63.8241 180.043L30.4409 170.112L38.3433 138.113L52.6116 138.775" fill="white"/>
</g>
<rect x="44.5919" y="132.775" width="19.2322" height="42.3568" stroke="#1B1B1B" stroke-width="0.7" stroke-linecap="round" stroke-linejoin="round"/>
<path d="M54.208 231.456C44.7368 231.456 37.1212 223.62 37.3413 214.101L38.5205 163.114H69.8956L71.0747 214.101C71.2949 223.62 63.6793 231.456 54.208 231.456Z" fill="white"/>
<mask id="mask8_502_3204" style="mask-type:luminance" maskUnits="userSpaceOnUse" x="37" y="163" width="35" height="69">
<path fill-rule="evenodd" clip-rule="evenodd" d="M54.208 231.456C44.7368 231.456 37.1212 223.62 37.3413 214.101L38.5205 163.114H69.8956L71.0747 214.101C71.2949 223.62 63.6793 231.456 54.208 231.456Z" fill="white"/>
</mask>
<g mask="url(#mask8_502_3204)">
<path d="M68.4164 155.988C70.8022 234.506 48.4409 220.388 33.5141 222.394C18.5873 224.4 54.2081 248.675 54.2081 248.675L87.514 252.647L92.5221 190.415L74.7823 166.006" fill="white"/>
</g>
<path fill-rule="evenodd" clip-rule="evenodd" d="M54.208 231.456V231.456C44.7368 231.456 37.1212 223.62 37.3413 214.101L38.5205 163.114H69.8956L71.0747 214.101C71.2949 223.62 63.6793 231.456 54.208 231.456Z" stroke="#1B1B1B" stroke-width="0.7" stroke-linecap="round" stroke-linejoin="round"/>
<path fill-rule="evenodd" clip-rule="evenodd" d="M1.03271 93.8718C1.03271 64.5601 24.6684 40.7981 53.8249 40.7981C82.9815 40.7981 106.617 64.5601 106.617 93.8718C106.617 123.184 82.9815 146.946 53.8249 146.946C24.6684 146.946 1.03271 123.184 1.03271 93.8718ZM15.1279 93.8718C15.1279 115.358 32.4531 132.775 53.8249 132.775C75.1968 132.775 92.522 115.358 92.522 93.8718C92.522 72.386 75.1968 54.9684 53.8249 54.9684C32.4531 54.9684 15.1279 72.386 15.1279 93.8718Z" fill="white"/>
<path d="M53.8249 40.4481C24.4733 40.4481 0.682715 64.3686 0.682715 93.8718H1.38271C1.38271 64.7516 24.8634 41.1481 53.8249 41.1481V40.4481ZM0.682715 93.8718C0.682715 123.375 24.4733 147.296 53.8249 147.296V146.596C24.8634 146.596 1.38271 122.992 1.38271 93.8718H0.682715ZM53.8249 147.296C83.1765 147.296 106.967 123.375 106.967 93.8718H106.267C106.267 122.992 82.7864 146.596 53.8249 146.596V147.296ZM106.967 93.8718C106.967 64.3686 83.1765 40.4481 53.8249 40.4481V41.1481C82.7864 41.1481 106.267 64.7517 106.267 93.8718H106.967ZM53.8249 132.425C32.6482 132.425 15.4779 115.166 15.4779 93.8718H14.7779C14.7779 115.549 32.2581 133.125 53.8249 133.125V132.425ZM15.4779 93.8718C15.4779 72.5775 32.6482 55.3184 53.8249 55.3184V54.6184C32.2581 54.6184 14.7779 72.1945 14.7779 93.8718H15.4779ZM53.8249 55.3184C75.0017 55.3184 92.172 72.5776 92.172 93.8718H92.872C92.872 72.1945 75.3918 54.6184 53.8249 54.6184V55.3184ZM92.172 93.8718C92.172 115.166 75.0017 132.425 53.8249 132.425V133.125C75.3918 133.125 92.872 115.549 92.872 93.8718H92.172Z" fill="#1B1B1B"/>
<path d="M31.487 53.7473C29.2177 56.1755 26.5518 58.1998 23.6035 59.7338" stroke="#1B1B1B" stroke-width="0.7" stroke-linecap="round" stroke-linejoin="round"/>
<path d="M59.1542 196.095L57.1786 198.744" stroke="#1B1B1B" stroke-width="0.7" stroke-linecap="round" stroke-linejoin="round"/>
<path d="M200.727 229.525C202.185 231.578 213.96 233.103 216.563 234.614C219.842 236.016 202.618 235.55 196.264 235.017C194.368 234.858 192.911 233.765 192.819 232.421C192.113 222.135 186.998 177.417 186.998 177.417L202.091 181.673C202.091 181.673 202.764 201.8 201.209 210.425C199.654 219.05 200.727 229.525 200.727 229.525Z" fill="white"/>
<mask id="mask9_502_3204" style="mask-type:luminance" maskUnits="userSpaceOnUse" x="186" y="177" width="31" height="59">
<path fill-rule="evenodd" clip-rule="evenodd" d="M200.727 229.525C202.185 231.578 213.96 233.103 216.563 234.614C219.842 236.016 202.618 235.55 196.264 235.017C194.368 234.858 192.911 233.765 192.819 232.421C192.113 222.135 186.998 177.417 186.998 177.417L202.091 181.673C202.091 181.673 202.764 201.8 201.209 210.425C199.654 219.05 200.727 229.525 200.727 229.525Z" fill="white"/>
</mask>
<g mask="url(#mask9_502_3204)">
<path d="M179.08 202.407C193.658 204.316 188.711 189.324 192.486 190.557C196.261 191.79 203.82 192.068 204.726 190.557C205.632 189.047 193.249 186.423 193.249 186.423L188.592 185.349L186.501 190.557L182.824 198.471" fill="white"/>
</g>
<path fill-rule="evenodd" clip-rule="evenodd" d="M200.727 229.525C202.185 231.578 213.96 233.103 216.563 234.614C219.842 236.016 202.618 235.55 196.264 235.017C194.368 234.858 192.911 233.765 192.819 232.421C192.113 222.135 186.998 177.417 186.998 177.417L202.091 181.673C202.091 181.673 202.764 201.8 201.209 210.425C199.654 219.05 200.727 229.525 200.727 229.525Z" stroke="#1B1B1B" stroke-width="0.7" stroke-linecap="round" stroke-linejoin="round"/>
<path d="M187.33 187.929C198.374 191.806 207.389 190.248 207.389 190.248C207.389 190.248 205.567 163.996 193.065 164.279C182.873 164.51 187.33 187.929 187.33 187.929Z" fill="white"/>
<mask id="mask10_502_3204" style="mask-type:luminance" maskUnits="userSpaceOnUse" x="186" y="164" width="22" height="27">
<path fill-rule="evenodd" clip-rule="evenodd" d="M187.33 187.929C198.374 191.806 207.389 190.248 207.389 190.248C207.389 190.248 205.567 163.996 193.065 164.279C182.873 164.51 187.33 187.929 187.33 187.929Z" fill="white"/>
</mask>
<g mask="url(#mask10_502_3204)">
<path d="M186.998 173.42C192.788 171.385 195.053 180.935 193.249 186.423C191.445 191.91 206.153 190.615 207.389 190.248C208.626 189.882 201.391 195.011 201.391 195.011L183.021 189.882L187.639 183.917L194.178 177.417" fill="white"/>
<path d="M189.587 185.409C195.285 188.586 207.532 186.6 207.532 186.6L208.867 192.89L188.748 190.903L189.587 185.409Z" fill="white" stroke="#1B1B1B" stroke-width="0.7" stroke-linecap="round" stroke-linejoin="round"/>
</g>
<path fill-rule="evenodd" clip-rule="evenodd" d="M187.33 187.929C198.374 191.806 207.389 190.248 207.389 190.248C207.389 190.248 205.567 163.996 193.065 164.279C182.873 164.51 187.33 187.929 187.33 187.929Z" stroke="#1B1B1B" stroke-width="0.7" stroke-linecap="round" stroke-linejoin="round"/>
<rect x="27.9432" y="222.122" width="30.4199" height="9.24534" fill="white"/>
<mask id="mask11_502_3204" style="mask-type:luminance" maskUnits="userSpaceOnUse" x="27" y="222" width="32" height="10">
<rect x="27.9432" y="222.122" width="30.4199" height="9.24534" fill="white"/>
</mask>
<g mask="url(#mask11_502_3204)">
<path d="M33.5798 221.652C33.5798 221.652 37.0664 218.366 37.0664 221.426C37.0664 224.485 31.3566 230.297 35.6483 231.368C39.9399 232.438 41.8841 224.939 43.1531 222.559C44.422 220.179 47.0464 228.58 47.0464 228.58L44.7868 233.948L35.9492 235.705L24.7378 233.325L28.1433 227.205" fill="white"/>
</g>
<rect x="27.9432" y="222.122" width="30.4199" height="9.24534" stroke="#1B1B1B" stroke-width="0.7" stroke-linecap="round" stroke-linejoin="round"/>
<path d="M43.1531 218.638C39.564 224.081 41.8466 231.533 41.8466 231.533L170.312 232.028L173.712 208.524L152.205 203.258C152.205 203.258 123.802 211.391 95.9245 213.344C68.0476 215.296 43.1531 218.638 43.1531 218.638Z" fill="white"/>
<mask id="mask12_502_3204" style="mask-type:luminance" maskUnits="userSpaceOnUse" x="41" y="203" width="133" height="30">
<path fill-rule="evenodd" clip-rule="evenodd" d="M43.1531 218.638C39.564 224.081 41.8466 231.533 41.8466 231.533L170.312 232.028L173.712 208.524L152.205 203.258C152.205 203.258 123.802 211.391 95.9245 213.344C68.0476 215.296 43.1531 218.638 43.1531 218.638Z" fill="white"/>
</mask>
<g mask="url(#mask12_502_3204)">
<path d="M91.9319 213.946C122.801 206.013 139.164 217.529 153.701 231.964C168.655 246.814 196.444 223.919 196.444 223.919L165.807 214.853L151.018 208.025L139.442 201.707L122.687 200.646L102.061 208.025" fill="white"/>
<path d="M48.6425 208.025C41.3444 227.437 51.925 230.4 62.0334 227.902C72.1419 225.404 88.8961 226.565 90.1092 231.533C91.3224 236.501 87.4703 230.153 99.7698 233.048C112.069 235.944 80.9588 236.397 80.9588 236.397L59.0127 233.048L52.5012 232.317L43.3368 232.72L35.3784 232.06L42.6134 213.505L48.6425 208.025Z" fill="white"/>
<path d="M49.7484 215.889C45.3033 220.119 50.407 234.764 50.407 234.764L33.3018 232.035L41.8466 210.599" fill="white"/>
<path d="M49.7484 215.889C45.3033 220.119 50.407 234.764 50.407 234.764L33.3018 232.035L41.8466 210.599" stroke="#1B1B1B" stroke-width="0.7" stroke-linecap="round" stroke-linejoin="round"/>
</g>
<path fill-rule="evenodd" clip-rule="evenodd" d="M43.1531 218.638C39.564 224.081 41.8466 231.533 41.8466 231.533L170.312 232.028L173.712 208.524L152.205 203.258C152.205 203.258 123.802 211.391 95.9245 213.344C68.0476 215.296 43.1531 218.638 43.1531 218.638Z" stroke="#1B1B1B" stroke-width="0.7" stroke-linecap="round" stroke-linejoin="round"/>
<path d="M102.565 210.718L90.1092 231.533L78.7366 230.655L93.2231 207.333L102.565 210.718Z" fill="white"/>
<mask id="mask13_502_3204" style="mask-type:luminance" maskUnits="userSpaceOnUse" x="78" y="207" width="25" height="25">
<path fill-rule="evenodd" clip-rule="evenodd" d="M102.565 210.718L90.1092 231.533L78.7366 230.655L93.2231 207.333L102.565 210.718Z" fill="white"/>
</mask>
<g mask="url(#mask13_502_3204)">
<path d="M80.8038 221.001C81.876 220.882 82.9 220.778 83.8722 220.696C89.8759 220.186 93.9049 220.487 95.1186 223.162C96.5289 226.27 99.8261 218.527 99.8261 218.527L92.8935 216.995L89.5018 217.17L80.8038 221.001Z" fill="white"/>
</g>
<path fill-rule="evenodd" clip-rule="evenodd" d="M102.565 210.718L90.1092 231.533L78.7366 230.655L93.2231 207.333L102.565 210.718V210.718Z" stroke="#1B1B1B" stroke-width="0.7" stroke-linecap="round" stroke-linejoin="round"/>
<path d="M24.7379 200.06V232.035H33.3019C33.3019 232.035 36.7777 220.875 35.7639 220.123C34.7501 219.37 29.5025 219.036 28.957 209.59C28.2329 197.051 24.7379 200.06 24.7379 200.06Z" fill="#1B1B1B" stroke="#1B1B1B" stroke-width="0.7" stroke-linecap="round" stroke-linejoin="round"/>
<path d="M84.9879 217.024C86.9195 222.122 97.75 222.382 97.75 222.382C97.75 222.382 119.624 202.221 123.144 196.704C123.144 196.704 153.471 241.093 174.05 230.811C194.629 220.529 188.131 196.704 188.131 196.704L166.539 189.728L165.185 199.509C165.185 199.509 130.726 175.388 117.187 177.896C103.648 180.404 84.9879 217.024 84.9879 217.024Z" fill="white"/>
<mask id="mask14_502_3204" style="mask-type:luminance" maskUnits="userSpaceOnUse" x="84" y="177" width="106" height="56">
<path fill-rule="evenodd" clip-rule="evenodd" d="M84.9879 217.024C86.9195 222.122 97.75 222.382 97.75 222.382C97.75 222.382 119.624 202.221 123.144 196.704C123.144 196.704 153.471 241.093 174.05 230.811C194.629 220.529 188.131 196.704 188.131 196.704L166.539 189.728L165.185 199.509C165.185 199.509 130.726 175.388 117.187 177.896C103.648 180.404 84.9879 217.024 84.9879 217.024Z" fill="white"/>
</mask>
<g mask="url(#mask14_502_3204)">
<path d="M165.407 197.909C165.715 197.474 164.873 199.895 165.185 199.509C170.48 192.956 174.68 195.216 182.302 198.534C190.372 202.047 193.303 196.381 193.303 196.381L173.238 188.901L169.293 188.674L164.088 189.241L162.621 195.814" fill="white"/>
<path d="M127.472 231.368C134.65 208.116 150.503 229.365 161.12 234.041C171.737 238.717 194.154 215.154 188.769 199.931C183.383 184.708 215.623 235.705 215.623 235.705L170.307 241.144L162.621 239.784L147.086 239.558" fill="white"/>
<path d="M186.36 212.089C189.687 214.241 188.748 217.643 188.748 217.643L177.145 233.109L175.805 228.971C175.805 228.971 184.35 221.689 186.36 212.089Z" fill="white"/>
<path d="M87.7788 206.479C85.9678 212.254 104.242 218.81 104.242 218.81L99.826 226.745L82.5105 220.122" fill="white"/>
<path d="M87.7788 206.479C85.9678 212.254 104.242 218.81 104.242 218.81L99.826 226.745L82.5105 220.122" stroke="#1B1B1B" stroke-width="0.7" stroke-linecap="round" stroke-linejoin="round"/>
</g>
<path fill-rule="evenodd" clip-rule="evenodd" d="M84.9879 217.024C86.9195 222.122 97.75 222.382 97.75 222.382C97.75 222.382 119.624 202.221 123.144 196.704C123.144 196.704 153.471 241.093 174.05 230.811C194.629 220.529 188.131 196.704 188.131 196.704L166.539 189.728L165.185 199.509C165.185 199.509 130.726 175.388 117.187 177.896C103.648 180.404 84.9879 217.024 84.9879 217.024Z" stroke="#1B1B1B" stroke-width="0.7" stroke-linecap="round" stroke-linejoin="round"/>
<path d="M59.0041 233.849C61.4016 227.89 67.9692 227.335 73.0912 227.986C83.1693 229.267 82.1438 222.122 82.1438 222.122H95.1186L90.4646 233.314L59.0041 233.849Z" fill="#1B1B1B" stroke="#1B1B1B" stroke-width="0.7" stroke-linecap="round" stroke-linejoin="round"/>
<path d="M193.18 164.279C192.532 163.091 161.225 156.004 161.225 156.004C161.246 157.511 158.023 181.481 160.414 189.071L189.723 198.033C189.723 198.033 191.804 181.523 192.769 171.585" fill="white"/>
<mask id="mask15_502_3204" style="mask-type:luminance" maskUnits="userSpaceOnUse" x="159" y="156" width="35" height="43">
<path fill-rule="evenodd" clip-rule="evenodd" d="M193.18 164.279C192.532 163.091 161.225 156.004 161.225 156.004C161.246 157.511 158.023 181.481 160.414 189.071L189.723 198.033C189.723 198.033 191.804 181.523 192.769 171.585" fill="white"/>
</mask>
<g mask="url(#mask15_502_3204)">
<ellipse cx="183.333" cy="159.937" rx="5.56924" ry="9.81833" transform="rotate(-76.0251 183.333 159.937)" fill="white" stroke="#1B1B1B" stroke-width="0.7" stroke-linecap="round" stroke-linejoin="round"/>
<path d="M170.926 170.819V184.606L192.973 176.738L170.926 170.819Z" fill="white"/>
<mask id="mask16_502_3204" style="mask-type:luminance" maskUnits="userSpaceOnUse" x="170" y="170" width="23" height="15">
<path fill-rule="evenodd" clip-rule="evenodd" d="M170.926 170.819V184.606L192.973 176.738L170.926 170.819Z" fill="white"/>
</mask>
<g mask="url(#mask16_502_3204)">
<rect x="168.021" y="165.937" width="6.03304" height="22.7869" fill="white" stroke="#1B1B1B" stroke-width="0.7" stroke-linecap="round" stroke-linejoin="round"/>
</g>
<path fill-rule="evenodd" clip-rule="evenodd" d="M170.926 170.819V184.606L192.973 176.738L170.926 170.819V170.819Z" stroke="#1B1B1B" stroke-width="0.7" stroke-linecap="round" stroke-linejoin="round"/>
</g>
<path d="M193.18 164.279C192.532 163.091 161.225 156.004 161.225 156.004C161.246 157.511 158.023 181.481 160.414 189.071L189.723 198.033C189.723 198.033 191.804 181.523 192.769 171.585" stroke="#1B1B1B" stroke-width="0.7" stroke-linecap="round" stroke-linejoin="round"/>
<path d="M226.545 159.901C230.58 157.515 229.437 154.893 230.363 154.732C231.553 154.525 233.083 157.102 231.1 159.941C229.954 161.582 244.572 158.672 247.818 160.188C250.52 161.45 240.58 161.969 229.778 164.97C223.393 166.744 203.898 182.734 193.637 181.66C188.783 181.152 161.225 173.285 161.225 173.285L168.858 161.802C168.858 161.802 192.9 170.153 196.968 170.382C201.036 170.61 226.545 159.901 226.545 159.901Z" fill="white"/>
<mask id="mask17_502_3204" style="mask-type:luminance" maskUnits="userSpaceOnUse" x="161" y="154" width="88" height="28">
<path fill-rule="evenodd" clip-rule="evenodd" d="M226.545 159.901C230.58 157.515 229.437 154.893 230.363 154.732C231.553 154.525 233.083 157.102 231.1 159.941C229.954 161.582 244.572 158.672 247.818 160.188C250.52 161.45 240.58 161.969 229.778 164.97C223.393 166.744 203.898 182.734 193.637 181.66C188.783 181.152 161.225 173.285 161.225 173.285L168.858 161.802C168.858 161.802 192.9 170.153 196.968 170.382C201.036 170.61 226.545 159.901 226.545 159.901Z" fill="white"/>
</mask>
<g mask="url(#mask17_502_3204)">
<path d="M168.858 161.802C180.349 166.352 177.737 164.277 177.737 164.277C177.737 164.277 178.694 172.139 176.873 174.635C175.052 177.131 190.892 182.098 195.87 180.846C200.849 179.593 209.447 179.171 209.447 179.171L181.839 185.409L168.048 176.551L168.439 171.362L172.734 164.921" fill="white"/>
</g>
<path fill-rule="evenodd" clip-rule="evenodd" d="M226.545 159.901C230.58 157.515 229.437 154.893 230.363 154.732C231.553 154.525 233.083 157.102 231.1 159.941C229.954 161.582 244.572 158.672 247.818 160.188C250.52 161.45 240.58 161.969 229.778 164.97C223.393 166.744 203.898 182.734 193.637 181.66C188.783 181.152 161.225 173.285 161.225 173.285L168.858 161.802C168.858 161.802 192.9 170.153 196.968 170.382C201.036 170.61 226.545 159.901 226.545 159.901Z" stroke="#1B1B1B" stroke-width="0.7" stroke-linecap="round" stroke-linejoin="round"/>
<path d="M176.275 161.67C179.084 171.569 171.091 180.083 171.091 180.083C171.091 180.083 143.176 169.398 152.728 157.711C159.96 148.863 176.275 161.67 176.275 161.67Z" fill="white"/>
<mask id="mask18_502_3204" style="mask-type:luminance" maskUnits="userSpaceOnUse" x="150" y="154" width="27" height="27">
<path fill-rule="evenodd" clip-rule="evenodd" d="M176.275 161.67C179.084 171.569 171.091 180.083 171.091 180.083C171.091 180.083 143.176 169.398 152.728 157.711C159.96 148.863 176.275 161.67 176.275 161.67Z" fill="white"/>
</mask>
<g mask="url(#mask18_502_3204)">
<path d="M156.301 151.999C151.02 160.812 156.513 171.913 159.531 174.635C162.549 177.357 147.971 170.08 147.971 170.08L147.32 159.464L151.225 154.595L156.301 151.999Z" fill="white"/>
<path d="M172.73 156.708C176.873 174.635 164.882 180.151 164.882 180.151L174.702 186.6L181.949 170.049" fill="white"/>
<path d="M172.73 156.708C176.873 174.635 164.882 180.151 164.882 180.151L174.702 186.6L181.949 170.049" stroke="#1B1B1B" stroke-width="0.7" stroke-linecap="round" stroke-linejoin="round"/>
</g>
<path fill-rule="evenodd" clip-rule="evenodd" d="M176.275 161.67C179.084 171.569 171.091 180.083 171.091 180.083C171.091 180.083 143.176 169.398 152.728 157.711C159.96 148.863 176.275 161.67 176.275 161.67Z" stroke="#1B1B1B" stroke-width="0.7" stroke-linecap="round" stroke-linejoin="round"/>
<ellipse cx="185.782" cy="140.876" rx="11.45" ry="9.92378" transform="rotate(-16.8499 185.782 140.876)" fill="#1B1B1B" stroke="#1B1B1B" stroke-width="0.7" stroke-linecap="round" stroke-linejoin="round"/>
<path d="M189.17 163.425L186.115 141.869L178.178 148.458C178.178 148.458 178.185 156.509 177.145 160.419" fill="white"/>
<mask id="mask19_502_3204" style="mask-type:luminance" maskUnits="userSpaceOnUse" x="177" y="141" width="13" height="23">
<path fill-rule="evenodd" clip-rule="evenodd" d="M189.17 163.425L186.115 141.869L178.178 148.458C178.178 148.458 178.185 156.509 177.145 160.419" fill="white"/>
</mask>
<g mask="url(#mask19_502_3204)">
<path d="M183.09 150.853C183.386 157.598 187.408 157.735 187.24 161.249C187.072 164.764 196.084 160.114 196.084 160.114L193.35 151.851L183.09 150.853Z" fill="white"/>
</g>
<path d="M189.17 163.425L186.115 141.869L178.178 148.458C178.178 148.458 178.185 156.509 177.145 160.419" stroke="#1B1B1B" stroke-width="0.7" stroke-linecap="round" stroke-linejoin="round"/>
<path d="M192.267 134.226C192.152 133.545 191.878 132.9 191.467 132.345C189.383 129.548 184.261 129.426 180.027 132.073C178.633 132.926 177.439 134.07 176.527 135.427C174.58 135.615 172.703 136.253 171.044 137.291C166.195 140.322 164.552 145.851 167.375 149.641C170.198 153.431 176.418 154.045 181.267 151.013C183.994 149.309 185.706 146.815 186.182 144.284C186.74 143.654 187.211 142.951 187.583 142.196C190.949 140.087 192.729 136.864 192.267 134.226Z" fill="#1B1B1B" stroke="#1B1B1B" stroke-width="0.7" stroke-linecap="round" stroke-linejoin="round"/>
<path d="M183.534 153.649C190.869 160.306 198.831 154.481 192.267 134.226C192.729 136.864 190.949 140.087 187.583 142.196C186.815 143.818 185.409 145.393 183.478 146.601C181.77 147.668 180.645 147.681 178.906 147.854L179.593 148.632" fill="white"/>
<path d="M183.534 153.649C190.869 160.306 198.831 154.481 192.267 134.226C192.729 136.864 190.949 140.087 187.583 142.196C186.815 143.818 185.409 145.393 183.478 146.601C181.77 147.668 180.645 147.681 178.906 147.854L179.593 148.632" stroke="#1B1B1B" stroke-width="0.7" stroke-linecap="round" stroke-linejoin="round"/>
<path d="M181.493 151.391C174.603 147.738 179.502 140.369 184.661 146.221L181.493 151.391Z" fill="white"/>
<path d="M181.493 151.391C174.603 147.738 179.502 140.369 184.661 146.221" stroke="#1B1B1B" stroke-width="0.7" stroke-linecap="round" stroke-linejoin="round"/>
<path d="M174.702 205.034L163.805 198.563L174.702 205.034Z" fill="#1B1B1B"/>
<path d="M174.702 205.034L163.805 198.563" stroke="#1B1B1B" stroke-width="0.7" stroke-linecap="round" stroke-linejoin="round"/>
<path d="M191.982 143.387C192.399 143.37 192.752 143.694 192.769 144.112L192.823 145.404C192.841 145.821 192.516 146.174 192.099 146.191C191.681 146.209 191.328 145.884 191.311 145.467L191.257 144.175C191.24 143.757 191.564 143.405 191.982 143.387L191.982 143.387Z" fill="#1B1B1B"/>
<path d="M192.551 140.834C190.262 140.827 189.793 141.8 191.223 141.898C192.654 141.996 194.046 140.838 192.551 140.834Z" fill="#1B1B1B"/>
<path d="M193.778 144.653C196.635 146.331 196.032 149.463 194.072 148.843L193.778 144.653Z" fill="white"/>
<path d="M193.778 144.653C196.635 146.331 196.032 149.463 194.072 148.843" stroke="#1B1B1B" stroke-width="0.7" stroke-linecap="round" stroke-linejoin="round"/>
<ellipse opacity="0.27" cx="187.148" cy="147.657" rx="2.54188" ry="2.55543" fill="white"/>
<path d="M189.89 149.515C190.892 150.975 192.418 150.759 192.418 150.759L189.89 149.515Z" fill="white"/>
<path d="M189.89 149.515C190.892 150.975 192.418 150.759 192.418 150.759" stroke="#1B1B1B" stroke-width="0.7" stroke-linecap="round" stroke-linejoin="round"/>
<path d="M182.069 146.67C181.975 146.477 181.804 146.332 181.598 146.271C181.392 146.211 181.169 146.241 180.986 146.354C180.816 146.486 180.709 146.683 180.691 146.898C180.674 147.113 180.747 147.325 180.894 147.483" stroke="#1B1B1B" stroke-width="0.7" stroke-linecap="round" stroke-linejoin="round"/>
<path d="M185.135 133.472C185.225 135.665 184.294 137.776 182.615 139.19" stroke="#1B1B1B" stroke-width="0.7" stroke-linecap="round" stroke-linejoin="round"/>
<path d="M172.808 143.148C172.05 143.837 171.798 144.923 172.175 145.875" stroke="#1B1B1B" stroke-width="0.7" stroke-linecap="round" stroke-linejoin="round"/>
<path d="M197.131 170.867C197.285 171.467 197.38 172.08 197.415 172.698" stroke="#1B1B1B" stroke-width="0.7" stroke-linecap="round" stroke-linejoin="round"/>
<path d="M165.494 208.45C165.146 209.827 165.256 211.28 165.81 212.588" stroke="#1B1B1B" stroke-width="0.7" stroke-linecap="round" stroke-linejoin="round"/>
<path d="M59.8514 221.66L60.8043 223.663" stroke="#1B1B1B" stroke-width="0.7" stroke-linecap="round" stroke-linejoin="round"/>
<path d="M33.0408 212.706L31.1981 215.534C32.8648 215.347 34.508 214.99 36.1019 214.468" stroke="#1B1B1B" stroke-width="0.7" stroke-linecap="round" stroke-linejoin="round"/>
<path d="M78.9032 224.667L79.1911 226.471C76.7263 226.342 74.2949 225.843 71.9785 224.99" stroke="#1B1B1B" stroke-width="0.7" stroke-linecap="round" stroke-linejoin="round"/>
<path d="M197.759 205.135C198.203 205.9 198.899 206.487 199.729 206.796" stroke="#1B1B1B" stroke-width="0.7" stroke-linecap="round" stroke-linejoin="round"/>
</svg>
