<svg width="400" height="300" viewBox="0 0 400 300" fill="none" xmlns="http://www.w3.org/2000/svg">
<mask id="mask0_502_549" style="mask-type:luminance" maskUnits="userSpaceOnUse" x="0" y="0" width="400" height="300">
<rect width="400" height="300" fill="white"/>
</mask>
<g mask="url(#mask0_502_549)">
<path d="M309.41 129.063L229.295 48.5199C217.195 36.3549 197.576 36.3549 185.476 48.5199L104.949 129.479C102.039 132.408 100.406 136.371 100.408 140.5L207.386 199.625L314.364 140.5C314.211 136.2 312.442 132.116 309.41 129.063Z" fill="white" stroke="#1B1B1B" stroke-width="0.7" stroke-linecap="round" stroke-linejoin="round"/>
<rect x="135.986" y="49.2798" width="148.206" height="148.998" rx="24.476" fill="white" stroke="#1B1B1B" stroke-width="0.7" stroke-linecap="round" stroke-linejoin="round"/>
<rect x="123.937" y="56.6053" width="166.897" height="167.789" rx="24.476" fill="white"/>
<rect x="123.937" y="56.6053" width="166.897" height="167.789" rx="24.476" stroke="#1B1B1B" stroke-width="0.7" stroke-linecap="round" stroke-linejoin="round"/>
<rect x="143.959" y="90.5448" width="126.854" height="15.868" rx="2.55975" fill="white" stroke="#1B1B1B" stroke-width="0.7" stroke-linecap="round" stroke-linejoin="round"/>
<rect x="143.959" y="118.871" width="86.6" height="15.868" rx="2.55975" fill="white" stroke="#1B1B1B" stroke-width="0.7" stroke-linecap="round" stroke-linejoin="round"/>
<path d="M100.408 140.5V226.437C100.397 235.671 103.667 244.61 109.636 251.657L184.667 187.069L100.408 140.5Z" fill="white" stroke="#1B1B1B" stroke-width="0.7" stroke-linecap="round" stroke-linejoin="round"/>
<path d="M314.364 140.5L230.104 187.069L305.136 251.657C311.104 244.61 314.375 235.672 314.364 226.437L314.364 140.5Z" fill="white" stroke="#1B1B1B" stroke-width="0.7" stroke-linecap="round" stroke-linejoin="round"/>
<path d="M230.104 187.069L218.612 177.176C212.161 171.614 202.61 171.614 196.16 177.176L184.667 187.069L109.636 251.657C116.753 260.085 127.353 265.448 139.211 265.448H275.56C287.418 265.448 298.018 260.085 305.136 251.657L230.104 187.069Z" fill="white" stroke="#1B1B1B" stroke-width="0.7" stroke-linecap="round" stroke-linejoin="round"/>
<path d="M165.56 68.5749L146.505 80.8051" stroke="#1B1B1B" stroke-width="0.7" stroke-linecap="round" stroke-linejoin="round"/>
<path d="M225.209 229.695C222.072 231.427 218.77 232.843 215.353 233.921" stroke="#1B1B1B" stroke-width="0.7" stroke-linecap="round" stroke-linejoin="round"/>
<rect x="50.3972" y="125.387" width="100.021" height="54.0695" rx="6.51157" fill="white" stroke="#1B1B1B" stroke-width="0.7" stroke-linecap="round" stroke-linejoin="round"/>
<path d="M69.6634 140.771H69.0994C67.9816 140.771 67.0754 141.587 67.0754 142.592V166.96C67.0754 167.966 67.9816 168.781 69.0994 168.781H69.6634C70.7813 168.781 71.6875 167.966 71.6875 166.96V142.592C71.6875 141.587 70.7813 140.771 69.6634 140.771Z" fill="#1B1B1B" stroke="#1B1B1B" stroke-width="0.7" stroke-linecap="round" stroke-linejoin="round"/>
<path d="M80.4882 152.537H78.959C78.1077 152.537 77.4176 153.158 77.4176 153.924V167.395C77.4176 168.16 78.1077 168.781 78.959 168.781H80.4883C81.3395 168.781 82.0296 168.16 82.0296 167.395V153.924C82.0296 153.158 81.3395 152.537 80.4882 152.537Z" fill="#1B1B1B" stroke="#1B1B1B" stroke-width="0.7" stroke-linecap="round" stroke-linejoin="round"/>
<path d="M90.746 150.712H89.3854C88.4875 150.712 87.7596 151.367 87.7596 152.175V167.319C87.7596 168.127 88.4875 168.781 89.3854 168.781H90.746C91.6438 168.781 92.3717 168.127 92.3717 167.319V152.175C92.3717 151.367 91.6439 150.712 90.746 150.712Z" fill="#1B1B1B" stroke="#1B1B1B" stroke-width="0.7" stroke-linecap="round" stroke-linejoin="round"/>
<path d="M100.526 136.063H100.289C99.0811 136.063 98.1017 136.944 98.1017 138.031V166.813C98.1017 167.9 99.0811 168.781 100.289 168.781H100.526C101.734 168.781 102.714 167.9 102.714 166.813V138.031C102.714 136.944 101.734 136.063 100.526 136.063Z" fill="#1B1B1B" stroke="#1B1B1B" stroke-width="0.7" stroke-linecap="round" stroke-linejoin="round"/>
<path d="M111.032 140.771H110.468C109.35 140.771 108.444 141.587 108.444 142.592V166.96C108.444 167.966 109.35 168.781 110.468 168.781H111.032C112.15 168.781 113.056 167.966 113.056 166.96V142.592C113.056 141.587 112.15 140.771 111.032 140.771Z" fill="#1B1B1B" stroke="#1B1B1B" stroke-width="0.7" stroke-linecap="round" stroke-linejoin="round"/>
<path d="M121.546 145.327H120.638C119.615 145.327 118.786 146.073 118.786 146.994V167.115C118.786 168.035 119.615 168.781 120.638 168.781H121.546C122.569 168.781 123.398 168.035 123.398 167.115V146.994C123.398 146.073 122.569 145.327 121.546 145.327Z" fill="#1B1B1B" stroke="#1B1B1B" stroke-width="0.7" stroke-linecap="round" stroke-linejoin="round"/>
<path d="M131.716 140.771H131.152C130.034 140.771 129.128 141.587 129.128 142.592V166.96C129.128 167.966 130.034 168.781 131.152 168.781H131.716C132.834 168.781 133.74 167.966 133.74 166.96V142.592C133.74 141.587 132.834 140.771 131.716 140.771Z" fill="#1B1B1B" stroke="#1B1B1B" stroke-width="0.7" stroke-linecap="round" stroke-linejoin="round"/>
<rect x="269.566" y="34.5517" width="80.0367" height="54.0022" rx="3.35028" fill="white" stroke="#1B1B1B" stroke-width="0.7" stroke-linecap="round" stroke-linejoin="round"/>
<path d="M308.854 62.3332C311.154 62.2274 313.437 62.776 315.438 63.9151L324.61 46.7251C319.525 43.9246 313.764 42.5881 307.965 42.8641C293.779 43.5189 282.201 53.4559 278.769 66.5711L297.52 71.5373C298.852 66.4455 303.347 62.5874 308.854 62.3332Z" fill="white" stroke="#1B1B1B" stroke-width="0.7" stroke-linecap="round" stroke-linejoin="round"/>
<path d="M321.435 72.0981L340.4 68.0098C338.478 58.9584 332.715 51.1901 324.61 46.7251L315.438 63.9151C318.517 65.6577 320.701 68.6372 321.435 72.0981Z" fill="white" stroke="#1B1B1B" stroke-width="0.7" stroke-linecap="round" stroke-linejoin="round"/>
<path d="M308.696 46.7519L304.65 73.3787C304.64 73.4474 304.655 73.5174 304.693 73.5758L308.738 80.0754C308.904 80.3424 309.392 80.3424 309.558 80.0754L313.603 73.5758C313.641 73.5174 313.656 73.4474 313.646 73.3788L309.601 46.7519C309.537 46.3337 308.759 46.3337 308.696 46.7519Z" fill="white" stroke="#1B1B1B" stroke-width="0.7" stroke-linecap="round" stroke-linejoin="round"/>
<rect x="335.307" y="221.704" width="79.3811" height="46.8525" rx="3.10782" transform="rotate(-180 335.307 221.704)" fill="white" stroke="#1B1B1B" stroke-width="0.7" stroke-linecap="round" stroke-linejoin="round"/>
<path d="M293.753 186.321C290.509 182.877 285.986 180.926 281.255 180.928V185.341C284.783 185.339 288.155 186.794 290.574 189.362C292.857 191.768 294.128 194.96 294.123 198.278H298.512C298.519 193.829 296.815 189.548 293.753 186.321Z" fill="white" stroke="#1B1B1B" stroke-width="0.7" stroke-linecap="round" stroke-linejoin="round"/>
<path d="M294.123 198.278C294.123 205.422 288.362 211.214 281.255 211.214C274.132 211.19 268.374 205.401 268.387 198.278C268.387 191.133 274.148 185.341 281.255 185.341V180.928C271.724 180.928 263.998 188.696 263.998 198.278C263.991 202.726 265.695 207.007 268.757 210.234C272.002 213.678 276.524 215.629 281.255 215.627C290.786 215.627 298.512 207.859 298.512 198.278H294.123Z" fill="white" stroke="#1B1B1B" stroke-width="0.7" stroke-linecap="round" stroke-linejoin="round"/>
<rect x="273.816" y="193.774" width="14.8776" height="4.50333" rx="2.24567" fill="white" stroke="#1B1B1B" stroke-width="0.7" stroke-linecap="round" stroke-linejoin="round"/>
<rect x="306.254" y="188.983" width="15.9636" height="3.71775" rx="1.85393" fill="white" stroke="#1B1B1B" stroke-width="0.7" stroke-linecap="round" stroke-linejoin="round"/>
<rect x="306.254" y="203.854" width="23.6007" height="3.71775" rx="1.85393" fill="white" stroke="#1B1B1B" stroke-width="0.7" stroke-linecap="round" stroke-linejoin="round"/>
<rect x="306.254" y="196.419" width="12.1503" height="3.71775" rx="1.85393" fill="white" stroke="#1B1B1B" stroke-width="0.7" stroke-linecap="round" stroke-linejoin="round"/>
</g>
</svg>
