<svg width="133" height="115" viewBox="0 0 233 215" fill="none" xmlns="http://www.w3.org/2000/svg">
<path fill-rule="evenodd" clip-rule="evenodd" d="M124.202 1.30975C121.014 2.02585 105.13 5.37323 88.9032 8.75056C28.4049 21.3397 28.5018 21.3163 26.2069 23.9074C23.9267 26.4834 23.4684 30.722 25.1669 33.5414C26.3513 35.5062 77.8353 67.8885 82.1502 69.3816C84.7675 70.2877 104.86 66.5593 140.865 58.4867L149.924 56.4554L149.617 37.7715C149.177 11.1591 147.779 5.46683 140.746 1.65797C136.87 -0.441629 132.422 -0.535237 124.202 1.30975ZM160.239 8.2741C158.977 9.31782 157.631 11.2826 157.248 12.6399C156.619 14.865 157.606 54.148 158.305 54.7705C158.466 54.9128 164.253 53.8045 171.166 52.3077C178.079 50.81 191.321 48.0561 200.594 46.1877C219.904 42.2974 222.475 41.5101 222.006 39.6333C221.82 38.8873 210.072 31.0992 195.899 22.3264C174.152 8.86476 169.537 6.37576 166.331 6.37576C163.971 6.37576 161.663 7.09466 160.239 8.2741ZM6.66529 41.3454C4.89931 42.0531 2.577 43.8222 1.50435 45.2769C-0.375427 47.8258 -0.397555 49.7457 0.905852 98.5242C1.74353 129.879 2.70554 150.338 3.43364 152.313C5.06579 156.739 8.76633 158.846 17.0493 160.066C23.637 161.036 25.0753 160.903 37.0325 158.223C44.1185 156.634 54.4214 154.407 59.9269 153.275C65.4324 152.142 71.0728 150.832 72.4615 150.363L74.9862 149.51L74.2381 137.617C73.8271 131.076 73.1211 114.904 72.6691 101.68C71.9916 81.8725 71.5427 77.223 70.1245 75.3003C67.4292 71.6459 17.3992 40.9756 13.3225 40.4786C11.4279 40.2474 8.43232 40.6377 6.66529 41.3454ZM183.735 58.5044C170.406 61.3332 159.187 63.9252 158.805 64.2641C158.423 64.6029 158.667 82.3892 159.348 103.79C160.441 138.165 160.801 142.992 162.438 145.211C163.457 146.592 164.635 147.723 165.056 147.723C165.478 147.724 167.245 148.825 168.983 150.169C170.722 151.513 177.597 155.87 184.262 159.849C190.926 163.828 201.55 170.31 207.87 174.252C217.417 180.207 220.055 181.42 223.46 181.42C226.407 181.42 228.286 180.775 230.144 179.122C232.411 177.11 232.752 175.92 232.898 169.528C232.988 165.515 233.026 161.625 232.981 160.883C232.936 160.143 232.615 150.665 232.269 139.822C229.535 54.2706 230.054 58.6486 222.211 54.9231C216.618 52.2665 210.401 52.845 183.735 58.5044ZM123.675 71.0384C112.084 73.5545 100.605 76.0913 98.1672 76.6763C92.6407 77.9999 85.876 83.0528 82.8087 88.1479C80.5559 91.8893 80.4832 92.8329 80.7467 114.96C81.0259 138.379 81.7245 148.947 82.9478 148.281C83.3261 148.076 85.5314 147.646 87.8495 147.328C90.1676 147.009 93.5057 146.332 95.2675 145.823C97.0303 145.314 101.535 144.302 105.277 143.572C109.021 142.842 116.826 141.327 122.621 140.203C137.941 137.232 144.938 132.997 149.63 123.852C151.801 119.622 152.117 109.186 150.905 81.879L150.213 66.2841L147.481 66.374C145.978 66.4236 135.265 68.5222 123.675 71.0384ZM134.212 147.161C131.314 147.843 121.357 149.967 112.084 151.882C102.812 153.797 92.2171 156.067 88.5408 156.925L81.8562 158.487L82.5706 180.016C82.9636 191.858 83.7613 203.206 84.3439 205.234C84.9277 207.262 86.9739 210.316 88.8927 212.021C93.4994 216.113 96.1536 216.06 118.504 211.425C180.225 198.628 190.911 196.296 193.732 194.999C199.857 192.185 202.042 183.903 197.892 179.217C196.697 177.867 188.28 172.091 179.189 166.383C170.099 160.673 159.361 153.867 155.329 151.258C147.059 145.906 142.948 145.109 134.212 147.161ZM67.3027 161.296C7.74532 173.767 7.24271 173.904 7.24271 177.652C7.24271 178.947 14.531 183.985 33.118 195.536C55.3666 209.364 59.5676 211.631 63.0964 211.713C65.7306 211.774 68.2552 211.114 70.1487 209.869C75.6742 206.236 75.8987 204.946 75.0926 181.435C74.6869 169.586 74.0716 159.934 73.726 159.986C73.3804 160.04 70.4901 160.629 67.3027 161.296Z" fill="black" fill-opacity="0.9"/>
</svg>
